<svg class="animated" id="freepik_stories-to-the-stars" xmlns="http://www.w3.org/2000/svg" viewBox="0 0 500 500" version="1.1"><style>@keyframes wind{0%{transform:rotate(0deg)}25%{transform:rotate(1deg)}75%{transform:rotate(-1deg)}}svg#freepik_stories-to-the-stars:not(.animated) .animable{opacity:0}</style><g id="freepik--Space--inject-1--inject-39" class="animable" style="transform-origin:250.869px 242.45px"><path d="M173 82.4a381.79 381.79 0 0 0-114.91 100c-15.85 20.76-24.33-51.56-8.09-79.7s65-51.6 113.73-51.6S205.67 64 173 82.4Z" style="fill:#263238;transform-origin:120.07px 118.596px" id="el8qrlx9cnc" class="animable"/><path d="M66.09 400.84c-78.11-40.9-54.87-142.6 7.72-216.21 104.1-122.44 245-174.39 333.66-105.38s90.46 237 59.62 286-99.72 71.22-219.51 71.22-143.86-15.93-181.49-35.63Z" style="fill:#263238;transform-origin:250.869px 242.45px" id="elbgb65hztfue" class="animable"/></g><g id="freepik--Smoke--inject-1--inject-39" class="animable" style="transform-origin:250.866px 312.77px"><path d="M476.15 344.56a98.13 98.13 0 0 1-6.83 16.78q-1.08 2.06-2.24 3.88c-1 1.6-2.05 3.17-3.15 4.71-1.3 1.85-2.67 3.67-4.11 5.44q-3.15 3.93-6.72 7.6a113.55 113.55 0 0 1-10.54 9.55c-16 12.81-36.54 22.67-62.24 29.77 0 0-41 12.83-129.45 12.83S113 422.29 113 422.29c-1-.3-1.88-.61-2.8-.93C96 416.51 84.89 410.75 73 404.5l-7-3.66C51.17 393 40 383 32 371.38a83.7 83.7 0 0 1-5.8-9.86c-11.56-23.19-12.2-51.33-4.73-80.44q.75-3 1.64-6a209.29 209.29 0 0 1 10.28-27.49c.12-.28.25-.55.38-.83l.45.31c.36.25.7.5 1 .76s.67.51 1 .77a37.9 37.9 0 0 1 4.56 4.3c.53.59 1 1.2 1.55 1.82.28.35.56.71.83 1.08l.65.9q.4.57.78 1.17l.66 1.06c.18.3.36.61.53.92.06.1.12.2.17.3.18.32.35.65.52 1s.38.75.56 1.13.31.66.45 1c.37.83.7 1.68 1 2.54.15.39.28.79.41 1.2v.08c.12.37.23.76.34 1.14l.24.9.15.6c.16.67.3 1.36.43 2 0 .26.09.52.13.79s.09.56.13.85.09.78.13 1.17.08.84.12 1.27c.06.9.09 1.8.09 2.72a38.09 38.09 0 0 1-3.48 15.93 38.76 38.76 0 0 1-6.89 10.25 26.85 26.85 0 0 1 13.14 9.32 38.4 38.4 0 0 1 44.66.57c.49.36 1 .73 1.43 1.11a38 38 0 0 1 5.15 5.08c.39.46.76.94 1.13 1.42q.81 1.08 1.56 2.22a36.22 36.22 0 0 1 1.83 3.14c.28.54.54 1.08.8 1.64.5 1.1 1 2.24 1.36 3.4a37.09 37.09 0 0 1 2 12 37.74 37.74 0 0 1-.27 4.53 36.82 36.82 0 0 1-2.11 8.54c-.11.27-.21.54-.32.8a17 17 0 0 1 11.24 4.51 27.07 27.07 0 0 1 12.46-7.33l.86-.22a18.48 18.48 0 0 1 2.59-.48c.31-.06.62-.09.93-.12s.87-.08 1.31-.1.95 0 1.43 0a27 27 0 0 1 19.23 8 26.35 26.35 0 0 1 6.9 12.25 38.92 38.92 0 0 1 20.08-5.52c21.42 0 38.8 17.13 38.8 38.27v.58a17.05 17.05 0 0 1 25 7.54 17 17 0 0 1 27-6.05 33 33 0 0 1-.23-3.75 32.35 32.35 0 0 1 9.16-22.57l.6-.5c.56-.56 1.15-1.09 1.75-1.61.4-.34.81-.67 1.22-1l.64-.48c.42-.31.86-.62 1.3-.91a31.31 31.31 0 0 1 2.73-1.64l.71-.37c.48-.24 1-.47 1.45-.69s1-.43 1.49-.62 1-.38 1.52-.55a33.6 33.6 0 0 1 32.28 6.2c.76.64 1.48 1.31 2.18 2a33.23 33.23 0 0 1 3.73 4.57 17 17 0 0 1 7.17-3.34 34.82 34.82 0 0 1-.95-3.68c-.08-.42-.16-.84-.23-1.27a32.85 32.85 0 0 1-.41-5.19 32.48 32.48 0 0 1 .27-4.21q.11-.88.27-1.77a31.53 31.53 0 0 1 1.27-4.86q.3-.9.66-1.77c.18-.43.37-.86.56-1.29a33.84 33.84 0 0 1 7-10 34.39 34.39 0 0 1 24.21-9.89 36.09 36.09 0 0 1 5.44.42c.87.14 1.74.31 2.59.51l1.28.33 1 .3q.76.24 1.5.51l1.22.47c.4.16.8.34 1.2.52l.87.41.23.11A34 34 0 0 1 411 363a16.93 16.93 0 0 1 11.42-4.4c.51 0 1 0 1.51.06a11.24 11.24 0 0 1-.08-1.31 14 14 0 0 1 5.18-10.85l-1.26-.34a31.23 31.23 0 0 1-9.16-4.43c-.69-.49-1.36-1-2-1.53s-1.28-1.1-1.87-1.69a30.38 30.38 0 0 1-9.22-21.81 28.44 28.44 0 0 1 .27-3.94c.08-.59.18-1.18.29-1.77s.29-1.35.47-2c-.8-.15-1.6-.34-2.38-.56l-1.15-.35c-.77-.26-1.52-.54-2.25-.85s-1.45-.66-2.15-1a28.09 28.09 0 0 1-4.89-3.29 27.27 27.27 0 0 1-9.8-20.93V280.53c0-.35 0-.7.08-1v-.44a.13.13 0 0 1 0-.06c0-.37.08-.72.14-1.08v-.27c.06-.4.14-.79.22-1.17s.18-.82.28-1.23.17-.63.27-.94.15-.52.23-.77c.21-.64.45-1.28.71-1.9.1-.25.21-.5.32-.75l.12-.25c.11-.24.22-.48.34-.71.31-.64.66-1.27 1-1.89l.31-.5a1.82 1.82 0 0 1 .15-.23c.27-.43.55-.84.86-1.25a1.37 1.37 0 0 1 .15-.21l.4-.53a19.31 19.31 0 0 1 1.31-1.56c.21-.23.42-.46.64-.68s.43-.45.66-.66.45-.44.68-.64.45-.41.68-.61a24.3 24.3 0 0 1 2.23-1.7 27.92 27.92 0 0 1 15.93-4.94 29.09 29.09 0 0 1 5.24.49v-.49a14.14 14.14 0 0 1 .11-1.85c0-.24.05-.47.09-.7a3.06 3.06 0 0 1 .05-.32c.07-.43.16-.85.27-1.27a15.4 15.4 0 0 1 .48-1.5c.09-.25.19-.5.29-.75s.17-.39.26-.58.14-.3.22-.45a16.44 16.44 0 0 1 2.52-3.66l.35-.37a11.63 11.63 0 0 1 .87-.85 5.82 5.82 0 0 1 .48-.41l.46-.37a12.65 12.65 0 0 1 1.5-1.05l.53-.32.54-.29c.19-.11.39-.21.58-.3.37-.17.73-.33 1.11-.47l.58-.22c.35-.12.7-.24 1.07-.33s.54-.15.82-.21l.55-.11a10.33 10.33 0 0 1 1.26-.19l.65-.06h1.32a16.89 16.89 0 0 1 10.95 4 12.36 12.36 0 0 1 12.41-11.75h.4a27.15 27.15 0 0 1-3.53-13.39 27.56 27.56 0 0 1 20-26.37 335.31 335.31 0 0 1 10.82 77.14c.91 29.65-2.44 56.91-8.74 77Z" style="fill:#37474f;transform-origin:250.797px 312.77px" id="elqpoaveiqs7d" class="animable"/><path d="M336.06 416.93h-35.91a18 18 0 0 1 35.91 0Z" style="fill:#263238;transform-origin:318.105px 408.566px" id="elo8klbaur9zo" class="animable"/><path d="M110.2 421.36C96 416.51 84.89 410.75 73 404.5a23 23 0 0 1 37.16 16.86Z" style="fill:#263238;transform-origin:91.6px 410.479px" id="el0nur321lyfs" class="animable"/><path d="M211.36 421h-66.83a15.46 15.46 0 0 1-3.1-9.29 15.8 15.8 0 0 1 31.59-.37 23.09 23.09 0 0 1 38.34 9.66Z" style="fill:#263238;transform-origin:176.395px 408.538px" id="el3tunn436xh1" class="animable"/><path d="M469.32 361.34q-1.08 2.06-2.24 3.88c-1 1.6-2.05 3.17-3.15 4.71-1.3 1.85-2.67 3.67-4.11 5.44q-3.15 3.93-6.72 7.6a113.55 113.55 0 0 1-10.54 9.55c-16 12.81-36.54 22.67-62.24 29.77l-20.84 3.65-.1-3.65a38 38 0 0 1 51.11-14.91A17.48 17.48 0 0 1 427 395.75a17.82 17.82 0 0 1 4.82.68 37.42 37.42 0 0 1 37.5-35.09Z" style="fill:#263238;transform-origin:414.35px 393.64px" id="el192u4064bui" class="animable"/><path d="M476.15 344.56a24.86 24.86 0 0 1-4.27-46.11 17.54 17.54 0 0 1-6.34-13.45 17.82 17.82 0 0 1 17.95-17.71c.54 0 1.07 0 1.59.07.72 29.85-2.63 57.11-8.93 77.2Z" style="fill:#263238;transform-origin:471.672px 305.925px" id="eltj5w7hobw3" class="animable"/><path d="M43.21 371.73a24.94 24.94 0 0 0-13.72-22.19 17.54 17.54 0 0 0 6.34-13.49 17.82 17.82 0 0 0-17.95-17.71c-.45 0-.89 0-1.32.06.09 15.47 3.14 30.08 9.64 43.12a83.7 83.7 0 0 0 5.8 9.86 84.92 84.92 0 0 0 8.85 10.84 24.58 24.58 0 0 0 2.36-10.49Z" style="fill:#263238;transform-origin:29.885px 350.28px" id="eleuwhtlwulnp" class="animable"/><path d="M442.1 286.92a5.5 5.5 0 1 1 5.5 5.43 5.46 5.46 0 0 1-5.5-5.43Z" style="fill:#263238;transform-origin:447.6px 286.85px" id="elfr5jdto8ab" class="animable"/><path d="M58.48 344.31a5.5 5.5 0 1 1 5.5 5.43 5.46 5.46 0 0 1-5.5-5.43Z" style="fill:#263238;transform-origin:63.9796px 344.24px" id="eloo8mb2q7aaa" class="animable"/><path d="M126.79 400.94a5.78 5.78 0 1 1 5.78 5.7 5.73 5.73 0 0 1-5.78-5.7Z" style="fill:#263238;transform-origin:132.569px 400.86px" id="ely2p64wq5dmq" class="animable"/><path d="M346.32 409.85a5.78 5.78 0 1 1 5.78 5.7 5.74 5.74 0 0 1-5.78-5.7Z" style="fill:#263238;transform-origin:352.099px 409.77px" id="elucvgzrx7gzo" class="animable"/><ellipse cx="430.82" cy="219.62" rx="4.32" ry="4.26" style="fill:#455a64;transform-origin:430.82px 219.62px" id="el4n3g1vo5bfk" class="animable"/><path d="M328.77 345.58a4 4 0 1 1 4 3.9 3.92 3.92 0 0 1-4-3.9Z" style="fill:#455a64;transform-origin:332.769px 345.48px" id="el8615r6ycwgu" class="animable"/><ellipse cx="131.91" cy="333.26" rx="3.21" ry="3.17" style="fill:#455a64;transform-origin:131.91px 333.26px" id="eltfzoksafkx" class="animable"/><path d="M60.13 285.71a6.13 6.13 0 1 1 6.13 6 6.09 6.09 0 0 1-6.13-6Z" style="fill:#455a64;transform-origin:66.2586px 285.58px" id="el29d9c1vrsdo" class="animable"/><path d="M279.26 410.56c-.25-.25-.52-.48-.78-.71a32.66 32.66 0 0 0 .63 3.58c0-.97.06-1.92.15-2.87Z" style="fill:#c8b068;transform-origin:278.87px 411.64px" id="elcgu0lcwzgfa" class="animable"/><path d="M339 387.91a33.27 33.27 0 0 0-60.76 18.19 31.07 31.07 0 0 0 .24 3.75c.26.23.53.46.78.71a33.26 33.26 0 0 1 56.9-19.77 32.5 32.5 0 0 1 8.44 15.35 32.26 32.26 0 0 0-5.6-18.23Z" style="fill:#c8b068;transform-origin:311.42px 391.967px" id="elcgaraxr40ja" class="animable"/><path d="M389.67 344a35.53 35.53 0 0 1 4.53.3 34.53 34.53 0 0 0-15.37-3.6 34 34 0 0 0-34.23 33.76 33.37 33.37 0 0 0 1.57 10.15 34.17 34.17 0 0 0 28.12 23.31 34.31 34.31 0 0 1-7.79-5.32 33.59 33.59 0 0 1-10.11-16.94 33.24 33.24 0 0 1-.95-7.9A34 34 0 0 1 389.67 344Z" style="fill:#c8b068;transform-origin:369.4px 374.31px" id="el9vgxgeluixd" class="animable"/><path d="M445 341.36a31 31 0 0 1-31.21-30.78c0-.42 0-.83.06-1.25a30.64 30.64 0 0 1 1.09-6.95 27.83 27.83 0 0 1-22.53-27 27.18 27.18 0 0 1 6.79-18 27.38 27.38 0 0 0 7.4 51.5 30.35 30.35 0 0 0-1 7.73 30.84 30.84 0 0 0 23.51 29.8 14.42 14.42 0 0 1 17.44-.57 31.14 31.14 0 0 0 12.8-8 31.43 31.43 0 0 1-14.35 3.52Z" style="fill:#c8b068;transform-origin:421.661px 301.895px" id="elaevc0w8kfzl" class="animable"/><path d="M437.38 270.79c.42-.08.84-.19 1.25-.3-.5 0-1-.09-1.48-.17.08.16.16.31.23.47Z" style="fill:#c8b068;transform-origin:437.89px 270.555px" id="elp7ttjq8pwe9" class="animable"/><path d="M437.15 270.32a16.82 16.82 0 0 1-14.06-13.6 16.29 16.29 0 0 1-.28-2.9 16.56 16.56 0 0 1 1-5.7 16.87 16.87 0 0 1 11.35-10.39c-.38 0-.76-.06-1.15-.06A17 17 0 0 0 418.39 248a16.37 16.37 0 0 0-1.31 6.42v.51A16.84 16.84 0 0 0 434 271.12a16.67 16.67 0 0 0 3.34-.33c-.03-.16-.11-.31-.19-.47Z" style="fill:#c8b068;transform-origin:427.21px 254.395px" id="elac52b1k0cwd" class="animable"/><path d="M160.13 380.82a38.66 38.66 0 0 1 7.46-5.8 26.86 26.86 0 0 0-26.17-20.35 27.37 27.37 0 0 0-7.12 1 26.72 26.72 0 0 1 25.83 25.15Z" style="fill:#c8b068;transform-origin:150.945px 367.745px" id="elmsgacixx0tt" class="animable"/><path d="M75.42 307.21h-.82A37.61 37.61 0 0 1 105 344a36.86 36.86 0 0 1-4.58 17.84 37.69 37.69 0 0 1-6 8.14 38.1 38.1 0 0 1-26.61 11.42 38.89 38.89 0 0 0 7.61.75 38.26 38.26 0 0 0 18.22-4.58 37.78 37.78 0 0 0 17.07-19 36.83 36.83 0 0 0 2.7-13.88c0-20.69-17.01-37.48-37.99-37.48Z" style="fill:#c8b068;transform-origin:90.61px 344.68px" id="eltyzw8zl8pe" class="animable"/><path d="M50.72 278.57a38.17 38.17 0 0 1-10.38 26.18 26.85 26.85 0 0 0-14.89-.52 38.42 38.42 0 0 0 17-31.87 38.11 38.11 0 0 0-9.1-24.74c.12-.28.25-.55.38-.83a38.36 38.36 0 0 1 16.99 31.78Z" style="fill:#c8b068;transform-origin:38.085px 275.77px" id="elzbsawyclfym" class="animable"/><g id="elsctvygxx1ud"><g style="opacity:.3;transform-origin:242.4px 325.55px" class="animable" id="el7qm6dch9zk6"><path d="M279.26 410.56c-.25-.25-.52-.48-.78-.71a32.66 32.66 0 0 0 .63 3.58c0-.97.06-1.92.15-2.87Z" id="el98wipct337" class="animable" style="transform-origin:278.87px 411.64px"/><path d="M339 387.91a33.27 33.27 0 0 0-60.76 18.19 31.07 31.07 0 0 0 .24 3.75c.26.23.53.46.78.71a33.26 33.26 0 0 1 56.9-19.77 32.5 32.5 0 0 1 8.44 15.35 32.26 32.26 0 0 0-5.6-18.23Z" id="elo41l9sthbqg" class="animable" style="transform-origin:311.42px 391.967px"/><path d="M389.67 344a35.53 35.53 0 0 1 4.53.3 34.53 34.53 0 0 0-15.37-3.6 34 34 0 0 0-34.23 33.76 33.37 33.37 0 0 0 1.57 10.15 34.17 34.17 0 0 0 28.12 23.31 34.31 34.31 0 0 1-7.79-5.32 33.59 33.59 0 0 1-10.11-16.94 33.24 33.24 0 0 1-.95-7.9A34 34 0 0 1 389.67 344Z" id="eluf9ktke6w7e" class="animable" style="transform-origin:369.4px 374.31px"/><path d="M445 341.36a31 31 0 0 1-31.21-30.78c0-.42 0-.83.06-1.25a30.64 30.64 0 0 1 1.09-6.95 27.83 27.83 0 0 1-22.53-27 27.18 27.18 0 0 1 6.79-18 27.38 27.38 0 0 0 7.4 51.5 30.35 30.35 0 0 0-1 7.73 30.84 30.84 0 0 0 23.51 29.8 14.42 14.42 0 0 1 17.44-.57 31.14 31.14 0 0 0 12.8-8 31.43 31.43 0 0 1-14.35 3.52Z" id="elfvsbssz9kdo" class="animable" style="transform-origin:421.661px 301.895px"/><path d="M437.38 270.79c.42-.08.84-.19 1.25-.3-.5 0-1-.09-1.48-.17.08.16.16.31.23.47Z" id="elv8u4wd49fwd" class="animable" style="transform-origin:437.89px 270.555px"/><path d="M437.15 270.32a16.82 16.82 0 0 1-14.06-13.6 16.29 16.29 0 0 1-.28-2.9 16.56 16.56 0 0 1 1-5.7 16.87 16.87 0 0 1 11.35-10.39c-.38 0-.76-.06-1.15-.06A17 17 0 0 0 418.39 248a16.37 16.37 0 0 0-1.31 6.42v.51A16.84 16.84 0 0 0 434 271.12a16.67 16.67 0 0 0 3.34-.33c-.03-.16-.11-.31-.19-.47Z" id="el6ypmzwu9a6h" class="animable" style="transform-origin:427.21px 254.395px"/><path d="M160.13 380.82a38.66 38.66 0 0 1 7.46-5.8 26.86 26.86 0 0 0-26.17-20.35 27.37 27.37 0 0 0-7.12 1 26.72 26.72 0 0 1 25.83 25.15Z" id="elpha1vtfhdi" class="animable" style="transform-origin:150.945px 367.745px"/><path d="M75.42 307.21h-.82A37.61 37.61 0 0 1 105 344a36.86 36.86 0 0 1-4.58 17.84 37.69 37.69 0 0 1-6 8.14 38.1 38.1 0 0 1-26.61 11.42 38.89 38.89 0 0 0 7.61.75 38.26 38.26 0 0 0 18.22-4.58 37.78 37.78 0 0 0 17.07-19 36.83 36.83 0 0 0 2.7-13.88c0-20.69-17.01-37.48-37.99-37.48Z" id="elrm9x0eossv" class="animable" style="transform-origin:90.61px 344.68px"/><path d="M50.72 278.57a38.17 38.17 0 0 1-10.38 26.18 26.85 26.85 0 0 0-14.89-.52 38.42 38.42 0 0 0 17-31.87 38.11 38.11 0 0 0-9.1-24.74c.12-.28.25-.55.38-.83a38.36 38.36 0 0 1 16.99 31.78Z" id="eltyxmmxkbp1k" class="animable" style="transform-origin:38.085px 275.77px"/></g></g></g><g id="freepik--Rocket--inject-1--inject-39" class="animable" style="transform-origin:250px 282.154px;animation:3s Infinite linear wind;animation-delay:0s"><ellipse cx="250.03" cy="424.93" rx="62.59" ry="25.66" style="fill:#c8b068;transform-origin:250.03px 424.93px" id="el36jo1i40wcw" class="animable"/><ellipse cx="250.03" cy="424.93" rx="62.59" ry="25.66" style="fill:#c8b068;transform-origin:250.03px 424.93px" id="elm4pq95zoj4l" class="animable"/><g id="el59heb55nwtm"><ellipse cx="250.03" cy="424.93" rx="62.59" ry="25.66" style="fill:#fff;opacity:.9;transform-origin:250.03px 424.93px" class="animable" id="elx01set978s"/></g><path d="M186.29 411.67a27.81 27.81 0 0 1 55.6 0v1.55c-.32 3.85-3 7.63-8.14 10.59-10.85 6.27-28.48 6.27-39.35 0-5.08-3-7.8-6.74-8.11-10.59v-.77c0-.27-.02-.51 0-.78Z" style="fill:#c8b068;transform-origin:214.086px 406.559px" id="ely8nnvadxfpc" class="animable"/><g id="elos3pw4qpe"><path d="M186.29 411.67a27.81 27.81 0 0 1 55.6 0v1.55c-.32 3.85-3 7.63-8.14 10.59-10.85 6.27-28.48 6.27-39.35 0-5.08-3-7.8-6.74-8.11-10.59v-.77c0-.27-.02-.51 0-.78Z" style="fill:#fff;opacity:.8;transform-origin:214.086px 406.559px" class="animable" id="elk05ic0gau7"/></g><g id="els2vnxo14ojb"><path d="M202 387.4a27.79 27.79 0 0 1 39.87 24.27v1.55c-.32 3.85-3 7.63-8.14 10.59a37.08 37.08 0 0 1-13.95 4.35c7.21-1.25 11.88-9.3 9.66-18.19-2.55-10.32-12.98-25.23-27.44-22.57Z" style="fill:#fff;opacity:.3;mix-blend-mode:lighten;transform-origin:221.935px 406.396px" class="animable" id="elj54rwr6z05"/></g><g id="elznnjnt9i8mg"><path d="M186.29 413.22v-1.55a27.68 27.68 0 0 1 9.44-20.09c-3 3.11-9.74 14.81-2.44 23.74 4.8 5.87 27.6 14.24 46.36 3.48a19.56 19.56 0 0 1-5.9 5c-10.85 6.27-28.48 6.27-39.35 0-5.08-2.95-7.8-6.73-8.11-10.58Z" style="fill:#c8b068;opacity:.1;transform-origin:212.97px 410.041px" class="animable" id="elo7i4mukushb"/></g><g id="el0k67qctp5fvj"><path d="M214.37 390.9c-1.24 2.83 1.15 6.62 5.34 8.46s8.61 1 9.85-1.79-1.15-6.63-5.34-8.47-8.6-1.04-9.85 1.8Z" style="fill:#fff;opacity:.5;mix-blend-mode:lighten;transform-origin:221.965px 394.225px" class="animable" id="elkhjt1foe65"/></g><g id="elba537d2bs6k"><path d="M230.48 402.43c-.65 1.48.29 3.32 2.1 4.12s3.8.24 4.45-1.24-.29-3.32-2.1-4.11-3.8-.2-4.45 1.23Z" style="fill:#fff;opacity:.5;mix-blend-mode:lighten;transform-origin:233.755px 403.881px" class="animable" id="elx6tiv6mkcmc"/></g><path d="M300.74 417.68a23.61 23.61 0 0 0-47.21 0V419c.26 3.27 2.57 6.48 6.91 9 9.21 5.32 24.18 5.32 33.41 0 4.32-2.51 6.62-5.72 6.89-9v-.66c0-.23.02-.43 0-.66Z" style="fill:#c8b068;transform-origin:277.139px 413.273px" id="elcc29aw59xjw" class="animable"/><g id="elb90loxyj2su"><path d="M300.74 417.68a23.61 23.61 0 0 0-47.21 0V419c.26 3.27 2.57 6.48 6.91 9 9.21 5.32 24.18 5.32 33.41 0 4.32-2.51 6.62-5.72 6.89-9v-.66c0-.23.02-.43 0-.66Z" style="fill:#fff;opacity:.8;transform-origin:277.139px 413.273px" class="animable" id="elupe5ikdzmj"/></g><g id="el9ctmebarcqp"><path d="M287.38 397.07a23.58 23.58 0 0 0-33.85 20.61V419c.26 3.27 2.57 6.48 6.91 9a31.4 31.4 0 0 0 11.84 3.69c-6.12-1.05-10.09-7.89-8.2-15.45 2.18-8.77 11.04-21.43 23.3-19.17Z" style="fill:#fff;opacity:.3;mix-blend-mode:lighten;transform-origin:270.455px 413.201px" class="animable" id="eloviu47newsr"/></g><g id="elpfkvuxtbw7o"><path d="M300.74 419v-1.32a23.47 23.47 0 0 0-8-17.06c2.56 2.64 8.27 12.58 2.07 20.16-4.08 5-23.44 12.1-39.38 3a16.63 16.63 0 0 0 5 4.25c9.21 5.32 24.18 5.32 33.41 0 4.33-2.55 6.63-5.76 6.9-9.03Z" style="fill:#c8b068;opacity:.1;transform-origin:278.085px 416.32px" class="animable" id="eli7pafxs4m8"/></g><g id="eldh9e92vu19e"><path d="M276.89 400c1.06 2.41-1 5.63-4.53 7.19s-7.31.88-8.37-1.53 1-5.62 4.54-7.19 7.31-.84 8.36 1.53Z" style="fill:#fff;opacity:.5;mix-blend-mode:lighten;transform-origin:270.44px 402.833px" class="animable" id="ellbnyg5if1ea"/></g><g id="elwd99i00xkfn"><path d="M263.21 409.84a3.1 3.1 0 1 1-3.78-1 2.81 2.81 0 0 1 3.78 1Z" style="fill:#fff;opacity:.5;mix-blend-mode:lighten;transform-origin:260.705px 411.624px" class="animable" id="el4xm82ijwgiu"/></g><path d="M324.74 421.73a15.62 15.62 0 0 0-31.22 0 4.85 4.85 0 0 0 0 .88c.17 2.16 1.7 4.28 4.57 5.94 6.09 3.52 16 3.52 22.09 0 2.86-1.66 4.38-3.78 4.56-5.94v-.44c0-.15.01-.29 0-.44Z" style="fill:#c8b068;transform-origin:309.122px 418.929px" id="el5fzoftqvskk" class="animable"/><g id="el69rhwrp7v6r"><path d="M324.74 421.73a15.62 15.62 0 0 0-31.22 0 4.85 4.85 0 0 0 0 .88c.17 2.16 1.7 4.28 4.57 5.94 6.09 3.52 16 3.52 22.09 0 2.86-1.66 4.38-3.78 4.56-5.94v-.44c0-.15.01-.29 0-.44Z" style="fill:#fff;opacity:.9;transform-origin:309.122px 418.929px" class="animable" id="el4qcpbqm5dem"/></g><g id="el6wx8pd0jeov"><path d="M315.91 408.11a15.6 15.6 0 0 0-22.39 13.62 4.85 4.85 0 0 0 0 .88c.17 2.16 1.7 4.28 4.57 5.94a20.56 20.56 0 0 0 7.83 2.44c-4.05-.7-6.67-5.22-5.42-10.21 1.44-5.78 7.3-14.17 15.41-12.67Z" style="fill:#fff;opacity:.5;mix-blend-mode:lighten;transform-origin:304.705px 418.771px" class="animable" id="elsqv2nezvfqh"/></g><g id="elw3tohvrgzr"><path d="M324.74 422.61v-.88a15.53 15.53 0 0 0-5.3-11.28c1.7 1.74 5.47 8.32 1.37 13.33-2.7 3.3-15.5 8-26 2a11.13 11.13 0 0 0 3.32 2.81c6.09 3.52 16 3.52 22.09 0 2.78-1.7 4.34-3.82 4.52-5.98Z" style="fill:#c8b068;opacity:.1;transform-origin:309.775px 420.84px" class="animable" id="elthmd8z3x70o"/></g><g id="elk46h83nd11"><path d="M309 410.07c.7 1.59-.64 3.72-3 4.75s-4.83.58-5.53-1 .64-3.72 3-4.75 4.8-.6 5.53 1Z" style="fill:#fff;opacity:.5;mix-blend-mode:lighten;transform-origin:304.735px 411.942px" class="animable" id="elqy9aekd9zvp"/></g><g id="elg2fw56fqo1r"><path d="M299.92 416.55a2.05 2.05 0 0 1-3.68 1.61 2 2 0 0 1 3.68-1.61Z" style="fill:#fff;opacity:.5;mix-blend-mode:lighten;transform-origin:298.018px 417.188px" class="animable" id="eletepksqv33q"/></g><path d="M360.58 424.41a21.22 21.22 0 0 0-42.43 0 5.82 5.82 0 0 0 0 .59 5.72 5.72 0 0 0 0 .59c.24 2.94 2.31 5.82 6.21 8.08 8.28 4.79 21.73 4.79 30 0 3.88-2.26 5.95-5.14 6.19-8.08a5.72 5.72 0 0 0 0-.59 5.82 5.82 0 0 0 .03-.59Z" style="fill:#c8b068;transform-origin:339.361px 420.457px" id="elro9uiy29neo" class="animable"/><g id="eljnp2wp1873i"><path d="M360.58 424.41a21.22 21.22 0 0 0-42.43 0 5.82 5.82 0 0 0 0 .59 5.72 5.72 0 0 0 0 .59c.24 2.94 2.31 5.82 6.21 8.08 8.28 4.79 21.73 4.79 30 0 3.88-2.26 5.95-5.14 6.19-8.08a5.72 5.72 0 0 0 0-.59 5.82 5.82 0 0 0 .03-.59Z" style="fill:#fff;opacity:.7;transform-origin:339.361px 420.457px" class="animable" id="elg8ofrr6lf8i"/></g><g id="elo8uuno53wq"><path d="M348.58 405.89a21.2 21.2 0 0 0-30.43 18.52 5.82 5.82 0 0 0 0 .59 5.72 5.72 0 0 0 0 .59c.24 2.94 2.31 5.82 6.21 8.08A28.26 28.26 0 0 0 335 437c-5.51-.95-9.07-7.09-7.38-13.88 1.98-7.89 9.94-19.27 20.96-17.23Z" style="fill:#fff;opacity:.3;mix-blend-mode:lighten;transform-origin:333.361px 420.386px" class="animable" id="elfrn580gy6zf"/></g><g id="elrezzpddg8hf"><path d="M360.58 425.59a5.72 5.72 0 0 0 0-.59 5.82 5.82 0 0 0 0-.59 21.14 21.14 0 0 0-7.2-15.34c2.3 2.38 7.43 11.31 1.86 18.12-3.67 4.48-21.06 10.87-35.38 2.66a14.75 14.75 0 0 0 4.5 3.82c8.28 4.79 21.73 4.79 30 0 3.91-2.26 5.98-5.14 6.22-8.08Z" style="fill:#c8b068;opacity:.1;transform-origin:340.224px 423.166px" class="animable" id="el2ggvj4teh5m"/></g><g id="eldik917j4x5v"><path d="M339.15 408.55c1 2.17-.87 5.06-4.08 6.47s-6.56.79-7.51-1.38.87-5.05 4.07-6.46 6.57-.79 7.52 1.37Z" style="fill:#fff;opacity:.5;mix-blend-mode:lighten;transform-origin:333.364px 411.1px" class="animable" id="elkug3cai5fx"/></g><g id="elxrp7hkq2ss"><path d="M326.86 417.36a2.79 2.79 0 0 1-5 2.19 2.79 2.79 0 0 1 5-2.19Z" style="fill:#fff;opacity:.5;mix-blend-mode:lighten;transform-origin:324.36px 418.455px" class="animable" id="elnalvuc42gxd"/></g><path d="M275.43 374.67a25.3 25.3 0 0 1-8.95 19.33 16.49 16.49 0 0 0-6 12.57v41.23c0 1.54-1 3.09-3.05 4.26a12.94 12.94 0 0 1-3.83 1.4 17.68 17.68 0 0 1-7.1 0 13 13 0 0 1-3.81-1.4c-2-1.17-3.05-2.72-3.05-4.26v-41.35a16.34 16.34 0 0 0-6-12.43 25.25 25.25 0 0 1-9-19.55 25.38 25.38 0 0 1 50.76.2Z" style="fill:#c8b068;transform-origin:250.035px 401.505px" id="eljeee39tri2o" class="animable"/><g id="el8mu8tfi8gzg"><path d="M275.43 374.67a25.3 25.3 0 0 1-8.95 19.33 16.49 16.49 0 0 0-6 12.57v41.23c0 1.54-1 3.09-3.05 4.26a12.94 12.94 0 0 1-3.83 1.4 17.68 17.68 0 0 1-7.1 0 13 13 0 0 1-3.81-1.4c-2-1.17-3.05-2.72-3.05-4.26v-41.35a16.34 16.34 0 0 0-6-12.43 25.25 25.25 0 0 1-9-19.55 25.38 25.38 0 0 1 50.76.2Z" style="fill:#fff;opacity:.5;transform-origin:250.035px 401.505px" class="animable" id="eldkdpy04c1dc"/></g><path d="M264.21 374.67a14.14 14.14 0 0 1-6 11.53 11.5 11.5 0 0 0-4.65 9.42v47.29a3.59 3.59 0 0 1-3.51 3.63H250a3.59 3.59 0 0 1-3.52-3.63v-47.48a11.32 11.32 0 0 0-4.64-9.24 14.12 14.12 0 0 1-6-11.92 14.16 14.16 0 0 1 28.32.4Z" style="fill:#c8b068;transform-origin:250.023px 403.424px" id="elx75wh2m19cp" class="animable"/><g id="elej9i7n2v5lu"><path d="M264.21 374.67a14.14 14.14 0 0 1-6 11.53 11.5 11.5 0 0 0-4.65 9.42v47.29a3.59 3.59 0 0 1-3.51 3.63H250a3.59 3.59 0 0 1-3.52-3.63v-47.48a11.32 11.32 0 0 0-4.64-9.24 14.12 14.12 0 0 1-6-11.92 14.16 14.16 0 0 1 28.32.4Z" style="fill:#fff;opacity:.7;transform-origin:250.023px 403.424px" class="animable" id="elm8kkw1py0w"/></g><g id="elqxsbt0zjxxe"><circle cx="260.64" cy="384.05" r="6.62" style="fill:#fff;opacity:.7;transform-origin:260.64px 384.05px" class="animable" id="elq0s3z3fq98"/></g><g id="elgez16daj7ps"><path d="M256.59 370.88a4 4 0 1 1 4.05 4 4 4 0 0 1-4.05-4Z" style="fill:#fff;opacity:.7;transform-origin:260.59px 370.88px" class="animable" id="elpn0gi9ttkic"/></g><g id="eli9jjt2x1woc"><path d="M248.87 364.43a2 2 0 1 1 2 2 2 2 0 0 1-2-2Z" style="fill:#fff;opacity:.7;transform-origin:250.87px 364.43px" class="animable" id="el7p4txuhd9z9"/></g><g id="el6110lzt4lxq"><path d="M232.87 366.83a5.44 5.44 0 1 1 5.43 5.44 5.43 5.43 0 0 1-5.43-5.44Z" style="fill:#fff;opacity:.7;transform-origin:238.31px 366.83px" class="animable" id="elpqy1zj487e"/></g><g id="elrpzf9msbuhm"><path d="M232 376.66a2.55 2.55 0 1 0 2.55-2.55 2.55 2.55 0 0 0-2.55 2.55Z" style="fill:#fff;opacity:.7;transform-origin:234.55px 376.66px" class="animable" id="elcj9lljlf27b"/></g><g id="el132np32jko8"><circle cx="238" cy="385.58" r="4.14" style="fill:#fff;opacity:.7;transform-origin:238px 385.58px" class="animable" id="elikre89v605m"/></g><g id="elqj1dpe0rpct"><path d="M243.74 391.83a3.41 3.41 0 1 1 3.41 3.41 3.41 3.41 0 0 1-3.41-3.41Z" style="fill:#fff;opacity:.7;transform-origin:247.15px 391.83px" class="animable" id="elvbdkis2nzy"/></g><g id="elyoy42zc8p6"><path d="M227.12 370.88a1.74 1.74 0 1 1 1.74 1.73 1.74 1.74 0 0 1-1.74-1.73Z" style="fill:#fff;opacity:.7;transform-origin:228.86px 370.87px" class="animable" id="el3yihdctvw2w"/></g><g id="el9j3zjiz1nf6"><path d="M264.93 363.69a2.29 2.29 0 1 1 2.29 2.29 2.29 2.29 0 0 1-2.29-2.29Z" style="fill:#fff;opacity:.7;transform-origin:267.22px 363.69px" class="animable" id="el5efr6zceh4p"/></g><g id="elelq0fewgulk"><path d="M267.21 374.92a2.31 2.31 0 1 1 2.3 2.3 2.31 2.31 0 0 1-2.3-2.3Z" style="fill:#fff;opacity:.7;transform-origin:269.52px 374.91px" class="animable" id="el19kn97zhg21"/></g><g id="eldl754n258u"><path d="M243.34 376.78a2.31 2.31 0 1 1 2.3 2.31 2.3 2.3 0 0 1-2.3-2.31Z" style="fill:#fff;opacity:.7;transform-origin:245.65px 376.78px" class="animable" id="elxdn180qcl1"/></g><path d="M280 125a1.36 1.36 0 0 0-.79.23 36.64 36.64 0 0 0-3 3.87c-2.16 3.26-6.67 9.69-8.26 16.49a9.53 9.53 0 0 0-.24 2.32c-2.75 48.09-.84 82.94-.09 137.17 0 1.9 1.67 3.84 5.13 4.94a14.23 14.23 0 0 0 8.11.16c3.5-1 5.28-2.83 5.32-4.73 3.06-54.16 6.16-88.91 5.29-137.08a9 9 0 0 0-.14-2.32c-1.32-6.86-5.58-13.46-7.61-16.8a35.84 35.84 0 0 0-2.9-4 1.33 1.33 0 0 0-.82-.25Z" style="fill:#455a64;transform-origin:278.946px 207.846px" id="elsr1h3v7ikid" class="animable"/><path d="M291.43 148.75a8.54 8.54 0 0 1-2.94 2.39c-5.1 2.65-13.16 2.31-18-.77a8.45 8.45 0 0 1-2.81-2.77v.28l-.24 4.38a8.26 8.26 0 0 0 2.86 2.85c4.85 3.08 12.91 3.43 18 .77a8 8 0 0 0 3.21-2.8c-.03-1.43-.05-2.88-.08-4.33Z" style="fill:#c8b068;transform-origin:279.475px 152.634px" id="el4n77b88wxqn" class="animable"/><path d="M279.21 125.2a36.64 36.64 0 0 0-3 3.87c-2.16 3.26-6.67 9.69-8.26 16.49a9.53 9.53 0 0 0-.24 2.32c-2.75 48.09-.84 82.94-.09 137.17 0 1.7 1.33 3.42 4.09 4.56.19-27.74.61-95.82.54-116.49-.13-26.12 5.85-44.29 7.75-48.12a1.38 1.38 0 0 0-.79.2Z" style="fill:#37474f;transform-origin:273.137px 207.304px" id="elwtdxo4puzpi" class="animable"/><path d="M233.23 297c-4.58 14.83-9.24 29.64-14.2 44.35-.88 2.57.24 5.89 2.69 8a42.59 42.59 0 0 0 28.33 10.05 43.83 43.83 0 0 0 28.33-10.4c2.44-2.12 3.56-5.38 2.69-7.89-5.05-14.48-9.69-29.09-14.2-43.74Z" style="fill:#37474f;transform-origin:250.047px 328.204px" id="elnff5c6vhgtf" class="animable"/><path d="M250.05 347.84c-10.31.34-21.92-3.57-29.65-10.54l-1.4 4.07c-.88 2.57.24 5.89 2.69 8a42.85 42.85 0 0 0 28.33 10.05A44.07 44.07 0 0 0 278.38 349c2.44-2.12 3.56-5.38 2.69-7.89-.55-1.58-.82-2.38-1.37-4-8.14 7.18-18.98 10.38-29.65 10.73Z" style="fill:#455a64;transform-origin:250.032px 348.268px" id="elkknt0o8s4zq" class="animable"/><path d="M278.38 349A44 44 0 0 1 250 359.42h-2.09c-.68 0-1.36-.06-2-.11l-1-.1-1.53-.17c-.33 0-.66-.09-1-.15l-1-.17-1.61-.31-.29-.07a43.928 43.928 0 0 1-3.96-1.11l-1.2-.43c-.53-.18-1-.39-1.54-.6-1-.4-1.92-.83-2.79-1.26l-.66-.34c-.27-.13-.53-.28-.76-.41s-.73-.41-1.07-.61l-1.11-.68-1.05-.68c-.33-.22-.64-.45-1-.67.73-3.93 1.1-5.91 1.83-9.91a42.12 42.12 0 0 0 7.03 3.36c-.26 1.93-.59 3.45-.52 3.73 2.72 9.96 26.54 11.73 45.7.27Z" style="fill:#263238;transform-origin:251.36px 350.53px" id="elvbkil0yt92q" class="animable"/><path d="M277.37 155.67a24.42 24.42 0 0 0-.49-6c-3.75-17.59-14.68-33.26-20.42-41.51a25.22 25.22 0 0 0-4.38-4.89 3.6 3.6 0 0 0-4.07 0 21.67 21.67 0 0 0-4.37 4.89c-5.38 8.49-16.68 23.92-20.43 41.51a24.42 24.42 0 0 0-.49 6l3.41 156.17c0 4.89 4.49 9.79 13.46 12.46a36.87 36.87 0 0 0 20.92 0c9-2.67 13.45-7.57 13.45-12.46Z" style="fill:#c8b068;transform-origin:250.045px 214.227px" id="elgidqo3tfyqq" class="animable"/><g id="eliv83h7t45g"><path d="M267 167.94c0 14.6-1.1 95.65-1.93 154.63 5.91-2.78 8.87-6.76 8.87-10.73l3.41-156.17a24.42 24.42 0 0 0-.49-6c-3.75-17.59-14.68-33.26-20.42-41.51-.48-.68-1.06-1.43-1.65-2.14 7.62 14.41 12.21 38.51 12.21 61.92Z" style="fill:#fff;opacity:.5;transform-origin:266.081px 214.295px" class="animable" id="elbnhdpnem8tw"/></g><g id="eln2cp7v3iq1"><path d="M260.51 324.3c9-2.67 13.45-7.57 13.45-12.46l2.74-125.44a17.06 17.06 0 0 0-2.61-3.42 3.31 3.31 0 0 0-3.77 0c-.91.63-3.1 4.25-4.15 5.81-5.18 7.63-15.36 22.05-18.83 38.35a22.89 22.89 0 0 0-.46 5.54l3.12 91.23a7.25 7.25 0 0 0 .26 1.9 37 37 0 0 0 10.25-1.51Z" style="opacity:.1;transform-origin:261.781px 254.1px" class="animable" id="else9dykbd7bl"/></g><g id="el3dpud3lyqej"><path d="M252.08 103.3a3.6 3.6 0 0 0-4.07 0 21.67 21.67 0 0 0-4.37 4.89c-5.38 8.49-16.68 23.92-20.43 41.51a24.42 24.42 0 0 0-.49 6l3.41 156.17c0 4.31 3.49 8.62 10.44 11.41v-91c0-51.8 1.47-86.82 3.75-99.69s9.2-30.66 11.76-29.29Z" style="opacity:.2;transform-origin:237.389px 212.975px" class="animable" id="el1dekj4b7fmv"/></g><path d="M229 160c11.52 6.65 30.21 6.65 41.73 0a19.67 19.67 0 0 0 6.65-5.9 23.27 23.27 0 0 0-.5-4.4c-.16-.77-.34-1.52-.53-2.28a21.25 21.25 0 0 1-5.62 4.53c-11.52 6.65-30.21 6.65-41.73 0a21.82 21.82 0 0 1-5.34-4.21c-.16.65-.31 1.3-.45 2a24.67 24.67 0 0 0-.5 4.92A20.17 20.17 0 0 0 229 160Z" style="fill:#455a64;transform-origin:250.045px 156.204px" id="elpbnq7ctjwni" class="animable"/><path d="M222.89 151.7c0 .21 0 .41-.07.62s0 .6-.06.91V154.62A20.17 20.17 0 0 0 229 160a35 35 0 0 0 8.77 3.48q.18-4.2.39-7.95A35.53 35.53 0 0 1 229 152a21.82 21.82 0 0 1-5.34-4.21c-.16.65-.31 1.3-.45 2-.09.44-.17.88-.23 1.33-.04.13-.06.36-.09.58Z" style="fill:#37474f;transform-origin:230.46px 155.635px" id="elw91msg4t76" class="animable"/><path d="M297 346.06h-8.72c-1.24 7.53 2.76 13.31 4.36 13.31s5.56-5.78 4.36-13.31Z" style="fill:#c8b068;transform-origin:292.634px 352.715px" id="el398g7xl57bj" class="animable"/><g id="elr4ds1njtul"><path d="M297 346.06h-8.72c-1.24 7.53 2.76 13.31 4.36 13.31s5.56-5.78 4.36-13.31Z" style="fill:#fff;opacity:.7;transform-origin:292.634px 352.715px" class="animable" id="eldpmfvazmhte"/></g><path d="M292.6 346.06h1.49a6.62 6.62 0 0 1 .81 4c-.18 2-1.4 4.67-2.3 4.67s-2.12-2.64-2.3-4.67a6.62 6.62 0 0 1 .81-4h1.49" style="fill:#fff;transform-origin:292.6px 350.395px" id="elry7jf25rc1" class="animable"/><path d="m296.93 332.52-9 3.18-.71 3a3.64 3.64 0 0 0 1.63 3.19 5.88 5.88 0 0 0 1.37.75 7.36 7.36 0 0 0 5.21 0 6 6 0 0 0 1.34-.74 3.62 3.62 0 0 0 1.63-3.19Z" style="fill:#c8b068;transform-origin:292.81px 337.818px" id="elxpdy0wubafk" class="animable"/><g id="eluub0yeb9af"><path d="m296.93 332.52-9 3.18-.71 3a3.64 3.64 0 0 0 1.63 3.19 5.88 5.88 0 0 0 1.37.75 7.36 7.36 0 0 0 5.21 0 6 6 0 0 0 1.34-.74 3.62 3.62 0 0 0 1.63-3.19Z" style="opacity:.25;transform-origin:292.81px 337.818px" class="animable" id="elka0goabfm78"/></g><path d="m298.59 339.61.3 1.27a4 4 0 0 1-1.79 3.32 6 6 0 0 1-1.47.81 8 8 0 0 1-5.65 0 6.22 6.22 0 0 1-1.5-.82 4 4 0 0 1-1.78-3.33l-.82 3.52a4 4 0 0 0 2 3.27 7.16 7.16 0 0 0 1.76.85 10.09 10.09 0 0 0 6.29 0 7.73 7.73 0 0 0 1.73-.85 4 4 0 0 0 2-3.27Z" style="fill:#c8b068;transform-origin:292.77px 344.306px" id="elfi584l9uy54" class="animable"/><g id="elmgfny1wd7rj"><path d="m298.59 339.61.3 1.27a4 4 0 0 1-1.79 3.32 6 6 0 0 1-1.47.81 8 8 0 0 1-5.65 0 6.22 6.22 0 0 1-1.5-.82 4 4 0 0 1-1.78-3.33l-.82 3.52a4 4 0 0 0 2 3.27 7.16 7.16 0 0 0 1.76.85 10.09 10.09 0 0 0 6.29 0 7.73 7.73 0 0 0 1.73-.85 4 4 0 0 0 2-3.27Z" style="opacity:.25;transform-origin:292.77px 344.306px" class="animable" id="elw71lmhqy0f"/></g><path d="m298.59 339.59-.07-.3-.14-.59a3.62 3.62 0 0 1-1.63 3.19 6 6 0 0 1-1.34.74 7.36 7.36 0 0 1-5.21 0 5.88 5.88 0 0 1-1.37-.75 3.64 3.64 0 0 1-1.63-3.19l-.5 2.17a4 4 0 0 0 1.78 3.33 6.22 6.22 0 0 0 1.5.82 8 8 0 0 0 5.65 0 6 6 0 0 0 1.47-.81 4 4 0 0 0 1.79-3.32Z" style="fill:#455a64;transform-origin:292.795px 342.108px" id="elc6ns4sv50f9" class="animable"/><g id="eljvl91vgnkle"><path d="m297.69 335.75-.76-3.23-9 3.18-.71 3-.2.89-.3 1.28-.58 2.45c5.12-1.46 9.25-4.18 11.55-7.57Z" style="opacity:.15;transform-origin:291.915px 337.92px" class="animable" id="el1znq1ieygpf"/></g><path d="M266.15 346.06h-8.72c-1.24 7.53 2.76 13.31 4.36 13.31s5.61-5.78 4.36-13.31Z" style="fill:#c8b068;transform-origin:261.791px 352.715px" id="elu42nfjxk59n" class="animable"/><g id="elfe4i0t5xtn9"><path d="M266.15 346.06h-8.72c-1.24 7.53 2.76 13.31 4.36 13.31s5.61-5.78 4.36-13.31Z" style="fill:#fff;opacity:.7;transform-origin:261.791px 352.715px" class="animable" id="el7gy4pce1g2f"/></g><path d="M261.79 346.06h1.5a6.62 6.62 0 0 1 .81 4c-.18 2-1.41 4.67-2.31 4.67s-2.12-2.64-2.3-4.67a6.62 6.62 0 0 1 .81-4h1.49" style="fill:#fff;transform-origin:261.795px 350.395px" id="el0u2twyt3w3dj" class="animable"/><path d="M266.12 332.52h-8.25l-1.47 6.18a3.61 3.61 0 0 0 1.62 3.19 5.88 5.88 0 0 0 1.37.75 7.36 7.36 0 0 0 5.21 0 5.81 5.81 0 0 0 1.34-.74 3.62 3.62 0 0 0 1.63-3.19Z" style="fill:#c8b068;transform-origin:261.985px 337.818px" id="elaalwr724udw" class="animable"/><g id="eljfd9fwup86c"><path d="M266.12 332.52h-8.25l-1.47 6.18a3.61 3.61 0 0 0 1.62 3.19 5.88 5.88 0 0 0 1.37.75 7.36 7.36 0 0 0 5.21 0 5.81 5.81 0 0 0 1.34-.74 3.62 3.62 0 0 0 1.63-3.19Z" style="opacity:.25;transform-origin:261.985px 337.818px" class="animable" id="elaaqkt324tx"/></g><path d="m267.71 339.29.07.3.3 1.29a4 4 0 0 1-1.79 3.32 6 6 0 0 1-1.47.81 8 8 0 0 1-5.65 0 6.42 6.42 0 0 1-1.5-.82 4 4 0 0 1-1.78-3.33l-.82 3.52a4 4 0 0 0 2 3.27 7.16 7.16 0 0 0 1.76.85 10.09 10.09 0 0 0 6.29 0 7.53 7.53 0 0 0 1.73-.85 4 4 0 0 0 2-3.27Z" style="fill:#c8b068;transform-origin:261.96px 344.146px" id="elyecmrxt2sqr" class="animable"/><g id="eltvqxs9obfl"><path d="m267.71 339.29.07.3.3 1.29a4 4 0 0 1-1.79 3.32 6 6 0 0 1-1.47.81 8 8 0 0 1-5.65 0 6.42 6.42 0 0 1-1.5-.82 4 4 0 0 1-1.78-3.33l-.82 3.52a4 4 0 0 0 2 3.27 7.16 7.16 0 0 0 1.76.85 10.09 10.09 0 0 0 6.29 0 7.53 7.53 0 0 0 1.73-.85 4 4 0 0 0 2-3.27Z" style="opacity:.25;transform-origin:261.96px 344.146px" class="animable" id="el1eadllj9vme"/></g><path d="m267.78 339.59-.07-.3-.14-.59a3.62 3.62 0 0 1-1.63 3.19 5.81 5.81 0 0 1-1.34.74 7.36 7.36 0 0 1-5.21 0 5.88 5.88 0 0 1-1.37-.75 3.61 3.61 0 0 1-1.62-3.19l-.51 2.17a4 4 0 0 0 1.78 3.33 6.42 6.42 0 0 0 1.5.82 8 8 0 0 0 5.65 0 6 6 0 0 0 1.47-.81 4 4 0 0 0 1.79-3.32Z" style="fill:#455a64;transform-origin:261.985px 342.108px" id="elznyl6armhsd" class="animable"/><g id="elm8d095xq6s"><path d="m257.87 332.52-.76 3.2c2.28 3.4 6.41 6.12 11.54 7.59l-.94-4-.14-.59-1.45-6.18Z" style="opacity:.15;transform-origin:262.88px 337.915px" class="animable" id="elv6evl3u6ua"/></g><path d="m285.88 351.55-8.49-2.2-8.49 2.2a34.3 34.3 0 0 0 .09 11.67c1.11 7.13 6.08 14.26 8.4 14.26s7.28-7.13 8.39-14.26a34.5 34.5 0 0 0 .1-11.67Z" style="fill:#c8b068;transform-origin:277.386px 363.415px" id="eldmo2mkmwc6q" class="animable"/><g id="elsldv4fvrx9q"><path d="m285.88 351.55-8.49-2.2-8.49 2.2a34.3 34.3 0 0 0 .09 11.67c1.11 7.13 6.08 14.26 8.4 14.26s7.28-7.13 8.39-14.26a34.5 34.5 0 0 0 .1-11.67Z" style="fill:#fff;opacity:.7;transform-origin:277.386px 363.415px" class="animable" id="elcvhxf52dbcd"/></g><path d="M282.94 352.58h-11.62c-1.66 10 3.67 17.73 5.81 17.73s7.47-7.7 5.81-17.73Z" style="fill:#c8b068;transform-origin:277.13px 361.445px" id="el7os1wcugqym" class="animable"/><path d="M277.13 352.58h2a8.74 8.74 0 0 1 1.08 5.36c-.24 2.7-1.87 6.22-3.07 6.22s-2.83-3.52-3.07-6.22a8.82 8.82 0 0 1 1.08-5.36h2" style="fill:#fff;transform-origin:277.141px 358.37px" id="el2no7u1a9ed" class="animable"/><path d="m284.84 342.05-.94-4h-13l-.93 4a4.83 4.83 0 0 0 2.17 4.25 7.54 7.54 0 0 0 1.83 1 9.76 9.76 0 0 0 6.94 0 7.34 7.34 0 0 0 1.78-1 4.82 4.82 0 0 0 2.15-4.25Z" style="fill:#c8b068;transform-origin:277.405px 342.994px" id="eltee0gw7nmco" class="animable"/><path d="m285 342.84.09.39.4 1.72a5.32 5.32 0 0 1-2.37 4.44 8.34 8.34 0 0 1-2 1.07 10.67 10.67 0 0 1-7.53 0 8.4 8.4 0 0 1-2-1.09 5.34 5.34 0 0 1-2.38-4.45l-1.09 4.69a5.35 5.35 0 0 0 2.7 4.36 9.31 9.31 0 0 0 2.35 1.14 13.34 13.34 0 0 0 8.38 0 10.11 10.11 0 0 0 2.31-1.13 5.35 5.35 0 0 0 2.7-4.36Z" style="fill:#c8b068;transform-origin:277.34px 349.313px" id="eli4nov07kd2" class="animable"/><path d="m285.11 343.23-.09-.39-.18-.79a4.82 4.82 0 0 1-2.18 4.25 7.34 7.34 0 0 1-1.78 1 9.76 9.76 0 0 1-6.94 0 7.54 7.54 0 0 1-1.83-1 4.83 4.83 0 0 1-2.17-4.25l-.68 2.89a5.34 5.34 0 0 0 2.38 4.45 8.4 8.4 0 0 0 2 1.09 10.67 10.67 0 0 0 7.53 0 8.34 8.34 0 0 0 2-1.07 5.32 5.32 0 0 0 2.37-4.44Z" style="fill:#455a64;transform-origin:277.4px 346.608px" id="elatpfv8x2rjn" class="animable"/><g id="elxnonx067hvk"><path d="M277.37 344.51a32.67 32.67 0 0 0 7.82-.93l-.08-.35-.09-.39-.18-.79-.94-4h-13l-.93 4-.36 1.54a33 33 0 0 0 7.76.92Z" style="opacity:.15;transform-origin:277.4px 341.28px" class="animable" id="elth0y78d7c8"/></g><path d="m287.75 315.57 36.51-13.44a36.84 36.84 0 0 0-.16-4.69c0-.48-.1-.94-.16-1.4s-.14-.89-.23-1.31-.2-.88-.32-1.29c-.06-.22-.13-.42-.2-.63s-.09-.32-.15-.47a10.62 10.62 0 0 0-4.79-6l-4.68-2.69-.5-.3a13.37 13.37 0 0 0-4.78-1.51 43.59 43.59 0 0 1-10.43-2.51 13.19 13.19 0 0 1-2.64-2.94c-3.56-5.44-4.46-17.13-4.23-22.94l-1 19.82c-3.5-5.5-4.38-17-4.16-22.82l-3.22 62.13 5.44-2v.16Z" style="fill:#c8b068;transform-origin:303.443px 283.01px" id="elnyw6xd81wnf" class="animable"/><path d="m324.26 302.13-36.51 13.44.26-4.83v-.16l1.99-37.31 1-19.82c-.23 5.81.67 17.5 4.23 22.94a13.19 13.19 0 0 0 2.64 2.94c3.6 3 9 4.6 15.61 5.5a14.92 14.92 0 0 1 2 .39 12.42 12.42 0 0 1 2.79 1.12 10.62 10.62 0 0 1 4.79 6c.06.15.1.31.15.47s.14.41.2.63c.12.41.22.84.32 1.29s.16.86.23 1.31.12.92.16 1.4a36.84 36.84 0 0 1 .14 4.69Z" style="fill:#c8b068;transform-origin:306.016px 284.51px" id="elp1t6lfek1ob" class="animable"/><g id="ellqpqf2lszd8"><path d="M318.24 286.34a12.42 12.42 0 0 0-2.79-1.12 14.92 14.92 0 0 0-2-.39c-6.65-.9-12-2.48-15.61-5.5a43.59 43.59 0 0 0 10.43 2.51 13.37 13.37 0 0 1 4.78 1.51l.5.3Z" style="opacity:.35;transform-origin:308.04px 282.835px" class="animable" id="ela0cqhzksu3d"/></g><path d="m288.3 305.14 34.75-12.8a21.92 21.92 0 0 1 1.06 5.11L288 310.74Z" style="fill:#455a64;transform-origin:306.055px 301.54px" id="elstlwha39vb" class="animable"/><path d="M302.71 236.31a22.88 22.88 0 0 0-.45-5.54c-3.48-16.3-13.22-29.68-18.84-38.35-1-1.58-3.23-5.18-4.15-5.81a3.28 3.28 0 0 0-1.88-.59 3.33 3.33 0 0 0-1.89.59c-.91.63-3.09 4.25-4.15 5.81-5.18 7.63-15.36 22.05-18.83 38.35a22.89 22.89 0 0 0-.46 5.54l3.17 91.23c0 4.54 4.15 9.08 12.46 11.55a34.21 34.21 0 0 0 19.39 0c8.31-2.47 12.47-7 12.47-11.55Z" style="fill:#c8b068;transform-origin:277.386px 263.256px" id="elw3iezegv8n" class="animable"/><g id="el44nkj8zkyu6"><path d="M302.71 236.31a22.88 22.88 0 0 0-.45-5.54c-3.48-16.3-13.22-29.68-18.84-38.35-1-1.58-3.23-5.18-4.15-5.81a3.28 3.28 0 0 0-1.88-.59 3.33 3.33 0 0 0-1.89.59c-.91.63-3.09 4.25-4.15 5.81-5.18 7.63-15.36 22.05-18.83 38.35a22.89 22.89 0 0 0-.46 5.54l3.17 91.23c0 4.54 4.15 9.08 12.46 11.55a34.21 34.21 0 0 0 19.39 0c8.31-2.47 12.47-7 12.47-11.55Z" style="fill:#fff;opacity:.5;transform-origin:277.386px 263.256px" class="animable" id="ellsewlyf469"/></g><g id="eljjh9l411atp"><path d="m299.55 327.54 3.16-91.23a23.39 23.39 0 0 0-.45-5.54c-3.48-16.3-13.22-29.68-18.84-38.35l-.85-1.33c4.61 11.72 11.9 30.5 12.37 56.79.28 15.52-.83 57.13-1.78 88.64 4.25-2.52 6.39-5.73 6.39-8.98Z" style="fill:#fff;opacity:.5;transform-origin:292.648px 263.805px" class="animable" id="eladdti1z6sbh"/></g><path d="M271.35 192.42c-1.9 2.8-4.49 6.54-7.16 10.94 2.63 1.76 6.18 4.46 13.2 4.46a20 20 0 0 0 13.15-4.39c-2.58-4.21-5.11-7.92-7.12-11-1-1.58-3.23-5.18-4.15-5.81a3.28 3.28 0 0 0-1.88-.59 3.33 3.33 0 0 0-1.89.59c-.91.62-3.09 4.24-4.15 5.8Z" style="fill:#37474f;transform-origin:277.365px 196.93px" id="elba5w21my844" class="animable"/><path d="M282.57 191.09c1.55 3.92 3.39 8.66 5.18 14.18 1-.6 1.94-1.24 2.79-1.84-2-3.28-4-6.23-5.7-8.84l-1.42-2.17-.57-.9Z" style="fill:#455a64;transform-origin:286.555px 198.18px" id="el0xkyuzdwgjzi" class="animable"/><path d="m269.59 195-.55.82-.53.8c-.33.48-.66 1-1 1.5l-.49.74-.64 1c-.17.25-.34.51-.5.78l-.66 1c-.34.55-.69 1.1-1 1.67a30.07 30.07 0 0 0 4.78 2.81c3.61-10.18 7.87-20.45 10-19.73a3.61 3.61 0 0 0-.73-.3h-.08a2.88 2.88 0 0 0-.78-.11 3.33 3.33 0 0 0-1.89.59c-.91.63-3.09 4.25-4.15 5.81l-1.21 1.78Z" style="fill:#263238;transform-origin:271.61px 196.05px" id="el44fe0prdtfm" class="animable"/><path d="M298.71 219.27a7.2 7.2 0 0 1-.62 5.41 13 13 0 0 1-5.27 5.1 26.73 26.73 0 0 1-8.48 3c-3.47.63-6.47 3.42-6.62 6.94l-.06 1.45c-.15 3.53 2.6 6.43 6.09 5.91a33 33 0 0 0 11.46-3.79c5-2.89 7.45-6.68 7.37-10.46a8.47 8.47 0 0 0-.45-2.61 73.31 73.31 0 0 0-3.42-10.95Z" style="fill:#37474f;transform-origin:290.118px 233.205px" id="els42pr1qgmne" class="animable"/><path d="M302.58 232.87c-.08-.7-.18-1.4-.32-2.1-.1-.45-.22-.89-.32-1.34-.16-.67-.32-1.34-.5-2l-.21-.73c-.2-.7-.4-1.4-.61-2.09s-.44-1.3-.66-1.94c-.09-.25-.17-.51-.25-.75-.32-.88-.65-1.74-1-2.59a7.19 7.19 0 0 1-.63 5.35 12.59 12.59 0 0 1-4.66 4.72c.65 4.41 1.12 9.1 1.36 14.08l.42-.21c4.97-2.87 7.43-6.64 7.38-10.4Z" style="fill:#455a64;transform-origin:298px 231.405px" id="elqo7hudzrgx" class="animable"/><path d="M305.57 336.6c0-2.08-4.73-25.67-11.6-31.66a2.43 2.43 0 0 0-2.52-.45 6 6 0 0 0-2.21 1.81 31.42 31.42 0 0 0-6.67 19.89v10.92l9.6 3.7a14.67 14.67 0 0 0 11.14-.71 4.07 4.07 0 0 0 2.24-3.5Z" style="fill:#c8b068;transform-origin:294.068px 322.952px" id="elwkm0rh24i6" class="animable"/><path d="M302.44 334.19a3.92 3.92 0 0 0 2.13-3.26c-.23-1.08-.51-2.27-.83-3.53a3.74 3.74 0 0 1-2.06 3.22 13.51 13.51 0 0 1-10.26.65l-8.84-3.4v3.42l9.21 3.54a14.05 14.05 0 0 0 10.65-.64Z" style="fill:#455a64;transform-origin:293.575px 331.493px" id="elup8cndfaoxo" class="animable"/><g id="elkqbd8wldb"><path d="M291.48 304.49a5.93 5.93 0 0 0-2.24 1.81 31.45 31.45 0 0 0-6.67 19.9v10.91l9.6 3.7a12.34 12.34 0 0 0 2.77.66c-1.73-10.54-5.35-34.19-3.46-36.98Z" style="opacity:.25;transform-origin:288.753px 322.98px" class="animable" id="el6xminthfoep"/></g><path d="M294 335.41c-.18-1.16-.37-2.37-.55-3.61a10.12 10.12 0 0 1-2-.51l-8.84-3.4v3.42l9.21 3.54a11.06 11.06 0 0 0 2.18.56Z" style="fill:#37474f;transform-origin:288.305px 331.65px" id="elh90vt53w2vc" class="animable"/><path d="m227.22 335.84-8.49-2.2-8.49 2.2a34.5 34.5 0 0 0 .1 11.67c1.11 7.12 6.07 14.25 8.39 14.25s7.29-7.13 8.4-14.25a34.3 34.3 0 0 0 .09-11.67Z" style="fill:#c8b068;transform-origin:218.734px 347.7px" id="elk7um76ewzi" class="animable"/><g id="el8hgq9hom3a8"><path d="m227.22 335.84-8.49-2.2-8.49 2.2a34.5 34.5 0 0 0 .1 11.67c1.11 7.12 6.07 14.25 8.39 14.25s7.29-7.13 8.4-14.25a34.3 34.3 0 0 0 .09-11.67Z" style="fill:#fff;opacity:.7;transform-origin:218.734px 347.7px" class="animable" id="elsli571oen0r"/></g><path d="M224.29 336.86h-11.62c-1.66 10 3.67 17.74 5.81 17.74s7.52-7.7 5.81-17.74Z" style="fill:#c8b068;transform-origin:218.487px 345.73px" id="elwzajdac02zm" class="animable"/><path d="M218.48 336.86h2a8.85 8.85 0 0 1 1.08 5.36c-.24 2.71-1.87 6.23-3.07 6.23s-2.83-3.52-3.07-6.23a8.77 8.77 0 0 1 1.08-5.36h2" style="fill:#fff;transform-origin:218.489px 342.655px" id="el3wv0v0x94vr" class="animable"/><path d="m226.18 326.34-.93-4h-13l-.94 4a4.85 4.85 0 0 0 2.18 4.25 7.83 7.83 0 0 0 1.82 1 9.84 9.84 0 0 0 6.95 0 7.7 7.7 0 0 0 1.78-1 4.82 4.82 0 0 0 2.14-4.25Z" style="fill:#c8b068;transform-origin:218.746px 327.282px" id="el16xvrguz8un" class="animable"/><path d="m226.37 327.13.09.39.4 1.72a5.32 5.32 0 0 1-2.38 4.43 8.68 8.68 0 0 1-2 1.08 10.67 10.67 0 0 1-7.53 0 8.07 8.07 0 0 1-2-1.09 5.31 5.31 0 0 1-2.38-4.44l-1.1 4.69a5.35 5.35 0 0 0 2.7 4.36 9.84 9.84 0 0 0 2.35 1.14 13.44 13.44 0 0 0 8.39 0 9.84 9.84 0 0 0 2.3-1.13 5.33 5.33 0 0 0 2.7-4.36Z" style="fill:#c8b068;transform-origin:218.69px 333.606px" id="eltm08yoqrkz" class="animable"/><path d="m226.46 327.52-.09-.39-.19-.79a4.82 4.82 0 0 1-2.17 4.25 7.7 7.7 0 0 1-1.78 1 9.84 9.84 0 0 1-6.95 0 7.83 7.83 0 0 1-1.82-1 4.85 4.85 0 0 1-2.18-4.25l-.67 2.89a5.31 5.31 0 0 0 2.38 4.44 8.07 8.07 0 0 0 2 1.09 10.67 10.67 0 0 0 7.53 0 8.68 8.68 0 0 0 2-1.08 5.32 5.32 0 0 0 2.38-4.43Z" style="fill:#455a64;transform-origin:218.755px 330.893px" id="elw3a5k2suowm" class="animable"/><g id="el9b3pbjbf149"><path d="M218.73 330.53c2.76 0 6.72-.88 7.81-2.66l-.08-.35-.09-.39-.19-.79-.93-4h-13l-.94 4-.36 1.54c.73 1.85 5.05 2.65 7.78 2.65Z" style="opacity:.15;transform-origin:218.745px 326.435px" class="animable" id="eln2quebu9oiq"/></g><path d="M215.65 161.7a1.47 1.47 0 0 1 .8.23 37.11 37.11 0 0 1 3.05 3.88c2.15 3.25 6.67 9.68 8.26 16.48a9.05 9.05 0 0 1 .23 2.32c2.76 48.1.85 82.94.1 137.18 0 1.9-1.67 3.83-5.13 4.94a14.37 14.37 0 0 1-4.05.67 14.68 14.68 0 0 1-4.06-.51c-3.51-1-5.29-2.84-5.32-4.74-3.07-54.16-6.16-88.91-5.3-137.07a9.59 9.59 0 0 1 .15-2.33c1.32-6.86 5.58-13.46 7.6-16.8a38.2 38.2 0 0 1 2.9-4 1.49 1.49 0 0 1 .79-.26Z" style="fill:#455a64;transform-origin:216.759px 244.546px" id="el07bpfrzkvcuu" class="animable"/><path d="M223.39 326.57c3.16-1.12 4.73-3 4.7-4.78.75-54.24 2.66-89.08-.1-137.18a9.05 9.05 0 0 0-.23-2.32c-1.59-6.8-6.11-13.23-8.26-16.48a37.11 37.11 0 0 0-3.05-3.88c3.67 8.72 5.59 23.42 6.26 49.81.48 18.57.63 80.03.68 114.83Z" style="fill:#37474f;transform-origin:222.942px 244.25px" id="elflq7xh93qeh" class="animable"/><path d="M225.1 192.2a7.79 7.79 0 0 0 3.14-3c-.07-1.43-.15-2.87-.23-4.33a8.37 8.37 0 0 1-2.91 2.62c-5 2.87-13 2.87-18 0a8.65 8.65 0 0 1-2.85-2.54v.16c0 1.52 0 3-.07 4.51a8.29 8.29 0 0 0 2.92 2.61c4.96 2.85 13.03 2.85 18-.03Z" style="fill:#c8b068;transform-origin:216.21px 189.617px" id="el73qtwi2btrl" class="animable"/><path d="M208.34 199.11a4.37 4.37 0 0 1 2 3.43c0 1.26-.89 1.77-2 1.14a4.39 4.39 0 0 1-2-3.43c.02-1.25.91-1.77 2-1.14Z" style="fill:#c8b068;transform-origin:208.34px 201.396px" id="eljvfa4b2czz" class="animable"/><path d="M208.26 207.23a4.14 4.14 0 0 1 1.88 3.25c0 1.2-.84 1.68-1.88 1.08a4.14 4.14 0 0 1-1.87-3.25c0-1.19.84-1.68 1.87-1.08Z" style="fill:#c8b068;transform-origin:208.265px 209.396px" id="elcsimxibe1og" class="animable"/><path d="M208.36 215.35a4 4 0 0 1 1.78 3.08c0 1.13-.8 1.59-1.78 1a3.9 3.9 0 0 1-1.77-3.07c0-1.11.79-1.57 1.77-1.01Z" style="fill:#c8b068;transform-origin:208.365px 217.399px" id="el2w0msq53kvs" class="animable"/><path d="M208.58 223.48a3.7 3.7 0 0 1 1.68 2.9c0 1.07-.75 1.5-1.68 1a3.7 3.7 0 0 1-1.67-2.89c0-1.11.75-1.49 1.67-1.01Z" style="fill:#c8b068;transform-origin:208.585px 225.432px" id="elq4wxyeo1tes" class="animable"/><path d="M208.89 231.61a3.49 3.49 0 0 1 1.57 2.72c0 1-.71 1.41-1.57.91a3.46 3.46 0 0 1-1.57-2.72c0-1 .68-1.41 1.57-.91Z" style="fill:#c8b068;transform-origin:208.89px 233.425px" id="eljgjlu48trdr" class="animable"/><path d="M209.23 239.74a3.24 3.24 0 0 1 1.47 2.54c0 .94-.66 1.31-1.47.85a3.26 3.26 0 0 1-1.47-2.55c0-.93.66-1.31 1.47-.84Z" style="fill:#c8b068;transform-origin:209.23px 241.433px" id="eliflgxooyppo" class="animable"/><path d="M209.56 247.86a3 3 0 0 1 1.37 2.36c0 .88-.61 1.23-1.37.79a3 3 0 0 1-1.36-2.36c0-.87.61-1.23 1.36-.79Z" style="fill:#c8b068;transform-origin:209.565px 249.436px" id="elfj46ctoq8ld" class="animable"/><path d="m261.81 330.41-36.5 28.71-5.16-3c-.28-10.57 3.15-19.91 10.8-29.77 3.25-4.2 6.24-8.11 8.92-11.81a128.05 128.05 0 0 0 10.58-16.65c4.4-8.68 5.49-20.07 5.42-26.06a4 4 0 0 0 0-.6v-.57l2.74 1.34Z" style="fill:#c8b068;transform-origin:240.972px 314.89px" id="elmp73s2vz4b" class="animable"/><g id="eleor1mdhbpi"><path d="M254.36 299.84c-3.27 8.77-9.7 18.48-18.25 29.51-7.65 9.87-11.08 19.19-10.8 29.77l-5.16-3c-.28-10.57 3.15-19.91 10.8-29.77 3.25-4.2 6.24-8.11 8.92-11.81a128.05 128.05 0 0 0 10.58-16.65c4.4-8.68 5.49-20.07 5.42-26.06a4 4 0 0 0 0-.6v-.57l2.74 1.34c.2 5.56-.69 18.28-4.25 27.84Z" style="opacity:.35;transform-origin:239.385px 314.89px" class="animable" id="ela26a163akdm"/></g><path d="M221.35 345a40.53 40.53 0 0 0-1 6.31l5.15 3v-.16a40.6 40.6 0 0 1 1-6.11Z" style="fill:#37474f;transform-origin:223.425px 349.655px" id="elp2zftbaumrs" class="animable"/><path d="M258.59 272c.22 5.55-.67 18.28-4.23 27.83-3.27 8.78-9.7 18.49-18.25 29.51-7.65 9.86-11.09 19.2-10.8 29.77l36.5-28.71Z" style="fill:#c8b068;transform-origin:243.552px 315.555px" id="el2q59f4p381y" class="animable"/><path d="M261.27 320.62 226.51 348a38.44 38.44 0 0 0-1.06 6.32l36.11-28.4Z" style="fill:#455a64;transform-origin:243.505px 337.47px" id="elgyrfqkxbdn6" class="animable"/><path d="M385.36 430.51a12.93 12.93 0 0 0-25.86 0 2.11 2.11 0 0 0 0 .36 2.23 2.23 0 0 0 0 .36c.14 1.79 1.4 3.55 3.78 4.92 5.05 2.92 13.25 2.92 18.3 0 2.37-1.37 3.63-3.13 3.78-4.92v-.36c0-.12.01-.24 0-.36Z" style="fill:#c8b068;transform-origin:372.428px 427.969px" id="elzi42deqr8n" class="animable"/><g id="el80r7tx9sdfi"><path d="M385.36 430.51a12.93 12.93 0 0 0-25.86 0 2.11 2.11 0 0 0 0 .36 2.23 2.23 0 0 0 0 .36c.14 1.79 1.4 3.55 3.78 4.92 5.05 2.92 13.25 2.92 18.3 0 2.37-1.37 3.63-3.13 3.78-4.92v-.36c0-.12.01-.24 0-.36Z" style="fill:#fff;opacity:.5;transform-origin:372.428px 427.969px" class="animable" id="el7alfeloyvs4"/></g><g id="el8tk6zfywedf"><path d="M378 419.22a12.92 12.92 0 0 0-18.54 11.29 2.11 2.11 0 0 0 0 .36 2.23 2.23 0 0 0 0 .36c.14 1.79 1.4 3.55 3.78 4.92a17 17 0 0 0 6.49 2c-3.36-.57-5.53-4.32-4.49-8.46 1.23-4.78 6.08-11.69 12.76-10.47Z" style="fill:#fff;opacity:.5;mix-blend-mode:lighten;transform-origin:368.726px 428.041px" class="animable" id="el3p5fil9ngfy"/></g><g id="eljscrdl1neu"><path d="M385.36 431.23v-.72a12.89 12.89 0 0 0-4.39-9.35c1.4 1.44 4.53 6.89 1.13 11-2.23 2.73-12.84 6.63-21.56 1.62a9 9 0 0 0 2.74 2.33c5.05 2.92 13.25 2.92 18.3 0 2.42-1.33 3.63-3.11 3.78-4.88Z" style="fill:#c8b068;opacity:.2;transform-origin:372.95px 429.73px" class="animable" id="els5v1rnc4q49"/></g><g id="el8ge1na9n413"><path d="M372.29 420.84c.58 1.32-.53 3.08-2.48 3.94s-4 .48-4.58-.84.53-3.08 2.48-3.93 4.01-.49 4.58.83Z" style="fill:#fff;opacity:.5;mix-blend-mode:lighten;transform-origin:368.76px 422.396px" class="animable" id="el1s25m1bc4tf"/></g><g id="elvzlb6hlfdl"><path d="M364.8 426.21a1.53 1.53 0 0 1-1 1.91 1.39 1.39 0 1 1 1-1.91Z" style="fill:#fff;opacity:.5;mix-blend-mode:lighten;transform-origin:363.5px 426.758px" class="animable" id="elay5ngh4vju4"/></g><path d="M365.57 440.23a17.81 17.81 0 0 0-35.61 0v.99c.2 2.46 1.94 4.88 5.21 6.78 6.95 4 18.24 4 25.21 0 3.25-1.9 5-4.32 5.19-6.78a4.18 4.18 0 0 0 0-.5 4 4 0 0 0 0-.49Z" style="fill:#c8b068;transform-origin:347.769px 436.921px" id="elajs2nfijjq" class="animable"/><g id="eld92yr9do62d"><path d="M365.57 440.23a17.81 17.81 0 0 0-35.61 0v.99c.2 2.46 1.94 4.88 5.21 6.78 6.95 4 18.24 4 25.21 0 3.25-1.9 5-4.32 5.19-6.78a4.18 4.18 0 0 0 0-.5 4 4 0 0 0 0-.49Z" style="fill:#fff;opacity:.6;transform-origin:347.769px 436.921px" class="animable" id="elbt7oylzglzr"/></g><g id="eln4a4i9zzwrg"><path d="M355.49 424.68A17.78 17.78 0 0 0 330 440.23v.99c.2 2.46 1.94 4.88 5.21 6.78a23.74 23.74 0 0 0 8.94 2.78c-4.62-.79-7.61-5.95-6.19-11.65 1.61-6.61 8.29-16.13 17.53-14.45Z" style="fill:#fff;opacity:.5;mix-blend-mode:lighten;transform-origin:342.745px 436.849px" class="animable" id="el2bfsdiyl5ld"/></g><g id="elmla7o5kara"><path d="M365.57 441.22a4.18 4.18 0 0 0 0-.5 4 4 0 0 0 0-.49 17.71 17.71 0 0 0-6.05-12.88c1.94 2 6.24 9.49 1.57 15.21-3.08 3.76-17.68 9.12-29.7 2.23a12.53 12.53 0 0 0 3.78 3.21c6.95 4 18.24 4 25.21 0 3.25-1.9 4.99-4.32 5.19-6.78Z" style="fill:#c8b068;opacity:.1;transform-origin:348.484px 439.175px" class="animable" id="elcmg3aqyka7"/></g><g id="elxo2boyjuu0i"><path d="M347.58 426.92c.8 1.81-.73 4.24-3.42 5.42s-5.51.67-6.31-1.15.74-4.24 3.43-5.42 5.51-.67 6.3 1.15Z" style="fill:#fff;opacity:.3;mix-blend-mode:lighten;transform-origin:342.715px 429.055px" class="animable" id="el2fx2s6lj0v2"/></g><g id="elmub0dg01bzm"><path d="M337.27 434.31a2.34 2.34 0 1 1-2.85-.79 2.12 2.12 0 0 1 2.85.79Z" style="fill:#fff;opacity:.3;mix-blend-mode:lighten;transform-origin:335.361px 435.631px" class="animable" id="elpaymkpi977h"/></g><path d="M333.82 446.56a22.11 22.11 0 0 0-44.2 0v1.23c.25 3.06 2.41 6.06 6.47 8.41 8.62 5 22.64 5 31.28 0 4-2.35 6.2-5.35 6.45-8.41v-.62c0-.21.02-.4 0-.61Z" style="fill:#c8b068;transform-origin:311.724px 442.532px" id="el87ix2kfjwlj" class="animable"/><g id="elqme8ccc9ofd"><path d="M333.82 446.56a22.11 22.11 0 0 0-44.2 0v1.23c.25 3.06 2.41 6.06 6.47 8.41 8.62 5 22.64 5 31.28 0 4-2.35 6.2-5.35 6.45-8.41v-.62c0-.21.02-.4 0-.61Z" style="fill:#fff;opacity:.8;transform-origin:311.724px 442.532px" class="animable" id="eleapvc18ydck"/></g><g id="elbv4sin1vsl5"><path d="M321.31 427.26a22.09 22.09 0 0 0-31.69 19.3v1.23c.25 3.06 2.41 6.06 6.47 8.41a29.46 29.46 0 0 0 11.09 3.46c-5.73-1-9.44-7.39-7.68-14.46 2.05-8.2 10.34-20.06 21.81-17.94Z" style="fill:#fff;opacity:.3;mix-blend-mode:lighten;transform-origin:305.465px 442.361px" class="animable" id="el1d9ekxm1bqaj"/></g><g id="elysd78rw20f"><path d="M333.82 447.79v-1.23a22 22 0 0 0-7.5-16c2.4 2.47 7.74 11.78 1.93 18.87-3.81 4.67-21.94 11.33-36.85 2.77a15.49 15.49 0 0 0 4.69 4c8.62 5 22.64 5 31.28 0 4.04-2.35 6.2-5.35 6.45-8.41Z" style="fill:#c8b068;opacity:.1;transform-origin:312.61px 445.255px" class="animable" id="elayxtbjhwe2a"/></g><g id="elp2pfq479hu"><path d="M311.5 430c1 2.25-.92 5.27-4.25 6.73s-6.84.83-7.83-1.43.91-5.26 4.25-6.73 6.84-.78 7.83 1.43Z" style="fill:#fff;opacity:.3;mix-blend-mode:lighten;transform-origin:305.461px 432.654px" class="animable" id="ell0zj9utqwag"/></g><g id="elnrmsvz1oaho"><path d="M298.69 439.21a2.9 2.9 0 1 1-3.54-1 2.62 2.62 0 0 1 3.54 1Z" style="fill:#fff;opacity:.3;mix-blend-mode:lighten;transform-origin:296.31px 440.827px" class="animable" id="el792yt9iq7fj"/></g><path d="M396.3 433.54a7.81 7.81 0 0 0-15.62 0 1.55 1.55 0 0 0 0 .22 1.48 1.48 0 0 0 0 .21 4 4 0 0 0 2.28 3A12.24 12.24 0 0 0 394 437a4 4 0 0 0 2.28-3 1.48 1.48 0 0 0 0-.21 1.55 1.55 0 0 0 .02-.25Z" style="fill:#c8b068;transform-origin:388.488px 432.015px" id="el3ajmafwp2he" class="animable"/><g id="el9eo98vd6h4r"><path d="M396.3 433.54a7.81 7.81 0 0 0-15.62 0 1.55 1.55 0 0 0 0 .22 1.48 1.48 0 0 0 0 .21 4 4 0 0 0 2.28 3A12.24 12.24 0 0 0 394 437a4 4 0 0 0 2.28-3 1.48 1.48 0 0 0 0-.21 1.55 1.55 0 0 0 .02-.25Z" style="fill:#fff;opacity:.2;transform-origin:388.488px 432.015px" class="animable" id="ela36415b6gjp"/></g><g id="eltu915x2e6s"><path d="M391.88 426.72a7.8 7.8 0 0 0-11.2 6.82 1.55 1.55 0 0 0 0 .22 1.48 1.48 0 0 0 0 .21 4 4 0 0 0 2.28 3 10.48 10.48 0 0 0 3.92 1.22c-2-.35-3.34-2.61-2.71-5.11.72-2.92 3.65-7.08 7.71-6.36Z" style="fill:#fff;opacity:.5;mix-blend-mode:lighten;transform-origin:386.278px 432.064px" class="animable" id="elsydo7yspueo"/></g><g id="elo0md36hpxj"><path d="M396.3 434a1.48 1.48 0 0 0 0-.21 1.55 1.55 0 0 0 0-.22 7.78 7.78 0 0 0-2.65-5.65c.85.87 2.74 4.16.68 6.67-1.35 1.65-7.75 4-13 1A5.51 5.51 0 0 0 383 437a12.24 12.24 0 0 0 11 0 4 4 0 0 0 2.3-3Z" style="fill:#455a64;opacity:.05;mix-blend-mode:multiply;transform-origin:388.817px 433.113px" class="animable" id="el7mz2hfsvmv8"/></g><g id="elfiqb4iw7nxq"><path d="M388.41 427.7c.35.79-.32 1.86-1.5 2.38s-2.42.29-2.77-.51.32-1.86 1.5-2.38 2.42-.29 2.77.51Z" style="fill:#fff;opacity:.3;mix-blend-mode:lighten;transform-origin:386.275px 428.635px" class="animable" id="elqo818ndaij"/></g><g id="eljp33jq35y7"><path d="M383.88 430.94a1 1 0 1 1-1.25-.35.93.93 0 0 1 1.25.35Z" style="fill:#fff;opacity:.3;mix-blend-mode:lighten;transform-origin:383.05px 431.487px" class="animable" id="elgh8yyuwk2ja"/></g><path d="M114.64 424.13a12.93 12.93 0 0 1 25.86 0 2.23 2.23 0 0 1 0 .36 2.11 2.11 0 0 1 0 .36c-.14 1.79-1.4 3.55-3.78 4.93-5.05 2.91-13.25 2.91-18.3 0-2.37-1.38-3.63-3.14-3.78-4.93v-.36c0-.13-.01-.23 0-.36Z" style="fill:#c8b068;transform-origin:127.572px 421.588px" id="elllnftg5lze" class="animable"/><g id="el73kuvsn6ptt"><path d="M114.64 424.13a12.93 12.93 0 0 1 25.86 0 2.23 2.23 0 0 1 0 .36 2.11 2.11 0 0 1 0 .36c-.14 1.79-1.4 3.55-3.78 4.93-5.05 2.91-13.25 2.91-18.3 0-2.37-1.38-3.63-3.14-3.78-4.93v-.36c0-.13-.01-.23 0-.36Z" style="fill:#fff;opacity:.5;transform-origin:127.572px 421.588px" class="animable" id="elex9lgqg2a8d"/></g><g id="elpfvfkyahl8"><path d="M122 412.84a12.92 12.92 0 0 1 18.54 11.29 2.23 2.23 0 0 1 0 .36 2.11 2.11 0 0 1 0 .36c-.14 1.79-1.4 3.55-3.78 4.93a17.34 17.34 0 0 1-6.49 2c3.36-.58 5.53-4.32 4.5-8.46-1.24-4.78-6.09-11.72-12.77-10.48Z" style="fill:#fff;opacity:.5;mix-blend-mode:lighten;transform-origin:131.274px 421.666px" class="animable" id="elzue3z8vc7a"/></g><g id="elqszas72nxgc"><path d="M114.64 424.85v-.72a12.86 12.86 0 0 1 4.39-9.34c-1.4 1.44-4.53 6.89-1.13 11 2.23 2.73 12.84 6.62 21.56 1.62a9.1 9.1 0 0 1-2.74 2.33c-5.05 2.91-13.25 2.91-18.3 0-2.37-1.34-3.63-3.1-3.78-4.89Z" style="fill:#c8b068;opacity:.2;transform-origin:127.05px 423.356px" class="animable" id="el9c1lz22jgv8"/></g><g id="eljctjnynf0d9"><path d="M127.71 414.47c-.58 1.32.53 3.08 2.48 3.94s4 .48 4.58-.84-.53-3.08-2.48-3.94-4.01-.48-4.58.84Z" style="fill:#fff;opacity:.3;mix-blend-mode:lighten;transform-origin:131.24px 416.02px" class="animable" id="elrekoswo5byb"/></g><g id="eliri6qsttp"><path d="M135.2 419.83a1.7 1.7 0 1 0 2.07-.57 1.54 1.54 0 0 0-2.07.57Z" style="fill:#fff;opacity:.3;mix-blend-mode:lighten;transform-origin:136.585px 420.793px" class="animable" id="eleovfm3hp8rw"/></g><path d="M153.32 422.78a18.76 18.76 0 0 1 37.51 0v1.05c-.21 2.59-2 5.14-5.49 7.13-7.32 4.24-19.21 4.24-26.55 0-3.43-2-5.26-4.54-5.47-7.13a4.7 4.7 0 0 1 0-.53 4.52 4.52 0 0 1 0-.52Z" style="fill:#c8b068;transform-origin:172.071px 419.297px" id="el3jc7jvwo8h5" class="animable"/><g id="el4qelfnhtdlo"><path d="M153.32 422.78a18.76 18.76 0 0 1 37.51 0v1.05c-.21 2.59-2 5.14-5.49 7.13-7.32 4.24-19.21 4.24-26.55 0-3.43-2-5.26-4.54-5.47-7.13a4.7 4.7 0 0 1 0-.53 4.52 4.52 0 0 1 0-.52Z" style="fill:#fff;opacity:.7;transform-origin:172.071px 419.297px" class="animable" id="el7kspcwuofad"/></g><g id="elwh2qg12j6u"><path d="M163.93 406.4a18.75 18.75 0 0 1 26.9 16.38v1.05c-.21 2.59-2 5.14-5.49 7.13a24.81 24.81 0 0 1-9.41 2.94c4.86-.84 8-6.27 6.52-12.27-1.74-6.96-8.78-17.02-18.52-15.23Z" style="fill:#fff;opacity:.3;mix-blend-mode:lighten;transform-origin:177.38px 419.216px" class="animable" id="el386da0ai8f1"/></g><g id="eltlevymift7m"><path d="M153.32 423.83a4.7 4.7 0 0 1 0-.53 4.52 4.52 0 0 1 0-.52 18.65 18.65 0 0 1 6.37-13.56c-2 2.1-6.58 10-1.65 16 3.24 4 18.62 9.61 31.28 2.35a13.06 13.06 0 0 1-4 3.37c-7.32 4.24-19.21 4.24-26.55 0-3.41-1.94-5.24-4.52-5.45-7.11Z" style="fill:#c8b068;opacity:.1;transform-origin:171.316px 421.67px" class="animable" id="el4tpmiqjgy5g"/></g><g id="el6gnqi5zmj47"><path d="M172.26 408.76c-.84 1.91.78 4.47 3.61 5.71s5.8.7 6.64-1.21-.77-4.47-3.6-5.71-5.81-.7-6.65 1.21Z" style="fill:#fff;opacity:.5;mix-blend-mode:lighten;transform-origin:177.385px 411.01px" class="animable" id="el3uevcyb5nen"/></g><g id="eltzhiqznro4p"><path d="M183.13 416.55a2.46 2.46 0 1 0 3-.84 2.22 2.22 0 0 0-3 .84Z" style="fill:#fff;opacity:.5;mix-blend-mode:lighten;transform-origin:185.143px 417.928px" class="animable" id="elpr19zgoy77e"/></g><path d="M136.8 433.79a17.81 17.81 0 0 1 35.61 0 4.18 4.18 0 0 1 0 .5 4 4 0 0 1 0 .49c-.2 2.47-1.94 4.89-5.21 6.78-6.95 4-18.24 4-25.2 0-3.26-1.89-5-4.31-5.2-6.78a4 4 0 0 1 0-.49 4.18 4.18 0 0 1 0-.5Z" style="fill:#c8b068;transform-origin:154.605px 430.481px" id="elgmo709ionb" class="animable"/><g id="elw4webvcdw0l"><path d="M136.8 433.79a17.81 17.81 0 0 1 35.61 0 4.18 4.18 0 0 1 0 .5 4 4 0 0 1 0 .49c-.2 2.47-1.94 4.89-5.21 6.78-6.95 4-18.24 4-25.2 0-3.26-1.89-5-4.31-5.2-6.78a4 4 0 0 1 0-.49 4.18 4.18 0 0 1 0-.5Z" style="fill:#fff;opacity:.6;transform-origin:154.605px 430.481px" class="animable" id="el4vdhnttisrp"/></g><g id="eld2g5fg8ez1i"><path d="M146.88 418.25a17.78 17.78 0 0 1 25.53 15.54 4.18 4.18 0 0 1 0 .5 4 4 0 0 1 0 .49c-.2 2.47-1.94 4.89-5.21 6.78a23.58 23.58 0 0 1-8.94 2.79c4.62-.8 7.61-6 6.19-11.65-1.65-6.61-8.33-16.16-17.57-14.45Z" style="fill:#fff;opacity:.5;mix-blend-mode:lighten;transform-origin:159.649px 430.41px" class="animable" id="elxgu8uck8l2f"/></g><g id="el1yx004fjxqv"><path d="M136.8 434.78a4 4 0 0 1 0-.49 4.18 4.18 0 0 1 0-.5 17.69 17.69 0 0 1 6-12.87c-1.94 2-6.24 9.49-1.57 15.2 3.08 3.76 17.68 9.13 29.7 2.23a12.26 12.26 0 0 1-3.78 3.21c-6.95 4-18.24 4-25.2 0-3.21-1.89-4.95-4.31-5.15-6.78Z" style="fill:#c8b068;opacity:.15;transform-origin:153.861px 432.74px" class="animable" id="eldole6aurk39"/></g><g id="el803kelg3xgp"><path d="M154.79 420.48c-.8 1.82.73 4.25 3.42 5.43s5.51.66 6.31-1.15-.74-4.25-3.43-5.43-5.51-.66-6.3 1.15Z" style="fill:#fff;opacity:.3;mix-blend-mode:lighten;transform-origin:159.655px 422.62px" class="animable" id="el023zsn78ruah"/></g><g id="elnsjjyi1sg1"><path d="M165.1 427.87a2.34 2.34 0 1 0 2.85-.79 2.12 2.12 0 0 0-2.85.79Z" style="fill:#fff;opacity:.3;mix-blend-mode:lighten;transform-origin:167.009px 429.191px" class="animable" id="elv3mo53dv7th"/></g><path d="M169.81 443.89a22.1 22.1 0 0 1 44.19 0v1.23c-.25 3.06-2.4 6.06-6.47 8.41-8.62 5-22.63 5-31.28 0-4-2.35-6.19-5.35-6.44-8.41v-.61c0-.21-.02-.41 0-.62Z" style="fill:#c8b068;transform-origin:191.901px 439.77px" id="elj7if0sbshgk" class="animable"/><g id="elfr245dzzr2b"><path d="M169.81 443.89a22.1 22.1 0 0 1 44.19 0v1.23c-.25 3.06-2.4 6.06-6.47 8.41-8.62 5-22.63 5-31.28 0-4-2.35-6.19-5.35-6.44-8.41v-.61c0-.21-.02-.41 0-.62Z" style="fill:#fff;opacity:.8;transform-origin:191.901px 439.77px" class="animable" id="elugo48kowpxe"/></g><g id="el5ijnzu4mva"><path d="M182.31 424.6A22.07 22.07 0 0 1 214 443.89v1.23c-.25 3.06-2.4 6.06-6.47 8.41a29.4 29.4 0 0 1-11.09 3.47c5.74-1 9.45-7.39 7.68-14.46-2.04-8.21-10.33-20.06-21.81-17.94Z" style="fill:#fff;opacity:.3;mix-blend-mode:lighten;transform-origin:198.155px 439.695px" class="animable" id="elignhg2nqv0e"/></g><g id="el1s2mj1akbqe"><path d="M169.81 445.12v-1.23a22 22 0 0 1 7.5-16c-2.4 2.47-7.74 11.77-1.94 18.86 3.82 4.67 21.94 11.33 36.85 2.77a15.23 15.23 0 0 1-4.69 4c-8.62 5-22.63 5-31.28 0-4.04-2.34-6.19-5.34-6.44-8.4Z" style="fill:#c8b068;opacity:.1;transform-origin:191.015px 442.58px" class="animable" id="elb78h1b8f2dk"/></g><g id="el19gmhaocahn"><path d="M192.13 427.37c-1 2.26.91 5.27 4.24 6.73s6.84.83 7.83-1.42-.91-5.27-4.24-6.74-6.84-.82-7.83 1.43Z" style="fill:#fff;opacity:.3;mix-blend-mode:lighten;transform-origin:198.163px 430.019px" class="animable" id="el00ivbqwwwm589"/></g><g id="elwkb9kx25ym"><path d="M204.93 436.54a2.9 2.9 0 1 0 3.54-1 2.63 2.63 0 0 0-3.54 1Z" style="fill:#fff;opacity:.3;mix-blend-mode:lighten;transform-origin:207.31px 438.158px" class="animable" id="elli3aoh3jukp"/></g><path d="M293.63 447.86a20.18 20.18 0 0 0-40.35 0 7.85 7.85 0 0 0 0 1.12c.23 2.8 2.2 5.54 5.91 7.68 7.87 4.55 20.66 4.55 28.55 0 3.69-2.14 5.66-4.88 5.89-7.68a7.85 7.85 0 0 0 0-1.12Z" style="fill:#c8b068;transform-origin:273.455px 444.101px" id="elxuljhg7p33" class="animable"/><g id="el0hofno0ur4d"><path d="M293.63 447.86a20.18 20.18 0 0 0-40.35 0 7.85 7.85 0 0 0 0 1.12c.23 2.8 2.2 5.54 5.91 7.68 7.87 4.55 20.66 4.55 28.55 0 3.69-2.14 5.66-4.88 5.89-7.68a7.85 7.85 0 0 0 0-1.12Z" style="fill:#fff;opacity:.9;transform-origin:273.455px 444.101px" class="animable" id="eluw86mkd1rt"/></g><g id="elyacbh153pv"><path d="M282.21 430.24a20.16 20.16 0 0 0-28.93 17.62 7.85 7.85 0 0 0 0 1.12c.23 2.8 2.2 5.54 5.91 7.68a26.9 26.9 0 0 0 10.12 3.16c-5.23-.9-8.62-6.75-7-13.2 1.85-7.49 9.42-18.31 19.9-16.38Z" style="fill:#fff;opacity:.5;mix-blend-mode:lighten;transform-origin:267.735px 444.025px" class="animable" id="elxcxlkomzldh"/></g><g id="elvimfq2db6r"><path d="M293.63 449a7.85 7.85 0 0 0 0-1.12 20.1 20.1 0 0 0-6.85-14.59c2.19 2.26 7.07 10.75 1.77 17.23-3.49 4.26-20 10.34-33.65 2.53a14.1 14.1 0 0 0 4.29 3.63c7.87 4.55 20.66 4.55 28.55 0 3.69-2.16 5.66-4.9 5.89-7.68Z" style="fill:#c8b068;opacity:.1;transform-origin:274.275px 446.691px" class="animable" id="elo4n7n8kh8r8"/></g><g id="ell1n568cn3x8"><ellipse cx="267.74" cy="435.2" rx="6.02" ry="4.07" style="fill:#fff;opacity:.5;mix-blend-mode:lighten;transform-origin:267.74px 435.2px;transform:rotate(-23.71deg)" class="animable" id="el2qefi3062m4"/></g><g id="el4p8rurlr82h"><path d="M261.56 441.15a2.66 2.66 0 1 1-3.23-.89 2.4 2.4 0 0 1 3.23.89Z" style="fill:#fff;opacity:.5;mix-blend-mode:lighten;transform-origin:259.396px 442.659px" class="animable" id="elma5hcx3oh7m"/></g><path d="M209.36 450.05a19.2 19.2 0 0 1 38.38 0v1.07c-.22 2.66-2.09 5.27-5.62 7.3-7.49 4.33-19.65 4.33-27.16 0-3.51-2-5.38-4.64-5.6-7.3v-.53c0-.18-.01-.36 0-.54Z" style="fill:#c8b068;transform-origin:228.548px 446.568px" id="elm8jmev83kbm" class="animable"/><g id="eltz4oa03vbqb"><path d="M209.36 450.05a19.2 19.2 0 0 1 38.38 0v1.07c-.22 2.66-2.09 5.27-5.62 7.3-7.49 4.33-19.65 4.33-27.16 0-3.51-2-5.38-4.64-5.6-7.3v-.53c0-.18-.01-.36 0-.54Z" style="fill:#fff;opacity:.9;transform-origin:228.548px 446.568px" class="animable" id="elsu5xd4qf6io"/></g><g id="elj4drl6bp4lj"><path d="M220.22 433.3a19.17 19.17 0 0 1 27.52 16.75v1.07c-.22 2.66-2.09 5.27-5.62 7.3a25.5 25.5 0 0 1-9.63 3c5-.86 8.2-6.42 6.67-12.56-1.77-7.11-8.97-17.4-18.94-15.56Z" style="fill:#fff;opacity:.5;mix-blend-mode:lighten;transform-origin:233.98px 446.401px" class="animable" id="elarduh4xw656"/></g><g id="eln5ulnklh03"><path d="M209.36 451.12v-1.07a19.14 19.14 0 0 1 6.52-13.87c-2.09 2.15-6.72 10.23-1.68 16.39 3.31 4.05 19 9.83 32 2.4a13.3 13.3 0 0 1-4.07 3.45c-7.49 4.33-19.65 4.33-27.16 0-3.52-2.03-5.39-4.64-5.61-7.3Z" style="fill:#c8b068;opacity:.1;transform-origin:227.78px 448.924px" class="animable" id="el3tevkxw9h44"/></g><g id="eli7ykyopcacf"><path d="M228.75 435.71c-.86 2 .79 4.57 3.68 5.84s5.94.72 6.8-1.24-.79-4.57-3.69-5.84-5.94-.72-6.79 1.24Z" style="fill:#fff;opacity:.5;mix-blend-mode:lighten;transform-origin:233.99px 438.01px" class="animable" id="eljxvv4gc4f8c"/></g><g id="el8km84uxbye6"><path d="M239.86 443.67a2.53 2.53 0 1 0 3.08-.85 2.29 2.29 0 0 0-3.08.85Z" style="fill:#fff;opacity:.5;mix-blend-mode:lighten;transform-origin:241.922px 445.101px" class="animable" id="elp4ovuaanj0o"/></g><path d="M259.15 456.76a7.82 7.82 0 0 0-15.63 0v.44a4 4 0 0 0 2.29 3 12.24 12.24 0 0 0 11.06 0 4 4 0 0 0 2.28-3 1.7 1.7 0 0 0 0-.22 1.55 1.55 0 0 0 0-.22Z" style="fill:#c8b068;transform-origin:251.337px 455.37px" id="elcxhosvi0gdm" class="animable"/><g id="elpyb52xepyi"><path d="M259.15 456.76a7.82 7.82 0 0 0-15.63 0v.44a4 4 0 0 0 2.29 3 12.24 12.24 0 0 0 11.06 0 4 4 0 0 0 2.28-3 1.7 1.7 0 0 0 0-.22 1.55 1.55 0 0 0 0-.22Z" style="fill:#fff;opacity:.9;transform-origin:251.337px 455.37px" class="animable" id="elkxe8zsgkw9"/></g><g id="elo690xd9jlr"><path d="M254.73 449.94a7.74 7.74 0 0 0-3.39-.78 7.82 7.82 0 0 0-7.82 7.6v.44a4 4 0 0 0 2.29 3 10.48 10.48 0 0 0 3.92 1.22c-2-.35-3.34-2.61-2.71-5.11.72-2.93 3.65-7.12 7.71-6.37Z" style="fill:#fff;opacity:.6;mix-blend-mode:lighten;transform-origin:249.125px 455.29px" class="animable" id="el4i1auvrj486"/></g><g id="el12a4dfdm8ha"><path d="M259.15 457.2a1.7 1.7 0 0 0 0-.22 1.55 1.55 0 0 0 0-.22 7.78 7.78 0 0 0-2.65-5.65c.85.88 2.74 4.17.68 6.67-1.35 1.65-7.75 4-13 1a5.51 5.51 0 0 0 1.66 1.41 12.24 12.24 0 0 0 11.06 0 4 4 0 0 0 2.25-2.99Z" style="fill:#c8b068;opacity:.1;transform-origin:251.667px 456.31px" class="animable" id="elj38eseob9me"/></g><g id="elf4z0k3atvye"><path d="M251.26 450.92c.35.8-.32 1.86-1.5 2.38s-2.42.29-2.77-.5.32-1.87 1.5-2.39 2.42-.29 2.77.51Z" style="fill:#fff;opacity:.5;mix-blend-mode:lighten;transform-origin:249.125px 451.855px" class="animable" id="el8x91wgon4lx"/></g><g id="elikyj7ul5gde"><path d="M246.73 454.16a1 1 0 1 1-1.25-.34.93.93 0 0 1 1.25.34Z" style="fill:#fff;opacity:.5;mix-blend-mode:lighten;transform-origin:245.905px 454.715px" class="animable" id="elbeq7r7k1f7i"/></g><path d="M103.7 427.16a7.82 7.82 0 0 1 15.63 0v.44a4 4 0 0 1-2.29 3 12.18 12.18 0 0 1-11.06 0 4 4 0 0 1-2.28-3 1.62 1.62 0 0 1 0-.22 1.7 1.7 0 0 1 0-.22Z" style="fill:#c8b068;transform-origin:111.513px 425.774px" id="eluqbks6xvvv" class="animable"/><g id="el1t7web10gso"><path d="M103.7 427.16a7.82 7.82 0 0 1 15.63 0v.44a4 4 0 0 1-2.29 3 12.18 12.18 0 0 1-11.06 0 4 4 0 0 1-2.28-3 1.62 1.62 0 0 1 0-.22 1.7 1.7 0 0 1 0-.22Z" style="fill:#fff;opacity:.2;transform-origin:111.513px 425.774px" class="animable" id="elorrjai84yz"/></g><g id="elr50or5gk7rr"><path d="M108.12 420.34a7.81 7.81 0 0 1 11.21 6.82v.44a4 4 0 0 1-2.29 3 10.49 10.49 0 0 1-3.92 1.23c2-.35 3.34-2.62 2.71-5.12-.72-2.93-3.65-7.12-7.71-6.37Z" style="fill:#fff;opacity:.5;mix-blend-mode:lighten;transform-origin:113.725px 425.695px" class="animable" id="el1ydm9bo1ca"/></g><g id="elf1p7y6sanj"><path d="M103.7 427.6a1.62 1.62 0 0 1 0-.22 1.7 1.7 0 0 1 0-.22 7.74 7.74 0 0 1 2.65-5.64c-.85.87-2.74 4.16-.68 6.67 1.35 1.65 7.75 4 13 1a5.49 5.49 0 0 1-1.66 1.4 12.18 12.18 0 0 1-11.06 0 4 4 0 0 1-2.25-2.99Z" style="fill:#455a64;opacity:.05;mix-blend-mode:multiply;transform-origin:111.183px 426.719px" class="animable" id="ell0k2wwb0nn"/></g><g id="elih2qe45x42"><path d="M111.59 421.32c-.35.8.32 1.87 1.5 2.38s2.42.3 2.77-.5-.32-1.86-1.5-2.38-2.42-.29-2.77.5Z" style="fill:#fff;opacity:.3;mix-blend-mode:lighten;transform-origin:113.725px 422.259px" class="animable" id="elw4pqata48ve"/></g><g id="el477umqi6a1v"><path d="M116.12 424.57a1 1 0 1 0 1.25-.35.92.92 0 0 0-1.25.35Z" style="fill:#fff;opacity:.3;mix-blend-mode:lighten;transform-origin:116.95px 425.115px" class="animable" id="elbz1hoz3mw1i"/></g></g><g id="freepik--Stars--inject-1--inject-39" class="animable" style="transform-origin:254.565px 205.874px"><g id="freepik--stars--inject-1--inject-39" class="animable" style="transform-origin:254.565px 205.874px"><path d="M181.69 248.3a1.56 1.56 0 1 1-1.56-1.56 1.55 1.55 0 0 1 1.56 1.56Z" style="fill:#fff;transform-origin:180.13px 248.3px" id="el6xaq55kxrpr" class="animable"/><circle cx="78.44" cy="223.71" r="1.56" style="fill:#fff;transform-origin:78.44px 223.71px" id="elhkw9sbj6yxb" class="animable"/><path d="M208.47 105.15a1.56 1.56 0 1 1-1.56-1.56 1.56 1.56 0 0 1 1.56 1.56Z" style="fill:#fff;transform-origin:206.91px 105.15px" id="ele7mn3eq6fjq" class="animable"/><path d="M62.19 151.07a1.56 1.56 0 1 1-1.55-1.55 1.55 1.55 0 0 1 1.55 1.55Z" style="fill:#fff;transform-origin:60.63px 151.08px" id="eluct2r0g2k9k" class="animable"/><path d="M327.23 259.06a1.68 1.68 0 1 1-1.68-1.68 1.68 1.68 0 0 1 1.68 1.68Z" style="fill:#fff;transform-origin:325.55px 259.06px" id="eli4gbjr8pq4k" class="animable"/><path d="M331.92 262a.84.84 0 1 1-.84-.84.84.84 0 0 1 .84.84Z" style="fill:#fff;transform-origin:331.08px 262px" id="el6splzd77jlx" class="animable"/><path d="M378 311.48a.84.84 0 1 1-.84-.84.85.85 0 0 1 .84.84Z" style="fill:#fff;transform-origin:377.16px 311.48px" id="elyr0wijaepj" class="animable"/><path d="M375.27 318.33a1.68 1.68 0 1 1-1.68-1.67 1.68 1.68 0 0 1 1.68 1.67Z" style="fill:#fff;transform-origin:373.59px 318.34px" id="el0ek2u0q6uijo" class="animable"/><path d="M443.58 187.75a.84.84 0 0 1-.62 1.56.84.84 0 0 1 .62-1.56Z" style="fill:#fff;transform-origin:443.27px 188.53px" id="el5vvmhb223fx" class="animable"/><path d="M449 192.83a1.68 1.68 0 1 1-2.18.94 1.67 1.67 0 0 1 2.18-.94Z" style="fill:#fff;transform-origin:448.381px 194.39px" id="elj4a17m5skaf" class="animable"/><path d="M325.35 131.82a.84.84 0 1 1-.62 1.56.84.84 0 0 1 .62-1.56Z" style="fill:#fff;transform-origin:325.071px 132.612px" id="el0267pmnbqowo" class="animable"/><path d="M330.72 136.9a1.68 1.68 0 1 1-2.17.95 1.68 1.68 0 0 1 2.17-.95Z" style="fill:#fff;transform-origin:330.113px 138.466px" id="elpymr0zet8jo" class="animable"/><path d="M412.14 123.26a1.68 1.68 0 1 1-2.17.95 1.68 1.68 0 0 1 2.17-.95Z" style="fill:#fff;transform-origin:411.533px 124.826px" id="el6szcsxzsoev" class="animable"/><path d="M91.5 89.48a.78.78 0 1 1-1 .44.78.78 0 0 1 1-.44Z" style="fill:#fff;transform-origin:91.2242px 90.2096px" id="ellnd7mwhyb4o" class="animable"/><path d="M96.49 94.2a1.56 1.56 0 1 1-2 .88 1.56 1.56 0 0 1 2-.88Z" style="fill:#fff;transform-origin:95.9385px 95.6593px" id="eleu1fddmgw6s" class="animable"/><path d="M129.48 226.53a.78.78 0 1 1-.78-.78.78.78 0 0 1 .78.78Z" style="fill:#fff;transform-origin:128.7px 226.53px" id="elacbuzlvcs5" class="animable"/><circle cx="133.02" cy="223.21" r="1.56" style="fill:#fff;transform-origin:133.02px 223.21px" id="elrx593s56ici" class="animable"/><g id="elm9vp1v2dtr7"><g style="opacity:.5;transform-origin:329.26px 197.52px" class="animable" id="elseo961889r"><path d="M334.22 195.89a1.77 1.77 0 1 1-1.76-1.76 1.76 1.76 0 0 1 1.76 1.76Z" style="fill:#fff;transform-origin:332.45px 195.9px" id="el6la1qa1p61" class="animable"/><path d="M329 200.71a1.05 1.05 0 1 1-1.05-1.05 1 1 0 0 1 1.05 1.05Z" style="fill:#fff;transform-origin:327.951px 200.709px" id="eluprutofl3y7" class="animable"/><path d="M326 194.13a.85.85 0 1 1-.85-.85.85.85 0 0 1 .85.85Z" style="fill:#fff;transform-origin:325.15px 194.13px" id="eloz21135qcn" class="animable"/></g></g><g id="elwmp6sma5lnk"><g style="opacity:.5;transform-origin:289.665px 89.555px" class="animable" id="elsyjj6fogtb"><path d="M294.64 87.9a1.76 1.76 0 1 1-1.76-1.76 1.76 1.76 0 0 1 1.76 1.76Z" style="fill:#fff;transform-origin:292.88px 87.9px" id="elhyt8hrpjj7" class="animable"/><path d="M289.37 92.72a1.05 1.05 0 1 1-1.05-1 1 1 0 0 1 1.05 1Z" style="fill:#fff;transform-origin:288.321px 92.7694px" id="elzbim3ijd3xg" class="animable"/><path d="M286.39 86.14a.85.85 0 1 1-.85-.85.85.85 0 0 1 .85.85Z" style="fill:#fff;transform-origin:285.54px 86.14px" id="elqbdrv67eggc" class="animable"/></g></g><g id="elq1vlx1bpzz"><g style="opacity:.5;transform-origin:68.1311px 132.005px" class="animable" id="elqd5e59wz85l"><path d="M72.51 128a1.76 1.76 0 1 1-2.48-.31 1.76 1.76 0 0 1 2.48.31Z" style="fill:#fff;transform-origin:71.1163px 129.075px" id="eljnpcs1mf66" class="animable"/><path d="M71.3 135a1.05 1.05 0 0 1-1.66 1.29A1.05 1.05 0 1 1 71.3 135Z" style="fill:#fff;transform-origin:70.47px 135.645px" id="eli6h0egf4kdn" class="animable"/><path d="M64.91 131.62a.85.85 0 1 1-1.2-.15.86.86 0 0 1 1.2.15Z" style="fill:#fff;transform-origin:64.2359px 132.14px" id="elp9glj2i5hq" class="animable"/></g></g><g id="ela7karve6f2k"><g style="opacity:.5;transform-origin:184.039px 338.92px" class="animable" id="elrfk7ad9sg2s"><path d="M186.59 334.57a1.75 1.75 0 0 1 .61 2.41 1.76 1.76 0 1 1-.61-2.41Z" style="fill:#fff;transform-origin:185.689px 336.081px" id="elmc32mtpnjfi" class="animable"/><path d="M188 341.56a1.05 1.05 0 0 1-1.08 1.81 1.05 1.05 0 0 1 1.08-1.81Z" style="fill:#fff;transform-origin:187.46px 342.465px" id="elk6x8u20ljc" class="animable"/><path d="M180.85 340.75a.86.86 0 0 1 .29 1.17.85.85 0 1 1-.29-1.17Z" style="fill:#fff;transform-origin:180.411px 341.479px" id="elfvbgl6pg9wk" class="animable"/></g></g><path d="M378.33 159.75a1.68 1.68 0 1 1-1.68-1.68 1.69 1.69 0 0 1 1.68 1.68Z" style="fill:#fff;transform-origin:376.65px 159.75px" id="elgutritcklhg" class="animable"/><path d="m402.34 178.1-3.29 1.14-.93 3.36a.4.4 0 0 1-.7.14l-2.1-2.78-3.48.15a.39.39 0 0 1-.34-.62l2-2.86-1.22-3.26a.4.4 0 0 1 .49-.52l3.33 1 2.72-2.18a.4.4 0 0 1 .64.31l.07 3.48 2.91 1.92a.39.39 0 0 1-.1.72Z" style="fill:#fff;transform-origin:397.032px 177.241px" id="elj02b0kn3qjc" class="animable"/><path d="m347.3 84.79-3.3 1.14-.93 3.36a.4.4 0 0 1-.7.13l-2.1-2.78-3.48.16a.4.4 0 0 1-.34-.62l2-2.86-1.22-3.26a.4.4 0 0 1 .49-.52l3.33 1 2.72-2.17a.4.4 0 0 1 .65.3l.06 3.48 2.91 1.92a.4.4 0 0 1-.09.72Z" style="fill:#fff;transform-origin:341.981px 83.9289px" id="eluu88ablhn8" class="animable"/><path d="m151.9 74.68-3.29 1.14-.93 3.36a.4.4 0 0 1-.7.13l-2.1-2.78-3.48.16a.39.39 0 0 1-.34-.62l2-2.86-1.24-3.21a.4.4 0 0 1 .49-.52l3.33 1 2.73-2.17a.4.4 0 0 1 .64.3l.07 3.48L152 74a.4.4 0 0 1-.1.68Z" style="fill:#fff;transform-origin:146.566px 73.8476px" id="elmodg43vb3c" class="animable"/><circle cx="151.56" cy="175.34" r="1.56" style="fill:#fff;transform-origin:151.56px 175.34px" id="eljh8q0hr73xh" class="animable"/><path d="m140 156.26-1.33 3.22 1.9 2.92a.39.39 0 0 1-.36.61l-3.47-.26-2.19 2.71a.4.4 0 0 1-.7-.16l-.82-3.39-3.25-1.24a.4.4 0 0 1-.07-.71l3-1.82.18-3.48a.39.39 0 0 1 .65-.28l2.65 2.25 3.37-.9a.39.39 0 0 1 .44.53Z" style="fill:#fff;transform-origin:135.082px 159.944px" id="elvv1y8lpgwpa" class="animable"/><path d="m108.7 277.23-2.9 1.94v3.48a.4.4 0 0 1-.64.31l-2.74-2.15-3.33 1a.4.4 0 0 1-.49-.52l1.21-3.27-2-2.84a.39.39 0 0 1 .34-.62l3.48.13 2.08-2.79a.39.39 0 0 1 .7.13l1 3.35 3.3 1.12a.39.39 0 0 1-.01.73Z" style="fill:#fff;transform-origin:103.346px 277.386px" id="el934a6v8ul5" class="animable"/></g></g><g id="freepik--Meteorites--inject-1--inject-39" class="animable" style="transform-origin:261.7px 233.779px"><g id="freepik--meteorites--inject-1--inject-39" class="animable" style="transform-origin:261.7px 233.779px"><path d="M363.12 219.87a3.14 3.14 0 0 1 6.28 0c0 1.74-1.4 64.3-3.14 64.3s-3.14-62.56-3.14-64.3Z" style="fill:#c8b068;transform-origin:366.26px 250.45px" id="eljy8435sg0th" class="animable"/><path d="M364.06 219.87a2.2 2.2 0 1 1 2.2 2.2 2.21 2.21 0 0 1-2.2-2.2Z" style="fill:#c8b068;transform-origin:366.26px 219.87px" id="el7c4sa9zeq0x" class="animable"/><path d="M364.85 219.87a1.41 1.41 0 1 1 1.41 1.41 1.41 1.41 0 0 1-1.41-1.41Z" style="fill:#fff;transform-origin:366.26px 219.87px" id="elijy0ed9z2wo" class="animable"/><path d="M154 282.8a1.67 1.67 0 1 1 3.34 0c0 .92-.74 34.27-1.67 34.27S154 283.72 154 282.8Z" style="fill:#c8b068;transform-origin:155.67px 299.1px" id="elqwdvx91jxx" class="animable"/><circle cx="155.62" cy="282.8" r="1.17" style="fill:#c8b068;transform-origin:155.62px 282.8px" id="elj4k689c722o" class="animable"/><path d="M154.87 282.8a.75.75 0 1 1 .75.75.75.75 0 0 1-.75-.75Z" style="fill:#fff;transform-origin:155.62px 282.8px" id="elw298z3un82r" class="animable"/><path d="M178.67 152.53a2.19 2.19 0 0 1 4.37 0c0 1.21-1 44.69-2.19 44.69s-2.18-43.48-2.18-44.69Z" style="fill:#c8b068;transform-origin:180.855px 173.854px" id="elgeb236073yw" class="animable"/><path d="M179.33 152.53a1.53 1.53 0 1 1 1.52 1.53 1.53 1.53 0 0 1-1.52-1.53Z" style="fill:#c8b068;transform-origin:180.86px 152.53px" id="els01wyv11vf" class="animable"/><circle cx="180.85" cy="152.53" r=".98" style="fill:#fff;transform-origin:180.85px 152.53px" id="elcl2p982v8h" class="animable"/></g></g><defs><filter id="active" height="200%"><feMorphology in="SourceAlpha" result="DILATED" operator="dilate" radius="2"/><feFlood flood-color="#32DFEC" flood-opacity="1" result="PINK"/><feComposite in="PINK" in2="DILATED" operator="in" result="OUTLINE"/><feMerge><feMergeNode in="OUTLINE"/><feMergeNode in="SourceGraphic"/></feMerge></filter><filter id="hover" height="200%"><feMorphology in="SourceAlpha" result="DILATED" operator="dilate" radius="2"/><feFlood flood-color="red" flood-opacity=".5" result="PINK"/><feComposite in="PINK" in2="DILATED" operator="in" result="OUTLINE"/><feMerge><feMergeNode in="OUTLINE"/><feMergeNode in="SourceGraphic"/></feMerge><feColorMatrix values="0 0 0 0 0 0 1 0 0 0 0 0 0 0 0 0 0 0 1 0"/></filter></defs></svg>