<?xml version="1.0" encoding="UTF-8" standalone="no"?>
<svg
   viewBox="0 0 500 500"
   version="1.1"
   id="svg549"
   sodipodi:docname="fireworks-1.svg"
   inkscape:version="1.2.2 (732a01da63, 2022-12-09)"
   xmlns:inkscape="http://www.inkscape.org/namespaces/inkscape"
   xmlns:sodipodi="http://sodipodi.sourceforge.net/DTD/sodipodi-0.dtd"
   xmlns="http://www.w3.org/2000/svg"
   xmlns:svg="http://www.w3.org/2000/svg">
  <defs
     id="defs553" />
  <sodipodi:namedview
     id="namedview551"
     pagecolor="#505050"
     bordercolor="#eeeeee"
     borderopacity="1"
     inkscape:showpageshadow="0"
     inkscape:pageopacity="0"
     inkscape:pagecheckerboard="0"
     inkscape:deskcolor="#505050"
     showgrid="false"
     inkscape:zoom="1.674"
     inkscape:cx="125.14934"
     inkscape:cy="213.26165"
     inkscape:window-width="1920"
     inkscape:window-height="1017"
     inkscape:window-x="-8"
     inkscape:window-y="-8"
     inkscape:window-maximized="1"
     inkscape:current-layer="freepik--Fireworks--inject-2" />
  <g
     id="freepik--Fireworks--inject-2"
     transform="matrix(2.4991494,0,0,2.4991494,-59.373611,-200.29465)"
     inkscape:label="freepik--Fireworks--inject-2">
    <g
       id="g1117"
       transform="matrix(-1,0,0,1,546.11119,-44.691648)"
       inkscape:label="g1117">
      <path
         d="M 424.86,179.69 429.65,165 a 1,1 0 0 0 -0.68,-1.21 1,1 0 0 0 -1.28,0.62 v 0 a 0.3,0.3 0 0 0 0,0.1 z"
         style="fill:#ffffff"
         id="path2" />
      <path
         d="m 419.05,181.66 -9.89,-7.57 a 1.06,1.06 0 0 0 -1.43,0.13 0.92,0.92 0 0 0 0.17,1.35 l 0.14,0.06 z"
         style="fill:#ffffff"
         id="path4" />
      <path
         d="m 418.35,187.24 h -14.3 a 1,1 0 0 0 -1,1 1,1 0 0 0 1,0.95 h 0.14 z"
         style="fill:#ffffff"
         id="path6" />
      <path
         d="M 420.45,191.56 411.59,204 a 0.92,0.92 0 0 0 0.28,1.32 v 0 a 1.05,1.05 0 0 0 1.41,-0.24 v 0 l 0.05,-0.1 z"
         style="fill:#ffffff"
         id="path8" />
      <path
         d="m 426.19,191.48 3.73,14.61 a 1,1 0 0 0 1.22,0.73 0.94,0.94 0 0 0 0.76,-1.14 0.56,0.56 0 0 0 0,-0.12 z"
         style="fill:#ffffff"
         id="path10" />
      <path
         d="m 430.69,188 11.74,7.89 a 1.06,1.06 0 0 0 1.44,-0.22 1,1 0 0 0 -0.26,-1.36 h -0.14 z"
         style="fill:#ffffff"
         id="path12" />
      <path
         d="M 430.15,182.81 444,176.86 a 0.91,0.91 0 0 0 0.16,-1.34 1.08,1.08 0 0 0 -1,-0.35 l -0.12,0.07 z"
         style="fill:#ffffff"
         id="path14" />
      <path
         d="m 428.58,178.66 5.41,-9.38 a 0.48,0.48 0 0 0 -0.2,-0.66 0.52,0.52 0 0 0 -0.69,0.19 z"
         style="fill:#ffffff"
         id="path16" />
      <path
         d="m 422.68,175.47 0.25,-8.27 a 0.51,0.51 0 0 0 -0.5,-0.51 0.49,0.49 0 0 0 -0.53,0.45 v 0.05 z"
         style="fill:#ffffff"
         id="path18" />
      <path
         d="m 418.84,178.55 -5.48,-6.25 a 0.53,0.53 0 0 0 -0.7,-0.09 v 0 a 0.46,0.46 0 0 0 -0.07,0.66 h 0.06 z"
         style="fill:#ffffff"
         id="path20" />
      <path
         d="M 414.55,185.24 408,183.35 a 0.51,0.51 0 0 0 -0.63,0.32 0.48,0.48 0 0 0 0.36,0.6 h 0.06 z"
         style="fill:#ffffff"
         id="path22" />
      <path
         d="m 417.42,189.26 -6.3,1.75 a 0.47,0.47 0 0 0 -0.33,0.59 0.52,0.52 0 0 0 0.64,0.32 v 0 z"
         style="fill:#ffffff"
         id="path24" />
      <path
         d="m 425.85,196.93 0.48,5.52 a 0.52,0.52 0 0 0 0.55,0.45 0.48,0.48 0 0 0 0.47,-0.5 v 0 a 0.14,0.14 0 0 0 0,-0.06 z"
         style="fill:#ffffff"
         id="path26" />
      <path
         d="m 431.44,191.24 3.32,4.29 a 0.54,0.54 0 0 0 0.7,0.13 v 0 a 0.46,0.46 0 0 0 0.1,-0.67 h -0.07 z"
         style="fill:#ffffff"
         id="path28" />
      <path
         d="m 428.64,192.5 2.05,5.58 a 0.54,0.54 0 0 0 0.69,0.23 0.46,0.46 0 0 0 0.28,-0.53 h -0.05 z"
         style="fill:#ffffff"
         id="path30" />
      <path
         d="m 433.17,188.08 3.54,2 a 0.53,0.53 0 0 0 0.7,-0.17 0.46,0.46 0 0 0 -0.19,-0.65 h -0.11 z"
         style="fill:#ffffff"
         id="path32" />
      <path
         d="m 433.58,183.85 6.91,-1.25 a 0.47,0.47 0 0 0 0.39,-0.56 0.51,0.51 0 0 0 -0.6,-0.38 v 0 h -0.06 z"
         style="fill:#ffffff"
         id="path34" />
      <path
         d="m 422.19,203.24 c -0.5,0.81 -1.29,1.8 -1.75,2.71 a 10.46,10.46 0 0 0 -0.7,4.63 c 0.05,1.54 0.56,3.06 0.24,4.66 a 4.18,4.18 0 0 1 -1,2 5.42,5.42 0 0 0 -1.64,2.79 c -1.07,6 -3.64,19.76 -3.89,21.58 -0.45,-0.07 1.47,-15.21 2.67,-22.53 a 6.76,6.76 0 0 1 1.85,-3.27 2,2 0 0 0 0.36,-0.62 5.29,5.29 0 0 0 0.23,-2.52 c -0.1,-0.78 -0.3,-1.43 -0.42,-2.19 a 12.1,12.1 0 0 1 0.64,-5.52 5.59,5.59 0 0 1 1.67,-2.5 1.46,1.46 0 0 0 0.69,-1.29 9,9 0 0 1 1,-4.93 c 0.22,-0.34 0.7,-0.62 0.66,-0.31 -0.68,6.28 0.49,5.55 -0.61,7.31 z"
         style="fill:#ffffff"
         id="path36" />
      <path
         d="m 422.6,186.69 a 1.19,1.19 0 0 0 2.35,0.36 1.19,1.19 0 0 0 -2.35,-0.36 z"
         style="fill:#ffffff"
         id="path38" />
      <g
         style="opacity:0.4"
         id="g76">
        <path
           d="M 424.86,179.69 429.65,165 a 1,1 0 0 0 -0.68,-1.21 1,1 0 0 0 -1.28,0.62 v 0 a 0.3,0.3 0 0 0 0,0.1 z"
           style="fill:#ffffff"
           id="path40" />
        <path
           d="m 419.05,181.66 -9.89,-7.57 a 1.06,1.06 0 0 0 -1.43,0.13 0.92,0.92 0 0 0 0.17,1.35 l 0.14,0.06 z"
           style="fill:#ffffff"
           id="path42" />
        <path
           d="m 418.35,187.24 h -14.3 a 1,1 0 0 0 -1,1 1,1 0 0 0 1,0.95 h 0.14 z"
           style="fill:#ffffff"
           id="path44" />
        <path
           d="M 420.45,191.56 411.59,204 a 0.92,0.92 0 0 0 0.28,1.32 v 0 a 1.05,1.05 0 0 0 1.41,-0.24 v 0 l 0.05,-0.1 z"
           style="fill:#ffffff"
           id="path46" />
        <path
           d="m 426.19,191.48 3.73,14.61 a 1,1 0 0 0 1.22,0.73 0.94,0.94 0 0 0 0.76,-1.14 0.56,0.56 0 0 0 0,-0.12 z"
           style="fill:#ffffff"
           id="path48" />
        <path
           d="m 430.69,188 11.74,7.89 a 1.06,1.06 0 0 0 1.44,-0.22 1,1 0 0 0 -0.26,-1.36 h -0.14 z"
           style="fill:#ffffff"
           id="path50" />
        <path
           d="M 430.15,182.81 444,176.86 a 0.91,0.91 0 0 0 0.16,-1.34 1.08,1.08 0 0 0 -1,-0.35 l -0.12,0.07 z"
           style="fill:#ffffff"
           id="path52" />
        <path
           d="m 428.58,178.66 5.41,-9.38 a 0.48,0.48 0 0 0 -0.2,-0.66 0.52,0.52 0 0 0 -0.69,0.19 z"
           style="fill:#ffffff"
           id="path54" />
        <path
           d="m 422.68,175.47 0.25,-8.27 a 0.51,0.51 0 0 0 -0.5,-0.51 0.49,0.49 0 0 0 -0.53,0.45 v 0.05 z"
           style="fill:#ffffff"
           id="path56" />
        <path
           d="m 418.84,178.55 -5.48,-6.25 a 0.53,0.53 0 0 0 -0.7,-0.09 v 0 a 0.46,0.46 0 0 0 -0.07,0.66 h 0.06 z"
           style="fill:#ffffff"
           id="path58" />
        <path
           d="M 414.55,185.24 408,183.35 a 0.51,0.51 0 0 0 -0.63,0.32 0.48,0.48 0 0 0 0.36,0.6 h 0.06 z"
           style="fill:#ffffff"
           id="path60" />
        <path
           d="m 417.42,189.26 -6.3,1.75 a 0.47,0.47 0 0 0 -0.33,0.59 0.52,0.52 0 0 0 0.64,0.32 v 0 z"
           style="fill:#ffffff"
           id="path62" />
        <path
           d="m 425.85,196.93 0.48,5.52 a 0.52,0.52 0 0 0 0.55,0.45 0.48,0.48 0 0 0 0.47,-0.5 v 0 a 0.14,0.14 0 0 0 0,-0.06 z"
           style="fill:#ffffff"
           id="path64" />
        <path
           d="m 431.44,191.24 3.32,4.29 a 0.54,0.54 0 0 0 0.7,0.13 v 0 a 0.46,0.46 0 0 0 0.1,-0.67 h -0.07 z"
           style="fill:#ffffff"
           id="path66" />
        <path
           d="m 428.64,192.5 2.05,5.58 a 0.54,0.54 0 0 0 0.69,0.23 0.46,0.46 0 0 0 0.28,-0.53 h -0.05 z"
           style="fill:#ffffff"
           id="path68" />
        <path
           d="m 433.17,188.08 3.54,2 a 0.53,0.53 0 0 0 0.7,-0.17 0.46,0.46 0 0 0 -0.19,-0.65 h -0.11 z"
           style="fill:#ffffff"
           id="path70" />
        <path
           d="m 433.58,183.85 6.91,-1.25 a 0.47,0.47 0 0 0 0.39,-0.56 0.51,0.51 0 0 0 -0.6,-0.38 v 0 h -0.06 z"
           style="fill:#ffffff"
           id="path72" />
        <path
           d="m 422.19,203.24 c -0.5,0.81 -1.29,1.8 -1.75,2.71 a 10.46,10.46 0 0 0 -0.7,4.63 c 0.05,1.54 0.56,3.06 0.24,4.66 a 4.18,4.18 0 0 1 -1,2 5.42,5.42 0 0 0 -1.64,2.79 c -1.07,6 -3.64,19.76 -3.89,21.58 -0.45,-0.07 1.47,-15.21 2.67,-22.53 a 6.76,6.76 0 0 1 1.85,-3.27 2,2 0 0 0 0.36,-0.62 5.29,5.29 0 0 0 0.23,-2.52 c -0.1,-0.78 -0.3,-1.43 -0.42,-2.19 a 12.1,12.1 0 0 1 0.64,-5.52 5.59,5.59 0 0 1 1.67,-2.5 1.46,1.46 0 0 0 0.69,-1.29 9,9 0 0 1 1,-4.93 c 0.22,-0.34 0.7,-0.62 0.66,-0.31 -0.68,6.28 0.49,5.55 -0.61,7.31 z"
           style="fill:#ffffff"
           id="path74" />
      </g>
    </g>
  </g>
</svg>
