<?xml version="1.0" encoding="UTF-8" standalone="no"?>
<svg
   viewBox="0 0 500 500"
   version="1.1"
   id="svg549"
   sodipodi:docname="fireworks-3.svg"
   inkscape:version="1.2.2 (732a01da63, 2022-12-09)"
   xmlns:inkscape="http://www.inkscape.org/namespaces/inkscape"
   xmlns:sodipodi="http://sodipodi.sourceforge.net/DTD/sodipodi-0.dtd"
   xmlns="http://www.w3.org/2000/svg"
   xmlns:svg="http://www.w3.org/2000/svg">
  <defs
     id="defs553" />
  <sodipodi:namedview
     id="namedview551"
     pagecolor="#505050"
     bordercolor="#eeeeee"
     borderopacity="1"
     inkscape:showpageshadow="0"
     inkscape:pageopacity="0"
     inkscape:pagecheckerboard="0"
     inkscape:deskcolor="#505050"
     showgrid="false"
     inkscape:zoom="1.1836968"
     inkscape:cx="309.2008"
     inkscape:cy="262.7362"
     inkscape:window-width="960"
     inkscape:window-height="1017"
     inkscape:window-x="-8"
     inkscape:window-y="-8"
     inkscape:window-maximized="0"
     inkscape:current-layer="svg549" />
  <g
     id="freepik--Fireworks--inject-2"
     transform="matrix(2.4991494,0,0,2.4991494,-59.373611,-160.16462)"
     inkscape:label="freepik--Fireworks--inject-2">
    <g
       id="g1036"
       transform="translate(6.4021784,39.213332)">
      <path
         d="M 83.79,107.84 81.26,92.55 a 1,1 0 0 1 0.86,-1.09 1,1 0 0 1 1.17,0.8 v 0 0.11 z"
         style="fill:#ffffff"
         id="path156" />
      <path
         d="m 89.24,110.66 10.91,-6 a 1.07,1.07 0 0 1 1.4,0.35 0.91,0.91 0 0 1 -0.36,1.3 h -0.16 z"
         style="fill:#ffffff"
         id="path158" />
      <path
         d="m 89.1,116.27 14.14,2.15 a 1,1 0 0 1 0.84,1.1 1,1 0 0 1 -1.18,0.79 h -0.13 z"
         style="fill:#ffffff"
         id="path160" />
      <path
         d="m 80.72,119.29 -5.88,13.89 a 1,1 0 0 1 -1.32,0.54 0.94,0.94 0 0 1 -0.57,-1.24 0.54,0.54 0 0 1 0,-0.11 z"
         style="fill:#ffffff"
         id="path162" />
      <path
         d="m 76.78,115.19 -12.78,6 a 1.07,1.07 0 0 1 -1.39,-0.44 0.94,0.94 0 0 1 0.46,-1.3 h 0.14 z"
         style="fill:#ffffff"
         id="path164" />
      <path
         d="m 78.09,110.13 -12.81,-8 a 0.91,0.91 0 0 1 0,-1.34 1.07,1.07 0 0 1 1.06,-0.2 l 0.11,0.08 z"
         style="fill:#ffffff"
         id="path166" />
      <path
         d="m 80.27,106.26 -4,-10.09 a 0.47,0.47 0 0 1 0.31,-0.61 0.52,0.52 0 0 1 0.65,0.28 z"
         style="fill:#ffffff"
         id="path168" />
      <path
         d="m 86.58,104 1,-8.22 a 0.5,0.5 0 0 1 0.56,-0.42 0.49,0.49 0 0 1 0.46,0.52 v 0.06 z"
         style="fill:#ffffff"
         id="path170" />
      <path
         d="m 89.92,107.61 6.36,-5.36 a 0.51,0.51 0 0 1 0.7,0 v 0 a 0.46,0.46 0 0 1 0,0.67 h -0.06 z"
         style="fill:#ffffff"
         id="path172" />
      <path
         d="M 93.15,114.86 100,114 a 0.5,0.5 0 0 1 0.57,0.41 0.49,0.49 0 0 1 -0.44,0.54 H 100 Z"
         style="fill:#ffffff"
         id="path174" />
      <path
         d="m 89.72,118.41 6,2.67 a 0.47,0.47 0 0 1 0.24,0.64 0.52,0.52 0 0 1 -0.67,0.22 v 0 z"
         style="fill:#ffffff"
         id="path176" />
      <path
         d="m 80.23,124.73 -1.3,5.39 a 0.53,0.53 0 0 1 -0.61,0.37 0.48,0.48 0 0 1 -0.38,-0.57 v 0 c 0,0 0,0 0,-0.06 z"
         style="fill:#ffffff"
         id="path178" />
      <path
         d="M 75.56,118.27 71.63,122 a 0.51,0.51 0 0 1 -0.7,0 v 0 a 0.46,0.46 0 0 1 0,-0.68 H 71 Z"
         style="fill:#ffffff"
         id="path180" />
      <path
         d="m 78.14,119.94 -2.86,5.21 a 0.54,0.54 0 0 1 -0.72,0.12 0.46,0.46 0 0 1 -0.2,-0.56 h 0.06 z"
         style="fill:#ffffff"
         id="path182" />
      <path
         d="m 74.32,114.89 -3.8,1.44 a 0.52,0.52 0 0 1 -0.66,-0.26 0.46,0.46 0 0 1 0.28,-0.62 0.27,0.27 0 0 1 0.12,0 z"
         style="fill:#ffffff"
         id="path184" />
      <path
         d="m 74.55,110.65 -6.65,-2.27 a 0.49,0.49 0 0 1 -0.3,-0.62 0.52,0.52 0 0 1 0.65,-0.28 v 0 h 0.06 z"
         style="fill:#ffffff"
         id="path186" />
      <g
         style="opacity:0.4"
         id="g222">
        <path
           d="M 83.79,107.84 81.26,92.55 a 1,1 0 0 1 0.86,-1.09 1,1 0 0 1 1.17,0.8 v 0 0.11 z"
           style="fill:#ffffff"
           id="path188" />
        <path
           d="m 89.24,110.66 10.91,-6 a 1.07,1.07 0 0 1 1.4,0.35 0.91,0.91 0 0 1 -0.36,1.3 h -0.16 z"
           style="fill:#ffffff"
           id="path190" />
        <path
           d="m 89.1,116.27 14.14,2.15 a 1,1 0 0 1 0.84,1.1 1,1 0 0 1 -1.18,0.79 h -0.13 z"
           style="fill:#ffffff"
           id="path192" />
        <path
           d="m 80.72,119.29 -5.88,13.89 a 1,1 0 0 1 -1.32,0.54 0.94,0.94 0 0 1 -0.57,-1.24 0.54,0.54 0 0 1 0,-0.11 z"
           style="fill:#ffffff"
           id="path194" />
        <path
           d="m 76.78,115.19 -12.78,6 a 1.07,1.07 0 0 1 -1.39,-0.44 0.94,0.94 0 0 1 0.46,-1.3 h 0.14 z"
           style="fill:#ffffff"
           id="path196" />
        <path
           d="m 78.09,110.13 -12.81,-8 a 0.91,0.91 0 0 1 0,-1.34 1.07,1.07 0 0 1 1.06,-0.2 l 0.11,0.08 z"
           style="fill:#ffffff"
           id="path198" />
        <path
           d="m 80.27,106.26 -4,-10.09 a 0.47,0.47 0 0 1 0.31,-0.61 0.52,0.52 0 0 1 0.65,0.28 z"
           style="fill:#ffffff"
           id="path200" />
        <path
           d="m 86.58,104 1,-8.22 a 0.5,0.5 0 0 1 0.56,-0.42 0.49,0.49 0 0 1 0.46,0.52 v 0.06 z"
           style="fill:#ffffff"
           id="path202" />
        <path
           d="m 89.92,107.61 6.36,-5.36 a 0.51,0.51 0 0 1 0.7,0 v 0 a 0.46,0.46 0 0 1 0,0.67 h -0.06 z"
           style="fill:#ffffff"
           id="path204" />
        <path
           d="M 93.15,114.86 100,114 a 0.5,0.5 0 0 1 0.57,0.41 0.49,0.49 0 0 1 -0.44,0.54 H 100 Z"
           style="fill:#ffffff"
           id="path206" />
        <path
           d="m 89.72,118.41 6,2.67 a 0.47,0.47 0 0 1 0.24,0.64 0.52,0.52 0 0 1 -0.67,0.22 v 0 z"
           style="fill:#ffffff"
           id="path208" />
        <path
           d="m 80.23,124.73 -1.3,5.39 a 0.53,0.53 0 0 1 -0.61,0.37 0.48,0.48 0 0 1 -0.38,-0.57 v 0 c 0,0 0,0 0,-0.06 z"
           style="fill:#ffffff"
           id="path210" />
        <path
           d="M 75.56,118.27 71.63,122 a 0.51,0.51 0 0 1 -0.7,0 v 0 a 0.46,0.46 0 0 1 0,-0.68 H 71 Z"
           style="fill:#ffffff"
           id="path212" />
        <path
           d="m 78.14,119.94 -2.86,5.21 a 0.54,0.54 0 0 1 -0.72,0.12 0.46,0.46 0 0 1 -0.2,-0.56 h 0.06 z"
           style="fill:#ffffff"
           id="path214" />
        <path
           d="m 74.32,114.89 -3.8,1.44 a 0.52,0.52 0 0 1 -0.66,-0.26 0.46,0.46 0 0 1 0.28,-0.62 0.27,0.27 0 0 1 0.12,0 z"
           style="fill:#ffffff"
           id="path216" />
        <path
           d="m 74.55,110.65 -6.65,-2.27 a 0.49,0.49 0 0 1 -0.3,-0.62 0.52,0.52 0 0 1 0.65,-0.28 v 0 h 0.06 z"
           style="fill:#ffffff"
           id="path218" />
        <ellipse
           cx="83.790001"
           cy="115.1"
           rx="1.1900001"
           ry="1.11"
           style="fill:#ffffff"
           id="ellipse220" />
      </g>
      <ellipse
         cx="83.790001"
         cy="115.1"
         rx="1.1900001"
         ry="1.11"
         style="fill:#ffffff"
         id="ellipse224" />
      <path
         d="m 101,180.43 c 0,0 0,-0.61 -0.06,-1.68 0,-0.54 -0.05,-1.19 -0.08,-1.94 -0.03,-0.75 -0.12,-1.61 -0.18,-2.54 a 109.91,109.91 0 0 0 -2,-13.9 111.47,111.47 0 0 0 -4.25,-14.75 c -1.58,-4.33 -3.11,-7.77 -3.86,-9.45 -1.43,-3.39 -2.8,-6.43 -3.65,-8.72 -0.85,-2.29 -1.29,-3.8 -0.86,-4 0.43,-0.2 1.56,0.84 3.06,2.85 a 47,47 0 0 1 4.7,8.52 83.12,83.12 0 0 1 3.46,9.94 105.59,105.59 0 0 1 3.15,15.37 104.9,104.9 0 0 1 0.84,14.17 c 0,0.94 0,1.8 0,2.55 0,0.75 -0.07,1.41 -0.1,1.95 -0.17,1.02 -0.17,1.63 -0.17,1.63 z"
         style="fill:#ffffff"
         id="path226" />
      <g
         style="opacity:0.4"
         id="g230">
        <path
           d="m 101,180.43 c 0,0 0,-0.61 -0.06,-1.68 0,-0.54 -0.05,-1.19 -0.08,-1.94 -0.03,-0.75 -0.12,-1.61 -0.18,-2.54 a 109.91,109.91 0 0 0 -2,-13.9 111.47,111.47 0 0 0 -4.25,-14.75 c -1.58,-4.33 -3.11,-7.77 -3.86,-9.45 -1.43,-3.39 -2.8,-6.43 -3.65,-8.72 -0.85,-2.29 -1.29,-3.8 -0.86,-4 0.43,-0.2 1.56,0.84 3.06,2.85 a 47,47 0 0 1 4.7,8.52 83.12,83.12 0 0 1 3.46,9.94 105.59,105.59 0 0 1 3.15,15.37 104.9,104.9 0 0 1 0.84,14.17 c 0,0.94 0,1.8 0,2.55 0,0.75 -0.07,1.41 -0.1,1.95 -0.17,1.02 -0.17,1.63 -0.17,1.63 z"
           style="fill:#ffffff"
           id="path228" />
      </g>
    </g>
    <g
       id="g996"
       transform="translate(6.4021784,39.213332)">
      <path
         d="m 113.07,133.3 0.52,-1.1 0.59,-1.26 c 0.25,-0.49 0.52,-1 0.83,-1.64 a 77.74,77.74 0 0 1 5.24,-8.65 79.69,79.69 0 0 1 7,-8.6 c 2.26,-2.44 4.24,-4.29 5.2,-5.2 1.9,-1.85 3.66,-3.48 4.87,-4.76 1.21,-1.28 1.91,-2.16 1.7,-2.45 -0.21,-0.29 -1.27,0.12 -2.83,1 a 33.22,33.22 0 0 0 -5.5,4.34 60.28,60.28 0 0 0 -5.08,5.63 75.3,75.3 0 0 0 -10.91,18.49 c -0.25,0.63 -0.48,1.2 -0.69,1.7 -0.21,0.5 -0.34,1 -0.48,1.32 z"
         style="fill:#ffffff"
         id="path232" />
      <g
         style="opacity:0.4"
         id="g236">
        <path
           d="m 113.07,133.3 0.52,-1.1 0.59,-1.26 c 0.25,-0.49 0.52,-1 0.83,-1.64 a 77.74,77.74 0 0 1 5.24,-8.65 79.69,79.69 0 0 1 7,-8.6 c 2.26,-2.44 4.24,-4.29 5.2,-5.2 1.9,-1.85 3.66,-3.48 4.87,-4.76 1.21,-1.28 1.91,-2.16 1.7,-2.45 -0.21,-0.29 -1.27,0.12 -2.83,1 a 33.22,33.22 0 0 0 -5.5,4.34 60.28,60.28 0 0 0 -5.08,5.63 75.3,75.3 0 0 0 -10.91,18.49 c -0.25,0.63 -0.48,1.2 -0.69,1.7 -0.21,0.5 -0.34,1 -0.48,1.32 z"
           style="fill:#ffffff"
           id="path234" />
      </g>
      <path
         d="m 150.2,96.87 12.57,-4.1 a 0.82,0.82 0 0 1 1,0.58 0.87,0.87 0 0 1 -0.52,1.09 v 0 h -0.09 z"
         style="fill:#ffffff"
         id="path238" />
      <path
         d="m 148.53,101.83 6.46,8.43 a 0.9,0.9 0 0 1 -0.11,1.22 0.78,0.78 0 0 1 -1.15,-0.14 v -0.13 z"
         style="fill:#ffffff"
         id="path240" />
      <path
         d="m 143.77,102.43 v 12.2 a 0.83,0.83 0 0 1 -0.82,0.85 0.87,0.87 0 0 1 -0.82,-0.89 c 0,0 0,-0.08 0,-0.12 z"
         style="fill:#ffffff"
         id="path242" />
      <path
         d="m 140.15,95.75 -12.47,-3.17 a 0.89,0.89 0 0 1 -0.62,-1 0.8,0.8 0 0 1 1,-0.64 h 0.1 z"
         style="fill:#ffffff"
         id="path244" />
      <path
         d="m 143.1,91.9 -6.74,-10 a 0.91,0.91 0 0 1 0.19,-1.23 0.79,0.79 0 0 1 1.15,0.22 l 0.05,0.11 z"
         style="fill:#ffffff"
         id="path246" />
      <path
         d="m 147.53,92.36 5.08,-11.83 a 0.78,0.78 0 0 1 1.14,-0.13 0.91,0.91 0 0 1 0.29,0.87 v 0.1 z"
         style="fill:#ffffff"
         id="path248" />
      <path
         d="m 151.08,93.69 8,-4.62 a 0.41,0.41 0 0 1 0.56,0.18 0.45,0.45 0 0 1 -0.16,0.59 z"
         style="fill:#ffffff"
         id="path250" />
      <path
         d="m 153.81,98.73 7.05,-0.22 a 0.44,0.44 0 0 1 0.44,0.42 0.42,0.42 0 0 1 -0.39,0.45 v 0 z"
         style="fill:#ffffff"
         id="path252" />
      <path
         d="m 151.18,102 5.34,4.67 a 0.44,0.44 0 0 1 0.07,0.6 v 0 a 0.38,0.38 0 0 1 -0.56,0.06 v 0 z"
         style="fill:#ffffff"
         id="path254" />
      <path
         d="m 145.48,105.67 1.61,5.62 a 0.43,0.43 0 0 1 -0.27,0.54 0.42,0.42 0 0 1 -0.51,-0.3 v -0.06 z"
         style="fill:#ffffff"
         id="path256" />
      <path
         d="m 142.05,103.23 -1.49,5.37 a 0.39,0.39 0 0 1 -0.5,0.28 0.44,0.44 0 0 1 -0.28,-0.54 v 0 z"
         style="fill:#ffffff"
         id="path258" />
      <path
         d="m 135.5,96 -4.71,-0.41 a 0.44,0.44 0 0 1 -0.39,-0.46 0.4,0.4 0 0 1 0.43,-0.4 v 0 h 0.06 z"
         style="fill:#ffffff"
         id="path260" />
      <path
         d="m 140.35,91.27 -3.66,-2.84 a 0.43,0.43 0 0 1 -0.12,-0.58 v 0 a 0.4,0.4 0 0 1 0.57,-0.09 v 0.06 z"
         style="fill:#ffffff"
         id="path262" />
      <path
         d="m 139.27,93.66 -4.76,-1.75 a 0.48,0.48 0 0 1 -0.2,-0.59 0.41,0.41 0 0 1 0.46,-0.24 v 0 z"
         style="fill:#ffffff"
         id="path264" />
      <path
         d="m 143,89.78 -1.71,-3 a 0.46,0.46 0 0 1 0.14,-0.6 0.39,0.39 0 0 1 0.56,0.16 0.3,0.3 0 0 1 0,0.1 z"
         style="fill:#ffffff"
         id="path266" />
      <path
         d="m 146.65,89.44 1.06,-5.9 a 0.42,0.42 0 0 1 0.48,-0.34 0.45,0.45 0 0 1 0.32,0.52 v 0 0 z"
         style="fill:#ffffff"
         id="path268" />
      <g
         style="opacity:0.4"
         id="g304">
        <path
           d="m 150.2,96.87 12.57,-4.1 a 0.82,0.82 0 0 1 1,0.58 0.87,0.87 0 0 1 -0.52,1.09 v 0 h -0.09 z"
           style="fill:#ffffff"
           id="path270" />
        <path
           d="m 148.53,101.83 6.46,8.43 a 0.9,0.9 0 0 1 -0.11,1.22 0.78,0.78 0 0 1 -1.15,-0.14 v -0.13 z"
           style="fill:#ffffff"
           id="path272" />
        <path
           d="m 143.77,102.43 v 12.2 a 0.83,0.83 0 0 1 -0.82,0.85 0.87,0.87 0 0 1 -0.82,-0.89 c 0,0 0,-0.08 0,-0.12 z"
           style="fill:#ffffff"
           id="path274" />
        <path
           d="m 140.15,95.75 -12.47,-3.17 a 0.89,0.89 0 0 1 -0.62,-1 0.8,0.8 0 0 1 1,-0.64 h 0.1 z"
           style="fill:#ffffff"
           id="path276" />
        <path
           d="m 143.1,91.9 -6.74,-10 a 0.91,0.91 0 0 1 0.19,-1.23 0.79,0.79 0 0 1 1.15,0.22 l 0.05,0.11 z"
           style="fill:#ffffff"
           id="path278" />
        <path
           d="m 147.53,92.36 5.08,-11.83 a 0.78,0.78 0 0 1 1.14,-0.13 0.91,0.91 0 0 1 0.29,0.87 v 0.1 z"
           style="fill:#ffffff"
           id="path280" />
        <path
           d="m 151.08,93.69 8,-4.62 a 0.41,0.41 0 0 1 0.56,0.18 0.45,0.45 0 0 1 -0.16,0.59 z"
           style="fill:#ffffff"
           id="path282" />
        <path
           d="m 153.81,98.73 7.05,-0.22 a 0.44,0.44 0 0 1 0.44,0.42 0.42,0.42 0 0 1 -0.39,0.45 v 0 z"
           style="fill:#ffffff"
           id="path284" />
        <path
           d="m 151.18,102 5.34,4.67 a 0.44,0.44 0 0 1 0.07,0.6 v 0 a 0.38,0.38 0 0 1 -0.56,0.06 v 0 z"
           style="fill:#ffffff"
           id="path286" />
        <path
           d="m 145.48,105.67 1.61,5.62 a 0.43,0.43 0 0 1 -0.27,0.54 0.42,0.42 0 0 1 -0.51,-0.3 v -0.06 z"
           style="fill:#ffffff"
           id="path288" />
        <path
           d="m 142.05,103.23 -1.49,5.37 a 0.39,0.39 0 0 1 -0.5,0.28 0.44,0.44 0 0 1 -0.28,-0.54 v 0 z"
           style="fill:#ffffff"
           id="path290" />
        <path
           d="m 135.5,96 -4.71,-0.41 a 0.44,0.44 0 0 1 -0.39,-0.46 0.4,0.4 0 0 1 0.43,-0.4 v 0 h 0.06 z"
           style="fill:#ffffff"
           id="path292" />
        <path
           d="m 140.35,91.27 -3.66,-2.84 a 0.43,0.43 0 0 1 -0.12,-0.58 v 0 a 0.4,0.4 0 0 1 0.57,-0.09 v 0.06 z"
           style="fill:#ffffff"
           id="path294" />
        <path
           d="m 139.27,93.66 -4.76,-1.75 a 0.48,0.48 0 0 1 -0.2,-0.59 0.41,0.41 0 0 1 0.46,-0.24 v 0 z"
           style="fill:#ffffff"
           id="path296" />
        <path
           d="m 143,89.78 -1.71,-3 a 0.46,0.46 0 0 1 0.14,-0.6 0.39,0.39 0 0 1 0.56,0.16 0.3,0.3 0 0 1 0,0.1 z"
           style="fill:#ffffff"
           id="path298" />
        <path
           d="m 146.65,89.44 1.06,-5.9 a 0.42,0.42 0 0 1 0.48,-0.34 0.45,0.45 0 0 1 0.32,0.52 v 0 0 z"
           style="fill:#ffffff"
           id="path300" />
        <path
           d="m 144.23,98.81 a 1.0111874,1.0111874 0 0 1 -0.3,-2 1,1 0 0 1 1.09,0.86 1,1 0 0 1 -0.79,1.14 z"
           style="fill:#ffffff"
           id="path302" />
      </g>
      <path
         d="m 144.23,98.81 a 1.0111874,1.0111874 0 0 1 -0.3,-2 1,1 0 0 1 1.09,0.86 1,1 0 0 1 -0.79,1.14 z"
         style="fill:#ffffff"
         id="path306" />
    </g>
    <g
       id="g1117"
       transform="matrix(-1,0,0,1,531.93511,-81.638966)">
      <path
         d="M 424.86,179.69 429.65,165 a 1,1 0 0 0 -0.68,-1.21 1,1 0 0 0 -1.28,0.62 v 0 a 0.3,0.3 0 0 0 0,0.1 z"
         style="fill:#ffffff"
         id="path2" />
      <path
         d="m 419.05,181.66 -9.89,-7.57 a 1.06,1.06 0 0 0 -1.43,0.13 0.92,0.92 0 0 0 0.17,1.35 l 0.14,0.06 z"
         style="fill:#ffffff"
         id="path4" />
      <path
         d="m 418.35,187.24 h -14.3 a 1,1 0 0 0 -1,1 1,1 0 0 0 1,0.95 h 0.14 z"
         style="fill:#ffffff"
         id="path6" />
      <path
         d="M 420.45,191.56 411.59,204 a 0.92,0.92 0 0 0 0.28,1.32 v 0 a 1.05,1.05 0 0 0 1.41,-0.24 v 0 l 0.05,-0.1 z"
         style="fill:#ffffff"
         id="path8" />
      <path
         d="m 426.19,191.48 3.73,14.61 a 1,1 0 0 0 1.22,0.73 0.94,0.94 0 0 0 0.76,-1.14 0.56,0.56 0 0 0 0,-0.12 z"
         style="fill:#ffffff"
         id="path10" />
      <path
         d="m 430.69,188 11.74,7.89 a 1.06,1.06 0 0 0 1.44,-0.22 1,1 0 0 0 -0.26,-1.36 h -0.14 z"
         style="fill:#ffffff"
         id="path12" />
      <path
         d="M 430.15,182.81 444,176.86 a 0.91,0.91 0 0 0 0.16,-1.34 1.08,1.08 0 0 0 -1,-0.35 l -0.12,0.07 z"
         style="fill:#ffffff"
         id="path14" />
      <path
         d="m 428.58,178.66 5.41,-9.38 a 0.48,0.48 0 0 0 -0.2,-0.66 0.52,0.52 0 0 0 -0.69,0.19 z"
         style="fill:#ffffff"
         id="path16" />
      <path
         d="m 422.68,175.47 0.25,-8.27 a 0.51,0.51 0 0 0 -0.5,-0.51 0.49,0.49 0 0 0 -0.53,0.45 v 0.05 z"
         style="fill:#ffffff"
         id="path18" />
      <path
         d="m 418.84,178.55 -5.48,-6.25 a 0.53,0.53 0 0 0 -0.7,-0.09 v 0 a 0.46,0.46 0 0 0 -0.07,0.66 h 0.06 z"
         style="fill:#ffffff"
         id="path20" />
      <path
         d="M 414.55,185.24 408,183.35 a 0.51,0.51 0 0 0 -0.63,0.32 0.48,0.48 0 0 0 0.36,0.6 h 0.06 z"
         style="fill:#ffffff"
         id="path22" />
      <path
         d="m 417.42,189.26 -6.3,1.75 a 0.47,0.47 0 0 0 -0.33,0.59 0.52,0.52 0 0 0 0.64,0.32 v 0 z"
         style="fill:#ffffff"
         id="path24" />
      <path
         d="m 425.85,196.93 0.48,5.52 a 0.52,0.52 0 0 0 0.55,0.45 0.48,0.48 0 0 0 0.47,-0.5 v 0 a 0.14,0.14 0 0 0 0,-0.06 z"
         style="fill:#ffffff"
         id="path26" />
      <path
         d="m 431.44,191.24 3.32,4.29 a 0.54,0.54 0 0 0 0.7,0.13 v 0 a 0.46,0.46 0 0 0 0.1,-0.67 h -0.07 z"
         style="fill:#ffffff"
         id="path28" />
      <path
         d="m 428.64,192.5 2.05,5.58 a 0.54,0.54 0 0 0 0.69,0.23 0.46,0.46 0 0 0 0.28,-0.53 h -0.05 z"
         style="fill:#ffffff"
         id="path30" />
      <path
         d="m 433.17,188.08 3.54,2 a 0.53,0.53 0 0 0 0.7,-0.17 0.46,0.46 0 0 0 -0.19,-0.65 h -0.11 z"
         style="fill:#ffffff"
         id="path32" />
      <path
         d="m 433.58,183.85 6.91,-1.25 a 0.47,0.47 0 0 0 0.39,-0.56 0.51,0.51 0 0 0 -0.6,-0.38 v 0 h -0.06 z"
         style="fill:#ffffff"
         id="path34" />
      <path
         d="m 422.19,203.24 c -0.5,0.81 -1.29,1.8 -1.75,2.71 a 10.46,10.46 0 0 0 -0.7,4.63 c 0.05,1.54 0.56,3.06 0.24,4.66 a 4.18,4.18 0 0 1 -1,2 5.42,5.42 0 0 0 -1.64,2.79 c -1.07,6 -3.64,19.76 -3.89,21.58 -0.45,-0.07 1.47,-15.21 2.67,-22.53 a 6.76,6.76 0 0 1 1.85,-3.27 2,2 0 0 0 0.36,-0.62 5.29,5.29 0 0 0 0.23,-2.52 c -0.1,-0.78 -0.3,-1.43 -0.42,-2.19 a 12.1,12.1 0 0 1 0.64,-5.52 5.59,5.59 0 0 1 1.67,-2.5 1.46,1.46 0 0 0 0.69,-1.29 9,9 0 0 1 1,-4.93 c 0.22,-0.34 0.7,-0.62 0.66,-0.31 -0.68,6.28 0.49,5.55 -0.61,7.31 z"
         style="fill:#ffffff"
         id="path36" />
      <path
         d="m 422.6,186.69 a 1.19,1.19 0 0 0 2.35,0.36 1.19,1.19 0 0 0 -2.35,-0.36 z"
         style="fill:#ffffff"
         id="path38" />
      <g
         style="opacity:0.4"
         id="g76">
        <path
           d="M 424.86,179.69 429.65,165 a 1,1 0 0 0 -0.68,-1.21 1,1 0 0 0 -1.28,0.62 v 0 a 0.3,0.3 0 0 0 0,0.1 z"
           style="fill:#ffffff"
           id="path40" />
        <path
           d="m 419.05,181.66 -9.89,-7.57 a 1.06,1.06 0 0 0 -1.43,0.13 0.92,0.92 0 0 0 0.17,1.35 l 0.14,0.06 z"
           style="fill:#ffffff"
           id="path42" />
        <path
           d="m 418.35,187.24 h -14.3 a 1,1 0 0 0 -1,1 1,1 0 0 0 1,0.95 h 0.14 z"
           style="fill:#ffffff"
           id="path44" />
        <path
           d="M 420.45,191.56 411.59,204 a 0.92,0.92 0 0 0 0.28,1.32 v 0 a 1.05,1.05 0 0 0 1.41,-0.24 v 0 l 0.05,-0.1 z"
           style="fill:#ffffff"
           id="path46" />
        <path
           d="m 426.19,191.48 3.73,14.61 a 1,1 0 0 0 1.22,0.73 0.94,0.94 0 0 0 0.76,-1.14 0.56,0.56 0 0 0 0,-0.12 z"
           style="fill:#ffffff"
           id="path48" />
        <path
           d="m 430.69,188 11.74,7.89 a 1.06,1.06 0 0 0 1.44,-0.22 1,1 0 0 0 -0.26,-1.36 h -0.14 z"
           style="fill:#ffffff"
           id="path50" />
        <path
           d="M 430.15,182.81 444,176.86 a 0.91,0.91 0 0 0 0.16,-1.34 1.08,1.08 0 0 0 -1,-0.35 l -0.12,0.07 z"
           style="fill:#ffffff"
           id="path52" />
        <path
           d="m 428.58,178.66 5.41,-9.38 a 0.48,0.48 0 0 0 -0.2,-0.66 0.52,0.52 0 0 0 -0.69,0.19 z"
           style="fill:#ffffff"
           id="path54" />
        <path
           d="m 422.68,175.47 0.25,-8.27 a 0.51,0.51 0 0 0 -0.5,-0.51 0.49,0.49 0 0 0 -0.53,0.45 v 0.05 z"
           style="fill:#ffffff"
           id="path56" />
        <path
           d="m 418.84,178.55 -5.48,-6.25 a 0.53,0.53 0 0 0 -0.7,-0.09 v 0 a 0.46,0.46 0 0 0 -0.07,0.66 h 0.06 z"
           style="fill:#ffffff"
           id="path58" />
        <path
           d="M 414.55,185.24 408,183.35 a 0.51,0.51 0 0 0 -0.63,0.32 0.48,0.48 0 0 0 0.36,0.6 h 0.06 z"
           style="fill:#ffffff"
           id="path60" />
        <path
           d="m 417.42,189.26 -6.3,1.75 a 0.47,0.47 0 0 0 -0.33,0.59 0.52,0.52 0 0 0 0.64,0.32 v 0 z"
           style="fill:#ffffff"
           id="path62" />
        <path
           d="m 425.85,196.93 0.48,5.52 a 0.52,0.52 0 0 0 0.55,0.45 0.48,0.48 0 0 0 0.47,-0.5 v 0 a 0.14,0.14 0 0 0 0,-0.06 z"
           style="fill:#ffffff"
           id="path64" />
        <path
           d="m 431.44,191.24 3.32,4.29 a 0.54,0.54 0 0 0 0.7,0.13 v 0 a 0.46,0.46 0 0 0 0.1,-0.67 h -0.07 z"
           style="fill:#ffffff"
           id="path66" />
        <path
           d="m 428.64,192.5 2.05,5.58 a 0.54,0.54 0 0 0 0.69,0.23 0.46,0.46 0 0 0 0.28,-0.53 h -0.05 z"
           style="fill:#ffffff"
           id="path68" />
        <path
           d="m 433.17,188.08 3.54,2 a 0.53,0.53 0 0 0 0.7,-0.17 0.46,0.46 0 0 0 -0.19,-0.65 h -0.11 z"
           style="fill:#ffffff"
           id="path70" />
        <path
           d="m 433.58,183.85 6.91,-1.25 a 0.47,0.47 0 0 0 0.39,-0.56 0.51,0.51 0 0 0 -0.6,-0.38 v 0 h -0.06 z"
           style="fill:#ffffff"
           id="path72" />
        <path
           d="m 422.19,203.24 c -0.5,0.81 -1.29,1.8 -1.75,2.71 a 10.46,10.46 0 0 0 -0.7,4.63 c 0.05,1.54 0.56,3.06 0.24,4.66 a 4.18,4.18 0 0 1 -1,2 5.42,5.42 0 0 0 -1.64,2.79 c -1.07,6 -3.64,19.76 -3.89,21.58 -0.45,-0.07 1.47,-15.21 2.67,-22.53 a 6.76,6.76 0 0 1 1.85,-3.27 2,2 0 0 0 0.36,-0.62 5.29,5.29 0 0 0 0.23,-2.52 c -0.1,-0.78 -0.3,-1.43 -0.42,-2.19 a 12.1,12.1 0 0 1 0.64,-5.52 5.59,5.59 0 0 1 1.67,-2.5 1.46,1.46 0 0 0 0.69,-1.29 9,9 0 0 1 1,-4.93 c 0.22,-0.34 0.7,-0.62 0.66,-0.31 -0.68,6.28 0.49,5.55 -0.61,7.31 z"
           style="fill:#ffffff"
           id="path74" />
      </g>
    </g>
  </g>
</svg>
