<?xml version="1.0" encoding="UTF-8" standalone="no"?>
<svg
   viewBox="0 0 500 500"
   version="1.1"
   id="svg549"
   sodipodi:docname="Happy New Year-rafiki.svg"
   inkscape:version="1.2.2 (732a01da63, 2022-12-09)"
   xmlns:inkscape="http://www.inkscape.org/namespaces/inkscape"
   xmlns:sodipodi="http://sodipodi.sourceforge.net/DTD/sodipodi-0.dtd"
   xmlns="http://www.w3.org/2000/svg"
   xmlns:svg="http://www.w3.org/2000/svg">
  <defs
     id="defs553" />
  <sodipodi:namedview
     id="namedview551"
     pagecolor="#505050"
     bordercolor="#eeeeee"
     borderopacity="1"
     inkscape:showpageshadow="0"
     inkscape:pageopacity="0"
     inkscape:pagecheckerboard="0"
     inkscape:deskcolor="#505050"
     showgrid="false"
     inkscape:zoom="1.674"
     inkscape:cx="124.55197"
     inkscape:cy="261.05137"
     inkscape:window-width="1920"
     inkscape:window-height="1017"
     inkscape:window-x="-8"
     inkscape:window-y="-8"
     inkscape:window-maximized="1"
     inkscape:current-layer="svg549" />
  <g
     id="freepik--Fireworks--inject-2"
     transform="matrix(2.4991494,0,0,2.4991494,-59.373611,-200.29465)"
     inkscape:label="freepik--Fireworks--inject-2">
    <g
       id="g1117"
       transform="matrix(-1,0,0,1,514.10039,16.129032)">
      <path
         d="M 424.86,179.69 429.65,165 a 1,1 0 0 0 -0.68,-1.21 1,1 0 0 0 -1.28,0.62 v 0 a 0.3,0.3 0 0 0 0,0.1 z"
         style="fill:#ffffff"
         id="path2" />
      <path
         d="m 419.05,181.66 -9.89,-7.57 a 1.06,1.06 0 0 0 -1.43,0.13 0.92,0.92 0 0 0 0.17,1.35 l 0.14,0.06 z"
         style="fill:#ffffff"
         id="path4" />
      <path
         d="m 418.35,187.24 h -14.3 a 1,1 0 0 0 -1,1 1,1 0 0 0 1,0.95 h 0.14 z"
         style="fill:#ffffff"
         id="path6" />
      <path
         d="M 420.45,191.56 411.59,204 a 0.92,0.92 0 0 0 0.28,1.32 v 0 a 1.05,1.05 0 0 0 1.41,-0.24 v 0 l 0.05,-0.1 z"
         style="fill:#ffffff"
         id="path8" />
      <path
         d="m 426.19,191.48 3.73,14.61 a 1,1 0 0 0 1.22,0.73 0.94,0.94 0 0 0 0.76,-1.14 0.56,0.56 0 0 0 0,-0.12 z"
         style="fill:#ffffff"
         id="path10" />
      <path
         d="m 430.69,188 11.74,7.89 a 1.06,1.06 0 0 0 1.44,-0.22 1,1 0 0 0 -0.26,-1.36 h -0.14 z"
         style="fill:#ffffff"
         id="path12" />
      <path
         d="M 430.15,182.81 444,176.86 a 0.91,0.91 0 0 0 0.16,-1.34 1.08,1.08 0 0 0 -1,-0.35 l -0.12,0.07 z"
         style="fill:#ffffff"
         id="path14" />
      <path
         d="m 428.58,178.66 5.41,-9.38 a 0.48,0.48 0 0 0 -0.2,-0.66 0.52,0.52 0 0 0 -0.69,0.19 z"
         style="fill:#ffffff"
         id="path16" />
      <path
         d="m 422.68,175.47 0.25,-8.27 a 0.51,0.51 0 0 0 -0.5,-0.51 0.49,0.49 0 0 0 -0.53,0.45 v 0.05 z"
         style="fill:#ffffff"
         id="path18" />
      <path
         d="m 418.84,178.55 -5.48,-6.25 a 0.53,0.53 0 0 0 -0.7,-0.09 v 0 a 0.46,0.46 0 0 0 -0.07,0.66 h 0.06 z"
         style="fill:#ffffff"
         id="path20" />
      <path
         d="M 414.55,185.24 408,183.35 a 0.51,0.51 0 0 0 -0.63,0.32 0.48,0.48 0 0 0 0.36,0.6 h 0.06 z"
         style="fill:#ffffff"
         id="path22" />
      <path
         d="m 417.42,189.26 -6.3,1.75 a 0.47,0.47 0 0 0 -0.33,0.59 0.52,0.52 0 0 0 0.64,0.32 v 0 z"
         style="fill:#ffffff"
         id="path24" />
      <path
         d="m 425.85,196.93 0.48,5.52 a 0.52,0.52 0 0 0 0.55,0.45 0.48,0.48 0 0 0 0.47,-0.5 v 0 a 0.14,0.14 0 0 0 0,-0.06 z"
         style="fill:#ffffff"
         id="path26" />
      <path
         d="m 431.44,191.24 3.32,4.29 a 0.54,0.54 0 0 0 0.7,0.13 v 0 a 0.46,0.46 0 0 0 0.1,-0.67 h -0.07 z"
         style="fill:#ffffff"
         id="path28" />
      <path
         d="m 428.64,192.5 2.05,5.58 a 0.54,0.54 0 0 0 0.69,0.23 0.46,0.46 0 0 0 0.28,-0.53 h -0.05 z"
         style="fill:#ffffff"
         id="path30" />
      <path
         d="m 433.17,188.08 3.54,2 a 0.53,0.53 0 0 0 0.7,-0.17 0.46,0.46 0 0 0 -0.19,-0.65 h -0.11 z"
         style="fill:#ffffff"
         id="path32" />
      <path
         d="m 433.58,183.85 6.91,-1.25 a 0.47,0.47 0 0 0 0.39,-0.56 0.51,0.51 0 0 0 -0.6,-0.38 v 0 h -0.06 z"
         style="fill:#ffffff"
         id="path34" />
      <path
         d="m 422.19,203.24 c -0.5,0.81 -1.29,1.8 -1.75,2.71 a 10.46,10.46 0 0 0 -0.7,4.63 c 0.05,1.54 0.56,3.06 0.24,4.66 a 4.18,4.18 0 0 1 -1,2 5.42,5.42 0 0 0 -1.64,2.79 c -1.07,6 -3.64,19.76 -3.89,21.58 -0.45,-0.07 1.47,-15.21 2.67,-22.53 a 6.76,6.76 0 0 1 1.85,-3.27 2,2 0 0 0 0.36,-0.62 5.29,5.29 0 0 0 0.23,-2.52 c -0.1,-0.78 -0.3,-1.43 -0.42,-2.19 a 12.1,12.1 0 0 1 0.64,-5.52 5.59,5.59 0 0 1 1.67,-2.5 1.46,1.46 0 0 0 0.69,-1.29 9,9 0 0 1 1,-4.93 c 0.22,-0.34 0.7,-0.62 0.66,-0.31 -0.68,6.28 0.49,5.55 -0.61,7.31 z"
         style="fill:#ffffff"
         id="path36" />
      <path
         d="m 422.6,186.69 a 1.19,1.19 0 0 0 2.35,0.36 1.19,1.19 0 0 0 -2.35,-0.36 z"
         style="fill:#ffffff"
         id="path38" />
      <g
         style="opacity:0.4"
         id="g76">
        <path
           d="M 424.86,179.69 429.65,165 a 1,1 0 0 0 -0.68,-1.21 1,1 0 0 0 -1.28,0.62 v 0 a 0.3,0.3 0 0 0 0,0.1 z"
           style="fill:#ffffff"
           id="path40" />
        <path
           d="m 419.05,181.66 -9.89,-7.57 a 1.06,1.06 0 0 0 -1.43,0.13 0.92,0.92 0 0 0 0.17,1.35 l 0.14,0.06 z"
           style="fill:#ffffff"
           id="path42" />
        <path
           d="m 418.35,187.24 h -14.3 a 1,1 0 0 0 -1,1 1,1 0 0 0 1,0.95 h 0.14 z"
           style="fill:#ffffff"
           id="path44" />
        <path
           d="M 420.45,191.56 411.59,204 a 0.92,0.92 0 0 0 0.28,1.32 v 0 a 1.05,1.05 0 0 0 1.41,-0.24 v 0 l 0.05,-0.1 z"
           style="fill:#ffffff"
           id="path46" />
        <path
           d="m 426.19,191.48 3.73,14.61 a 1,1 0 0 0 1.22,0.73 0.94,0.94 0 0 0 0.76,-1.14 0.56,0.56 0 0 0 0,-0.12 z"
           style="fill:#ffffff"
           id="path48" />
        <path
           d="m 430.69,188 11.74,7.89 a 1.06,1.06 0 0 0 1.44,-0.22 1,1 0 0 0 -0.26,-1.36 h -0.14 z"
           style="fill:#ffffff"
           id="path50" />
        <path
           d="M 430.15,182.81 444,176.86 a 0.91,0.91 0 0 0 0.16,-1.34 1.08,1.08 0 0 0 -1,-0.35 l -0.12,0.07 z"
           style="fill:#ffffff"
           id="path52" />
        <path
           d="m 428.58,178.66 5.41,-9.38 a 0.48,0.48 0 0 0 -0.2,-0.66 0.52,0.52 0 0 0 -0.69,0.19 z"
           style="fill:#ffffff"
           id="path54" />
        <path
           d="m 422.68,175.47 0.25,-8.27 a 0.51,0.51 0 0 0 -0.5,-0.51 0.49,0.49 0 0 0 -0.53,0.45 v 0.05 z"
           style="fill:#ffffff"
           id="path56" />
        <path
           d="m 418.84,178.55 -5.48,-6.25 a 0.53,0.53 0 0 0 -0.7,-0.09 v 0 a 0.46,0.46 0 0 0 -0.07,0.66 h 0.06 z"
           style="fill:#ffffff"
           id="path58" />
        <path
           d="M 414.55,185.24 408,183.35 a 0.51,0.51 0 0 0 -0.63,0.32 0.48,0.48 0 0 0 0.36,0.6 h 0.06 z"
           style="fill:#ffffff"
           id="path60" />
        <path
           d="m 417.42,189.26 -6.3,1.75 a 0.47,0.47 0 0 0 -0.33,0.59 0.52,0.52 0 0 0 0.64,0.32 v 0 z"
           style="fill:#ffffff"
           id="path62" />
        <path
           d="m 425.85,196.93 0.48,5.52 a 0.52,0.52 0 0 0 0.55,0.45 0.48,0.48 0 0 0 0.47,-0.5 v 0 a 0.14,0.14 0 0 0 0,-0.06 z"
           style="fill:#ffffff"
           id="path64" />
        <path
           d="m 431.44,191.24 3.32,4.29 a 0.54,0.54 0 0 0 0.7,0.13 v 0 a 0.46,0.46 0 0 0 0.1,-0.67 h -0.07 z"
           style="fill:#ffffff"
           id="path66" />
        <path
           d="m 428.64,192.5 2.05,5.58 a 0.54,0.54 0 0 0 0.69,0.23 0.46,0.46 0 0 0 0.28,-0.53 h -0.05 z"
           style="fill:#ffffff"
           id="path68" />
        <path
           d="m 433.17,188.08 3.54,2 a 0.53,0.53 0 0 0 0.7,-0.17 0.46,0.46 0 0 0 -0.19,-0.65 h -0.11 z"
           style="fill:#ffffff"
           id="path70" />
        <path
           d="m 433.58,183.85 6.91,-1.25 a 0.47,0.47 0 0 0 0.39,-0.56 0.51,0.51 0 0 0 -0.6,-0.38 v 0 h -0.06 z"
           style="fill:#ffffff"
           id="path72" />
        <path
           d="m 422.19,203.24 c -0.5,0.81 -1.29,1.8 -1.75,2.71 a 10.46,10.46 0 0 0 -0.7,4.63 c 0.05,1.54 0.56,3.06 0.24,4.66 a 4.18,4.18 0 0 1 -1,2 5.42,5.42 0 0 0 -1.64,2.79 c -1.07,6 -3.64,19.76 -3.89,21.58 -0.45,-0.07 1.47,-15.21 2.67,-22.53 a 6.76,6.76 0 0 1 1.85,-3.27 2,2 0 0 0 0.36,-0.62 5.29,5.29 0 0 0 0.23,-2.52 c -0.1,-0.78 -0.3,-1.43 -0.42,-2.19 a 12.1,12.1 0 0 1 0.64,-5.52 5.59,5.59 0 0 1 1.67,-2.5 1.46,1.46 0 0 0 0.69,-1.29 9,9 0 0 1 1,-4.93 c 0.22,-0.34 0.7,-0.62 0.66,-0.31 -0.68,6.28 0.49,5.55 -0.61,7.31 z"
           style="fill:#ffffff"
           id="path74" />
      </g>
    </g>
    <g
       id="g1077"
       transform="translate(-154.12187,133.21385)">
      <path
         d="m 293.88,89 2.76,-14.66 a 0.93,0.93 0 1 1 1.82,0.34 v 0 a 0.41,0.41 0 0 1 0,0.11 z"
         style="fill:#ffffff"
         id="path78" />
      <path
         d="M 297.61,93.19 308.82,91 a 0.92176461,0.92176461 0 1 1 0.35,1.81 H 309 Z"
         style="fill:#ffffff"
         id="path80" />
      <path
         d="m 295.69,98.26 11.33,6.2 a 0.93,0.93 0 0 1 0.36,1.25 0.91,0.91 0 0 1 -1.25,0.36 A 0.26,0.26 0 0 1 306,106 Z"
         style="fill:#ffffff"
         id="path82" />
      <path
         d="m 292.09,101 1.47,14.5 a 0.91,0.91 0 0 1 -0.81,1 v 0 a 0.92,0.92 0 0 1 -1,-0.81 v -0.13 z"
         style="fill:#ffffff"
         id="path84" />
      <path
         d="m 287.58,98.48 -9.46,10.86 a 0.91,0.91 0 0 1 -1.29,0.1 0.92,0.92 0 0 1 -0.1,-1.3 0.6,0.6 0 0 1 0.08,-0.08 z"
         style="fill:#ffffff"
         id="path86" />
      <path
         d="m 285.55,93.57 -12.81,1.65 a 0.93275131,0.93275131 0 1 1 -0.24,-1.85 h 0.13 z"
         style="fill:#ffffff"
         id="path88" />
      <path
         d="M 288.29,89.36 280,78.27 a 0.91,0.91 0 0 1 0.47,-1.21 0.93,0.93 0 0 1 1,0.14 l 0.07,0.11 z"
         style="fill:#ffffff"
         id="path90" />
      <path
         d="m 291.39,86.49 -0.11,-10.36 a 0.45,0.45 0 0 1 0.45,-0.46 0.47,0.47 0 0 1 0.47,0.45 z"
         style="fill:#ffffff"
         id="path92" />
      <path
         d="M 297.49,86.33 301,79.16 a 0.46,0.46 0 0 1 0.83,0.39 v 0.06 z"
         style="fill:#ffffff"
         id="path94" />
      <path
         d="m 299.16,90.62 7.13,-3 a 0.44,0.44 0 0 1 0.59,0.23 v 0 a 0.45,0.45 0 0 1 -0.24,0.59 v 0 z"
         style="fill:#ffffff"
         id="path96" />
      <path
         d="m 299.58,98.19 6.07,1.25 a 0.46481179,0.46481179 0 0 1 -0.19,0.91 h -0.06 z"
         style="fill:#ffffff"
         id="path98" />
      <path
         d="m 295.52,100.39 4.22,4.22 a 0.48,0.48 0 0 1 0,0.65 0.46,0.46 0 0 1 -0.65,0 v 0 z"
         style="fill:#ffffff"
         id="path100" />
      <path
         d="m 285.42,103.28 -2.83,4.51 a 0.48,0.48 0 0 1 -0.64,0.15 0.46,0.46 0 0 1 -0.15,-0.63 v 0 c 0,0 0,0 0,-0.06 z"
         style="fill:#ffffff"
         id="path102" />
      <path
         d="M 283.52,96 279,98.22 a 0.45,0.45 0 0 1 -0.61,-0.18 v 0 a 0.47,0.47 0 0 1 0.22,-0.62 h 0.07 z"
         style="fill:#ffffff"
         id="path104" />
      <path
         d="m 285.19,98.29 -4.12,3.88 a 0.47,0.47 0 0 1 -0.63,-0.68 h 0.05 z"
         style="fill:#ffffff"
         id="path106" />
      <path
         d="m 283.55,92.55 -3.69,0.18 a 0.47,0.47 0 0 1 0,-0.93 h 0.11 z"
         style="fill:#ffffff"
         id="path108" />
      <path
         d="m 285.12,88.77 -4.93,-4.07 a 0.4615734,0.4615734 0 1 1 0.59,-0.71 h 0.06 z"
         style="fill:#ffffff"
         id="path110" />
      <g
         style="opacity:0.4"
         id="g146">
        <path
           d="m 293.88,89 2.76,-14.66 a 0.93,0.93 0 1 1 1.82,0.34 v 0 a 0.41,0.41 0 0 1 0,0.11 z"
           style="fill:#ffffff"
           id="path112" />
        <path
           d="M 297.61,93.19 308.82,91 a 0.92176461,0.92176461 0 1 1 0.35,1.81 H 309 Z"
           style="fill:#ffffff"
           id="path114" />
        <path
           d="m 295.69,98.26 11.33,6.2 a 0.93,0.93 0 0 1 0.36,1.25 0.91,0.91 0 0 1 -1.25,0.36 A 0.26,0.26 0 0 1 306,106 Z"
           style="fill:#ffffff"
           id="path116" />
        <path
           d="m 292.09,101 1.47,14.5 a 0.91,0.91 0 0 1 -0.81,1 v 0 a 0.92,0.92 0 0 1 -1,-0.81 v -0.13 z"
           style="fill:#ffffff"
           id="path118" />
        <path
           d="m 287.58,98.48 -9.46,10.86 a 0.91,0.91 0 0 1 -1.29,0.1 0.92,0.92 0 0 1 -0.1,-1.3 0.6,0.6 0 0 1 0.08,-0.08 z"
           style="fill:#ffffff"
           id="path120" />
        <path
           d="m 285.55,93.57 -12.81,1.65 a 0.93275131,0.93275131 0 1 1 -0.24,-1.85 h 0.13 z"
           style="fill:#ffffff"
           id="path122" />
        <path
           d="M 288.29,89.36 280,78.27 a 0.91,0.91 0 0 1 0.47,-1.21 0.93,0.93 0 0 1 1,0.14 l 0.07,0.11 z"
           style="fill:#ffffff"
           id="path124" />
        <path
           d="m 291.39,86.49 -0.11,-10.36 a 0.45,0.45 0 0 1 0.45,-0.46 0.47,0.47 0 0 1 0.47,0.45 z"
           style="fill:#ffffff"
           id="path126" />
        <path
           d="M 297.49,86.33 301,79.16 a 0.46,0.46 0 0 1 0.83,0.39 v 0.06 z"
           style="fill:#ffffff"
           id="path128" />
        <path
           d="m 299.16,90.62 7.13,-3 a 0.44,0.44 0 0 1 0.59,0.23 v 0 a 0.45,0.45 0 0 1 -0.24,0.59 v 0 z"
           style="fill:#ffffff"
           id="path130" />
        <path
           d="m 299.58,98.19 6.07,1.25 a 0.46481179,0.46481179 0 0 1 -0.19,0.91 h -0.06 z"
           style="fill:#ffffff"
           id="path132" />
        <path
           d="m 295.52,100.39 4.22,4.22 a 0.48,0.48 0 0 1 0,0.65 0.46,0.46 0 0 1 -0.65,0 v 0 z"
           style="fill:#ffffff"
           id="path134" />
        <path
           d="m 285.42,103.28 -2.83,4.51 a 0.48,0.48 0 0 1 -0.64,0.15 0.46,0.46 0 0 1 -0.15,-0.63 v 0 c 0,0 0,0 0,-0.06 z"
           style="fill:#ffffff"
           id="path136" />
        <path
           d="M 283.52,96 279,98.22 a 0.45,0.45 0 0 1 -0.61,-0.18 v 0 a 0.47,0.47 0 0 1 0.22,-0.62 h 0.07 z"
           style="fill:#ffffff"
           id="path138" />
        <path
           d="m 285.19,98.29 -4.12,3.88 a 0.47,0.47 0 0 1 -0.63,-0.68 h 0.05 z"
           style="fill:#ffffff"
           id="path140" />
        <path
           d="m 283.55,92.55 -3.69,0.18 a 0.47,0.47 0 0 1 0,-0.93 h 0.11 z"
           style="fill:#ffffff"
           id="path142" />
        <path
           d="m 285.12,88.77 -4.93,-4.07 a 0.4615734,0.4615734 0 1 1 0.59,-0.71 h 0.06 z"
           style="fill:#ffffff"
           id="path144" />
      </g>
      <path
         d="m 287.12,111.13 c -0.54,0.72 -1.37,1.6 -1.88,2.43 a 10.75,10.75 0 0 0 -1.17,4.36 c -0.14,1.48 0.13,3 -0.33,4.47 a 4.24,4.24 0 0 1 -1.17,1.84 5.58,5.58 0 0 0 -1.79,2.53 c -1.66,5.65 -5.57,18.55 -6,20.27 -0.39,-0.11 3.1,-14.4 5,-21.3 a 6.86,6.86 0 0 1 2,-3 2.38,2.38 0 0 0 0.4,-0.56 5.55,5.55 0 0 0 0.5,-2.39 c 0,-0.75 -0.1,-1.39 -0.11,-2.13 a 12.23,12.23 0 0 1 1.22,-5.22 5.54,5.54 0 0 1 1.78,-2.24 1.5,1.5 0 0 0 0.77,-1.18 9.17,9.17 0 0 1 1.49,-4.61 c 0.23,-0.31 0.69,-0.53 0.63,-0.24 -1.28,5.98 -0.16,5.38 -1.34,6.97 z"
         style="fill:#ffffff"
         id="path148" />
      <g
         style="opacity:0.4"
         id="g152">
        <path
           d="m 287.12,111.13 c -0.54,0.72 -1.37,1.6 -1.88,2.43 a 10.75,10.75 0 0 0 -1.17,4.36 c -0.14,1.48 0.13,3 -0.33,4.47 a 4.24,4.24 0 0 1 -1.17,1.84 5.58,5.58 0 0 0 -1.79,2.53 c -1.66,5.65 -5.57,18.55 -6,20.27 -0.39,-0.11 3.1,-14.4 5,-21.3 a 6.86,6.86 0 0 1 2,-3 2.38,2.38 0 0 0 0.4,-0.56 5.55,5.55 0 0 0 0.5,-2.39 c 0,-0.75 -0.1,-1.39 -0.11,-2.13 a 12.23,12.23 0 0 1 1.22,-5.22 5.54,5.54 0 0 1 1.78,-2.24 1.5,1.5 0 0 0 0.77,-1.18 9.17,9.17 0 0 1 1.49,-4.61 c 0.23,-0.31 0.69,-0.53 0.63,-0.24 -1.28,5.98 -0.16,5.38 -1.34,6.97 z"
           style="fill:#ffffff"
           id="path150" />
      </g>
      <path
         d="M 292.56,96 A 1.08,1.08 0 1 1 291.9,94.63 1.07,1.07 0 0 1 292.56,96 Z"
         style="fill:#ffffff"
         id="path154" />
    </g>
    <g
       id="g1036">
      <path
         d="M 83.79,107.84 81.26,92.55 a 1,1 0 0 1 0.86,-1.09 1,1 0 0 1 1.17,0.8 v 0 0.11 z"
         style="fill:#ffffff"
         id="path156" />
      <path
         d="m 89.24,110.66 10.91,-6 a 1.07,1.07 0 0 1 1.4,0.35 0.91,0.91 0 0 1 -0.36,1.3 h -0.16 z"
         style="fill:#ffffff"
         id="path158" />
      <path
         d="m 89.1,116.27 14.14,2.15 a 1,1 0 0 1 0.84,1.1 1,1 0 0 1 -1.18,0.79 h -0.13 z"
         style="fill:#ffffff"
         id="path160" />
      <path
         d="m 80.72,119.29 -5.88,13.89 a 1,1 0 0 1 -1.32,0.54 0.94,0.94 0 0 1 -0.57,-1.24 0.54,0.54 0 0 1 0,-0.11 z"
         style="fill:#ffffff"
         id="path162" />
      <path
         d="m 76.78,115.19 -12.78,6 a 1.07,1.07 0 0 1 -1.39,-0.44 0.94,0.94 0 0 1 0.46,-1.3 h 0.14 z"
         style="fill:#ffffff"
         id="path164" />
      <path
         d="m 78.09,110.13 -12.81,-8 a 0.91,0.91 0 0 1 0,-1.34 1.07,1.07 0 0 1 1.06,-0.2 l 0.11,0.08 z"
         style="fill:#ffffff"
         id="path166" />
      <path
         d="m 80.27,106.26 -4,-10.09 a 0.47,0.47 0 0 1 0.31,-0.61 0.52,0.52 0 0 1 0.65,0.28 z"
         style="fill:#ffffff"
         id="path168" />
      <path
         d="m 86.58,104 1,-8.22 a 0.5,0.5 0 0 1 0.56,-0.42 0.49,0.49 0 0 1 0.46,0.52 v 0.06 z"
         style="fill:#ffffff"
         id="path170" />
      <path
         d="m 89.92,107.61 6.36,-5.36 a 0.51,0.51 0 0 1 0.7,0 v 0 a 0.46,0.46 0 0 1 0,0.67 h -0.06 z"
         style="fill:#ffffff"
         id="path172" />
      <path
         d="M 93.15,114.86 100,114 a 0.5,0.5 0 0 1 0.57,0.41 0.49,0.49 0 0 1 -0.44,0.54 H 100 Z"
         style="fill:#ffffff"
         id="path174" />
      <path
         d="m 89.72,118.41 6,2.67 a 0.47,0.47 0 0 1 0.24,0.64 0.52,0.52 0 0 1 -0.67,0.22 v 0 z"
         style="fill:#ffffff"
         id="path176" />
      <path
         d="m 80.23,124.73 -1.3,5.39 a 0.53,0.53 0 0 1 -0.61,0.37 0.48,0.48 0 0 1 -0.38,-0.57 v 0 c 0,0 0,0 0,-0.06 z"
         style="fill:#ffffff"
         id="path178" />
      <path
         d="M 75.56,118.27 71.63,122 a 0.51,0.51 0 0 1 -0.7,0 v 0 a 0.46,0.46 0 0 1 0,-0.68 H 71 Z"
         style="fill:#ffffff"
         id="path180" />
      <path
         d="m 78.14,119.94 -2.86,5.21 a 0.54,0.54 0 0 1 -0.72,0.12 0.46,0.46 0 0 1 -0.2,-0.56 h 0.06 z"
         style="fill:#ffffff"
         id="path182" />
      <path
         d="m 74.32,114.89 -3.8,1.44 a 0.52,0.52 0 0 1 -0.66,-0.26 0.46,0.46 0 0 1 0.28,-0.62 0.27,0.27 0 0 1 0.12,0 z"
         style="fill:#ffffff"
         id="path184" />
      <path
         d="m 74.55,110.65 -6.65,-2.27 a 0.49,0.49 0 0 1 -0.3,-0.62 0.52,0.52 0 0 1 0.65,-0.28 v 0 h 0.06 z"
         style="fill:#ffffff"
         id="path186" />
      <g
         style="opacity:0.4"
         id="g222">
        <path
           d="M 83.79,107.84 81.26,92.55 a 1,1 0 0 1 0.86,-1.09 1,1 0 0 1 1.17,0.8 v 0 0.11 z"
           style="fill:#ffffff"
           id="path188" />
        <path
           d="m 89.24,110.66 10.91,-6 a 1.07,1.07 0 0 1 1.4,0.35 0.91,0.91 0 0 1 -0.36,1.3 h -0.16 z"
           style="fill:#ffffff"
           id="path190" />
        <path
           d="m 89.1,116.27 14.14,2.15 a 1,1 0 0 1 0.84,1.1 1,1 0 0 1 -1.18,0.79 h -0.13 z"
           style="fill:#ffffff"
           id="path192" />
        <path
           d="m 80.72,119.29 -5.88,13.89 a 1,1 0 0 1 -1.32,0.54 0.94,0.94 0 0 1 -0.57,-1.24 0.54,0.54 0 0 1 0,-0.11 z"
           style="fill:#ffffff"
           id="path194" />
        <path
           d="m 76.78,115.19 -12.78,6 a 1.07,1.07 0 0 1 -1.39,-0.44 0.94,0.94 0 0 1 0.46,-1.3 h 0.14 z"
           style="fill:#ffffff"
           id="path196" />
        <path
           d="m 78.09,110.13 -12.81,-8 a 0.91,0.91 0 0 1 0,-1.34 1.07,1.07 0 0 1 1.06,-0.2 l 0.11,0.08 z"
           style="fill:#ffffff"
           id="path198" />
        <path
           d="m 80.27,106.26 -4,-10.09 a 0.47,0.47 0 0 1 0.31,-0.61 0.52,0.52 0 0 1 0.65,0.28 z"
           style="fill:#ffffff"
           id="path200" />
        <path
           d="m 86.58,104 1,-8.22 a 0.5,0.5 0 0 1 0.56,-0.42 0.49,0.49 0 0 1 0.46,0.52 v 0.06 z"
           style="fill:#ffffff"
           id="path202" />
        <path
           d="m 89.92,107.61 6.36,-5.36 a 0.51,0.51 0 0 1 0.7,0 v 0 a 0.46,0.46 0 0 1 0,0.67 h -0.06 z"
           style="fill:#ffffff"
           id="path204" />
        <path
           d="M 93.15,114.86 100,114 a 0.5,0.5 0 0 1 0.57,0.41 0.49,0.49 0 0 1 -0.44,0.54 H 100 Z"
           style="fill:#ffffff"
           id="path206" />
        <path
           d="m 89.72,118.41 6,2.67 a 0.47,0.47 0 0 1 0.24,0.64 0.52,0.52 0 0 1 -0.67,0.22 v 0 z"
           style="fill:#ffffff"
           id="path208" />
        <path
           d="m 80.23,124.73 -1.3,5.39 a 0.53,0.53 0 0 1 -0.61,0.37 0.48,0.48 0 0 1 -0.38,-0.57 v 0 c 0,0 0,0 0,-0.06 z"
           style="fill:#ffffff"
           id="path210" />
        <path
           d="M 75.56,118.27 71.63,122 a 0.51,0.51 0 0 1 -0.7,0 v 0 a 0.46,0.46 0 0 1 0,-0.68 H 71 Z"
           style="fill:#ffffff"
           id="path212" />
        <path
           d="m 78.14,119.94 -2.86,5.21 a 0.54,0.54 0 0 1 -0.72,0.12 0.46,0.46 0 0 1 -0.2,-0.56 h 0.06 z"
           style="fill:#ffffff"
           id="path214" />
        <path
           d="m 74.32,114.89 -3.8,1.44 a 0.52,0.52 0 0 1 -0.66,-0.26 0.46,0.46 0 0 1 0.28,-0.62 0.27,0.27 0 0 1 0.12,0 z"
           style="fill:#ffffff"
           id="path216" />
        <path
           d="m 74.55,110.65 -6.65,-2.27 a 0.49,0.49 0 0 1 -0.3,-0.62 0.52,0.52 0 0 1 0.65,-0.28 v 0 h 0.06 z"
           style="fill:#ffffff"
           id="path218" />
        <ellipse
           cx="83.790001"
           cy="115.1"
           rx="1.1900001"
           ry="1.11"
           style="fill:#ffffff"
           id="ellipse220" />
      </g>
      <ellipse
         cx="83.790001"
         cy="115.1"
         rx="1.1900001"
         ry="1.11"
         style="fill:#ffffff"
         id="ellipse224" />
      <path
         d="m 101,180.43 c 0,0 0,-0.61 -0.06,-1.68 0,-0.54 -0.05,-1.19 -0.08,-1.94 -0.03,-0.75 -0.12,-1.61 -0.18,-2.54 a 109.91,109.91 0 0 0 -2,-13.9 111.47,111.47 0 0 0 -4.25,-14.75 c -1.58,-4.33 -3.11,-7.77 -3.86,-9.45 -1.43,-3.39 -2.8,-6.43 -3.65,-8.72 -0.85,-2.29 -1.29,-3.8 -0.86,-4 0.43,-0.2 1.56,0.84 3.06,2.85 a 47,47 0 0 1 4.7,8.52 83.12,83.12 0 0 1 3.46,9.94 105.59,105.59 0 0 1 3.15,15.37 104.9,104.9 0 0 1 0.84,14.17 c 0,0.94 0,1.8 0,2.55 0,0.75 -0.07,1.41 -0.1,1.95 -0.17,1.02 -0.17,1.63 -0.17,1.63 z"
         style="fill:#ffffff"
         id="path226" />
      <g
         style="opacity:0.4"
         id="g230">
        <path
           d="m 101,180.43 c 0,0 0,-0.61 -0.06,-1.68 0,-0.54 -0.05,-1.19 -0.08,-1.94 -0.03,-0.75 -0.12,-1.61 -0.18,-2.54 a 109.91,109.91 0 0 0 -2,-13.9 111.47,111.47 0 0 0 -4.25,-14.75 c -1.58,-4.33 -3.11,-7.77 -3.86,-9.45 -1.43,-3.39 -2.8,-6.43 -3.65,-8.72 -0.85,-2.29 -1.29,-3.8 -0.86,-4 0.43,-0.2 1.56,0.84 3.06,2.85 a 47,47 0 0 1 4.7,8.52 83.12,83.12 0 0 1 3.46,9.94 105.59,105.59 0 0 1 3.15,15.37 104.9,104.9 0 0 1 0.84,14.17 c 0,0.94 0,1.8 0,2.55 0,0.75 -0.07,1.41 -0.1,1.95 -0.17,1.02 -0.17,1.63 -0.17,1.63 z"
           style="fill:#ffffff"
           id="path228" />
      </g>
    </g>
    <g
       id="g996">
      <path
         d="m 113.07,133.3 0.52,-1.1 0.59,-1.26 c 0.25,-0.49 0.52,-1 0.83,-1.64 a 77.74,77.74 0 0 1 5.24,-8.65 79.69,79.69 0 0 1 7,-8.6 c 2.26,-2.44 4.24,-4.29 5.2,-5.2 1.9,-1.85 3.66,-3.48 4.87,-4.76 1.21,-1.28 1.91,-2.16 1.7,-2.45 -0.21,-0.29 -1.27,0.12 -2.83,1 a 33.22,33.22 0 0 0 -5.5,4.34 60.28,60.28 0 0 0 -5.08,5.63 75.3,75.3 0 0 0 -10.91,18.49 c -0.25,0.63 -0.48,1.2 -0.69,1.7 -0.21,0.5 -0.34,1 -0.48,1.32 z"
         style="fill:#ffffff"
         id="path232" />
      <g
         style="opacity:0.4"
         id="g236">
        <path
           d="m 113.07,133.3 0.52,-1.1 0.59,-1.26 c 0.25,-0.49 0.52,-1 0.83,-1.64 a 77.74,77.74 0 0 1 5.24,-8.65 79.69,79.69 0 0 1 7,-8.6 c 2.26,-2.44 4.24,-4.29 5.2,-5.2 1.9,-1.85 3.66,-3.48 4.87,-4.76 1.21,-1.28 1.91,-2.16 1.7,-2.45 -0.21,-0.29 -1.27,0.12 -2.83,1 a 33.22,33.22 0 0 0 -5.5,4.34 60.28,60.28 0 0 0 -5.08,5.63 75.3,75.3 0 0 0 -10.91,18.49 c -0.25,0.63 -0.48,1.2 -0.69,1.7 -0.21,0.5 -0.34,1 -0.48,1.32 z"
           style="fill:#ffffff"
           id="path234" />
      </g>
      <path
         d="m 150.2,96.87 12.57,-4.1 a 0.82,0.82 0 0 1 1,0.58 0.87,0.87 0 0 1 -0.52,1.09 v 0 h -0.09 z"
         style="fill:#ffffff"
         id="path238" />
      <path
         d="m 148.53,101.83 6.46,8.43 a 0.9,0.9 0 0 1 -0.11,1.22 0.78,0.78 0 0 1 -1.15,-0.14 v -0.13 z"
         style="fill:#ffffff"
         id="path240" />
      <path
         d="m 143.77,102.43 v 12.2 a 0.83,0.83 0 0 1 -0.82,0.85 0.87,0.87 0 0 1 -0.82,-0.89 c 0,0 0,-0.08 0,-0.12 z"
         style="fill:#ffffff"
         id="path242" />
      <path
         d="m 140.15,95.75 -12.47,-3.17 a 0.89,0.89 0 0 1 -0.62,-1 0.8,0.8 0 0 1 1,-0.64 h 0.1 z"
         style="fill:#ffffff"
         id="path244" />
      <path
         d="m 143.1,91.9 -6.74,-10 a 0.91,0.91 0 0 1 0.19,-1.23 0.79,0.79 0 0 1 1.15,0.22 l 0.05,0.11 z"
         style="fill:#ffffff"
         id="path246" />
      <path
         d="m 147.53,92.36 5.08,-11.83 a 0.78,0.78 0 0 1 1.14,-0.13 0.91,0.91 0 0 1 0.29,0.87 v 0.1 z"
         style="fill:#ffffff"
         id="path248" />
      <path
         d="m 151.08,93.69 8,-4.62 a 0.41,0.41 0 0 1 0.56,0.18 0.45,0.45 0 0 1 -0.16,0.59 z"
         style="fill:#ffffff"
         id="path250" />
      <path
         d="m 153.81,98.73 7.05,-0.22 a 0.44,0.44 0 0 1 0.44,0.42 0.42,0.42 0 0 1 -0.39,0.45 v 0 z"
         style="fill:#ffffff"
         id="path252" />
      <path
         d="m 151.18,102 5.34,4.67 a 0.44,0.44 0 0 1 0.07,0.6 v 0 a 0.38,0.38 0 0 1 -0.56,0.06 v 0 z"
         style="fill:#ffffff"
         id="path254" />
      <path
         d="m 145.48,105.67 1.61,5.62 a 0.43,0.43 0 0 1 -0.27,0.54 0.42,0.42 0 0 1 -0.51,-0.3 v -0.06 z"
         style="fill:#ffffff"
         id="path256" />
      <path
         d="m 142.05,103.23 -1.49,5.37 a 0.39,0.39 0 0 1 -0.5,0.28 0.44,0.44 0 0 1 -0.28,-0.54 v 0 z"
         style="fill:#ffffff"
         id="path258" />
      <path
         d="m 135.5,96 -4.71,-0.41 a 0.44,0.44 0 0 1 -0.39,-0.46 0.4,0.4 0 0 1 0.43,-0.4 v 0 h 0.06 z"
         style="fill:#ffffff"
         id="path260" />
      <path
         d="m 140.35,91.27 -3.66,-2.84 a 0.43,0.43 0 0 1 -0.12,-0.58 v 0 a 0.4,0.4 0 0 1 0.57,-0.09 v 0.06 z"
         style="fill:#ffffff"
         id="path262" />
      <path
         d="m 139.27,93.66 -4.76,-1.75 a 0.48,0.48 0 0 1 -0.2,-0.59 0.41,0.41 0 0 1 0.46,-0.24 v 0 z"
         style="fill:#ffffff"
         id="path264" />
      <path
         d="m 143,89.78 -1.71,-3 a 0.46,0.46 0 0 1 0.14,-0.6 0.39,0.39 0 0 1 0.56,0.16 0.3,0.3 0 0 1 0,0.1 z"
         style="fill:#ffffff"
         id="path266" />
      <path
         d="m 146.65,89.44 1.06,-5.9 a 0.42,0.42 0 0 1 0.48,-0.34 0.45,0.45 0 0 1 0.32,0.52 v 0 0 z"
         style="fill:#ffffff"
         id="path268" />
      <g
         style="opacity:0.4"
         id="g304">
        <path
           d="m 150.2,96.87 12.57,-4.1 a 0.82,0.82 0 0 1 1,0.58 0.87,0.87 0 0 1 -0.52,1.09 v 0 h -0.09 z"
           style="fill:#ffffff"
           id="path270" />
        <path
           d="m 148.53,101.83 6.46,8.43 a 0.9,0.9 0 0 1 -0.11,1.22 0.78,0.78 0 0 1 -1.15,-0.14 v -0.13 z"
           style="fill:#ffffff"
           id="path272" />
        <path
           d="m 143.77,102.43 v 12.2 a 0.83,0.83 0 0 1 -0.82,0.85 0.87,0.87 0 0 1 -0.82,-0.89 c 0,0 0,-0.08 0,-0.12 z"
           style="fill:#ffffff"
           id="path274" />
        <path
           d="m 140.15,95.75 -12.47,-3.17 a 0.89,0.89 0 0 1 -0.62,-1 0.8,0.8 0 0 1 1,-0.64 h 0.1 z"
           style="fill:#ffffff"
           id="path276" />
        <path
           d="m 143.1,91.9 -6.74,-10 a 0.91,0.91 0 0 1 0.19,-1.23 0.79,0.79 0 0 1 1.15,0.22 l 0.05,0.11 z"
           style="fill:#ffffff"
           id="path278" />
        <path
           d="m 147.53,92.36 5.08,-11.83 a 0.78,0.78 0 0 1 1.14,-0.13 0.91,0.91 0 0 1 0.29,0.87 v 0.1 z"
           style="fill:#ffffff"
           id="path280" />
        <path
           d="m 151.08,93.69 8,-4.62 a 0.41,0.41 0 0 1 0.56,0.18 0.45,0.45 0 0 1 -0.16,0.59 z"
           style="fill:#ffffff"
           id="path282" />
        <path
           d="m 153.81,98.73 7.05,-0.22 a 0.44,0.44 0 0 1 0.44,0.42 0.42,0.42 0 0 1 -0.39,0.45 v 0 z"
           style="fill:#ffffff"
           id="path284" />
        <path
           d="m 151.18,102 5.34,4.67 a 0.44,0.44 0 0 1 0.07,0.6 v 0 a 0.38,0.38 0 0 1 -0.56,0.06 v 0 z"
           style="fill:#ffffff"
           id="path286" />
        <path
           d="m 145.48,105.67 1.61,5.62 a 0.43,0.43 0 0 1 -0.27,0.54 0.42,0.42 0 0 1 -0.51,-0.3 v -0.06 z"
           style="fill:#ffffff"
           id="path288" />
        <path
           d="m 142.05,103.23 -1.49,5.37 a 0.39,0.39 0 0 1 -0.5,0.28 0.44,0.44 0 0 1 -0.28,-0.54 v 0 z"
           style="fill:#ffffff"
           id="path290" />
        <path
           d="m 135.5,96 -4.71,-0.41 a 0.44,0.44 0 0 1 -0.39,-0.46 0.4,0.4 0 0 1 0.43,-0.4 v 0 h 0.06 z"
           style="fill:#ffffff"
           id="path292" />
        <path
           d="m 140.35,91.27 -3.66,-2.84 a 0.43,0.43 0 0 1 -0.12,-0.58 v 0 a 0.4,0.4 0 0 1 0.57,-0.09 v 0.06 z"
           style="fill:#ffffff"
           id="path294" />
        <path
           d="m 139.27,93.66 -4.76,-1.75 a 0.48,0.48 0 0 1 -0.2,-0.59 0.41,0.41 0 0 1 0.46,-0.24 v 0 z"
           style="fill:#ffffff"
           id="path296" />
        <path
           d="m 143,89.78 -1.71,-3 a 0.46,0.46 0 0 1 0.14,-0.6 0.39,0.39 0 0 1 0.56,0.16 0.3,0.3 0 0 1 0,0.1 z"
           style="fill:#ffffff"
           id="path298" />
        <path
           d="m 146.65,89.44 1.06,-5.9 a 0.42,0.42 0 0 1 0.48,-0.34 0.45,0.45 0 0 1 0.32,0.52 v 0 0 z"
           style="fill:#ffffff"
           id="path300" />
        <path
           d="m 144.23,98.81 a 1.0111874,1.0111874 0 0 1 -0.3,-2 1,1 0 0 1 1.09,0.86 1,1 0 0 1 -0.79,1.14 z"
           style="fill:#ffffff"
           id="path302" />
      </g>
      <path
         d="m 144.23,98.81 a 1.0111874,1.0111874 0 0 1 -0.3,-2 1,1 0 0 1 1.09,0.86 1,1 0 0 1 -0.79,1.14 z"
         style="fill:#ffffff"
         id="path306" />
    </g>
    <g
       id="g956"
       inkscape:label="g956"
       transform="translate(-244.32497,55.555555)">
      <path
         d="M 398.87,94.25 399,94 a 14.32,14.32 0 0 1 1.9,-4.16 v 0 c 0.34,-0.51 0.69,-1 1,-1.51 A 26.18,26.18 0 0 0 404,85 a 2.92,2.92 0 0 0 0.39,-1.34 1.26,1.26 0 0 0 -0.71,-1.19 c -0.85,-0.33 -1.65,0.64 -1.87,1 a 14.69,14.69 0 0 0 -2.3,5.19 c -0.05,0.19 -0.1,0.4 -0.16,0.62 -0.39,1.45 -0.91,3.44 -0.53,4.74 z"
         style="fill:#ffffff"
         id="path308" />
      <path
         d="m 401.21,75.39 c 0,0.18 -0.06,0.37 -0.08,0.56 a 22.07,22.07 0 0 0 -0.36,3.92 v 0.27 l 0.15,-0.23 a 27.86,27.86 0 0 0 2.26,-4.8 c 0.3,-0.77 0.59,-1.5 0.91,-2.21 0.32,-0.71 0.28,-1.17 -0.05,-1.44 a 1,1 0 0 0 -1.1,0.05 c -1.23,0.71 -1.56,2.28 -1.73,3.88 z"
         style="fill:#ffffff"
         id="path310" />
      <path
         d="m 402.81,67.57 0.3,-0.38 a 10,10 0 0 0 1.52,-2.63 c 0.19,-0.49 0.19,-1.06 -0.22,-1.23 a 0.51,0.51 0 0 0 -0.42,0 1.26,1.26 0 0 0 -0.59,0.72 5.31,5.31 0 0 0 -0.26,2.53 z"
         style="fill:#ffffff"
         id="path312" />
      <path
         d="m 402.3,70 a 0.86,0.86 0 0 0 0.28,0.11 0.67,0.67 0 0 0 0.42,-0.11 0.65,0.65 0 0 0 0.42,-0.52 0.66,0.66 0 0 0 -0.28,-0.6 0.65,0.65 0 0 0 -0.66,-0.11 0.7,0.7 0 0 0 -0.39,0.55 0.71,0.71 0 0 0 0.21,0.68 z"
         style="fill:#ffffff"
         id="path314" />
      <path
         d="m 396.24,116.86 -0.08,0.29 a 14.32,14.32 0 0 1 -1.9,4.16 v 0 c -0.34,0.51 -0.69,1 -1,1.51 a 25.48,25.48 0 0 0 -2.08,3.3 2.92,2.92 0 0 0 -0.39,1.34 1.27,1.27 0 0 0 0.71,1.19 1,1 0 0 0 0.23,0.06 c 0.74,0.11 1.38,-0.65 1.64,-1 a 14.85,14.85 0 0 0 2.3,-5.19 c 0.05,-0.19 0.1,-0.4 0.16,-0.62 0.39,-1.45 0.91,-3.44 0.53,-4.74 z"
         style="fill:#ffffff"
         id="path316" />
      <path
         d="m 393.9,135.72 c 0,-0.18 0.06,-0.37 0.08,-0.56 a 22.07,22.07 0 0 0 0.36,-3.92 V 131 l -0.15,0.23 a 28.58,28.58 0 0 0 -2.26,4.8 c -0.3,0.78 -0.59,1.51 -0.9,2.21 -0.31,0.7 -0.29,1.18 0,1.45 a 0.69,0.69 0 0 0 0.33,0.14 1.3,1.3 0 0 0 0.77,-0.19 c 1.27,-0.75 1.6,-2.33 1.77,-3.92 z"
         style="fill:#ffffff"
         id="path318" />
      <path
         d="m 392.3,143.54 -0.3,0.38 a 9.86,9.86 0 0 0 -1.52,2.63 c -0.19,0.49 -0.19,1.06 0.22,1.23 h 0.13 a 0.49,0.49 0 0 0 0.29,0 1.29,1.29 0 0 0 0.59,-0.72 5.31,5.31 0 0 0 0.26,-2.53 z"
         style="fill:#ffffff"
         id="path320" />
      <path
         d="m 392.81,141.12 a 0.72,0.72 0 0 0 -0.67,-0.06 0.65,0.65 0 0 0 -0.42,0.53 0.66,0.66 0 0 0 0.28,0.6 0.74,0.74 0 0 0 0.34,0.15 0.63,0.63 0 0 0 0.71,-0.59 0.71,0.71 0 0 0 -0.24,-0.63 z"
         style="fill:#ffffff"
         id="path322" />
      <path
         d="m 390.74,89.91 0.17,0.62 c 0.39,1.45 0.93,3.44 1.91,4.37 l 0.22,0.21 -0.08,-0.3 a 14.59,14.59 0 0 1 -0.43,-4.55 c 0,-0.61 0.09,-1.22 0.14,-1.82 a 26.62,26.62 0 0 0 0.15,-3.9 3.06,3.06 0 0 0 -0.33,-1.36 1.26,1.26 0 0 0 -1.21,-0.67 c -0.91,0.14 -1.11,1.38 -1.15,1.76 a 14.65,14.65 0 0 0 0.61,5.64 z"
         style="fill:#ffffff"
         id="path324" />
      <path
         d="m 385.84,78.13 a 22.44,22.44 0 0 0 1.66,3.57 l 0.14,0.24 v -0.28 a 28.11,28.11 0 0 0 -0.45,-5.28 c -0.12,-0.83 -0.23,-1.6 -0.32,-2.37 -0.09,-0.77 -0.34,-1.16 -0.75,-1.23 v 0 a 1,1 0 0 0 -0.93,0.59 c -0.71,1.24 -0.21,2.77 0.44,4.23 0.07,0.17 0.14,0.4 0.21,0.53 z"
         style="fill:#ffffff"
         id="path326" />
      <path
         d="m 382.91,69 0.2,1 0.08,-0.48 a 10,10 0 0 0 0,-3 c -0.08,-0.52 -0.36,-1 -0.8,-1 a 0.5,0.5 0 0 0 -0.36,0.22 1.36,1.36 0 0 0 -0.15,0.92 5.3,5.3 0 0 0 1.03,2.34 z"
         style="fill:#ffffff"
         id="path328" />
      <path
         d="m 383.87,72.37 v 0 a 0.73,0.73 0 0 0 0.72,-0.95 0.72,0.72 0 0 0 -1.18,-0.14 0.71,0.71 0 0 0 0.45,1.08 z"
         style="fill:#ffffff"
         id="path330" />
      <path
         d="m 404.38,121.19 c -0.06,-0.19 -0.12,-0.39 -0.18,-0.61 -0.39,-1.45 -0.93,-3.44 -1.91,-4.37 l -0.22,-0.21 0.08,0.29 a 14.66,14.66 0 0 1 0.43,4.56 c 0,0.6 -0.09,1.22 -0.14,1.81 a 26.75,26.75 0 0 0 -0.15,3.91 3.06,3.06 0 0 0 0.33,1.36 1.36,1.36 0 0 0 0.93,0.67 1.31,1.31 0 0 0 0.28,0 c 0.91,-0.14 1.11,-1.38 1.15,-1.76 a 14.88,14.88 0 0 0 -0.6,-5.65 z"
         style="fill:#ffffff"
         id="path332" />
      <path
         d="m 409.27,133 a 22.55,22.55 0 0 0 -1.66,-3.58 l -0.14,-0.23 v 0.28 a 28.18,28.18 0 0 0 0.45,5.28 c 0.12,0.82 0.23,1.6 0.32,2.37 0.09,0.77 0.34,1.16 0.75,1.23 v 0 a 1,1 0 0 0 0.93,-0.59 c 0.71,-1.24 0.21,-2.77 -0.44,-4.23 -0.07,-0.2 -0.14,-0.37 -0.21,-0.53 z"
         style="fill:#ffffff"
         id="path334" />
      <path
         d="m 412.2,142.09 -0.2,-1 -0.08,0.48 a 10,10 0 0 0 0,3 c 0.07,0.45 0.3,0.89 0.66,1 h 0.15 a 0.5,0.5 0 0 0 0.35,-0.22 1.3,1.3 0 0 0 0.15,-0.92 5.3,5.3 0 0 0 -1.03,-2.34 z"
         style="fill:#ffffff"
         id="path336" />
      <path
         d="m 411.24,138.73 v 0 a 0.65,0.65 0 0 0 -0.61,0.29 0.62,0.62 0 0 0 0.43,1 v 0 a 0.68,0.68 0 0 0 0.63,-0.24 0.69,0.69 0 0 0 0.06,-0.67 0.69,0.69 0 0 0 -0.51,-0.38 z"
         style="fill:#ffffff"
         id="path338" />
      <path
         d="m 404.27,116.29 v 0 a 0.6,0.6 0 0 0 0.51,-0.19 l -0.05,-0.07 h 0.09 c 0,-0.21 0,-0.44 0,-0.7 a 0.77,0.77 0 0 0 0.84,-0.55 c 0.15,-0.75 -0.39,-1.64 -1.52,-2.5 a 7.53,7.53 0 0 0 -0.76,-1.34 l 1.95,0.67 v -0.15 a 2.35,2.35 0 0 0 -0.91,-1.31 l 1.23,0.12 c 1.51,1 2.55,1.41 3.09,1.21 a 0.55,0.55 0 0 0 0.36,-0.43 h -0.07 0.07 a 6.34,6.34 0 0 0 -0.33,-0.62 0.8,0.8 0 0 0 0.46,-0.91 c -0.24,-0.69 -1.11,-1.18 -2.46,-1.38 h -0.11 a 8.61,8.61 0 0 0 -1.32,-0.78 l 2,-0.39 -0.11,-0.11 a 2.37,2.37 0 0 0 -1.45,-0.68 l 1.13,-0.51 c 1.81,0.12 2.91,0 3.28,-0.5 a 0.58,0.58 0 0 0 0.1,-0.55 h -0.08 v -0.07 a 6.34,6.34 0 0 0 -0.6,-0.36 0.79,0.79 0 0 0 -0.06,-1 c -0.57,-0.5 -1.61,-0.47 -2.92,0.08 a 7.24,7.24 0 0 0 -1.54,0 l 1.56,-1.35 h -0.15 a 2.39,2.39 0 0 0 -1.6,0.14 l 0.72,-1 c 1.63,-0.81 2.51,-1.5 2.6,-2.07 a 0.56,0.56 0 0 0 -0.19,-0.53 h -0.06 v -0.09 0 h -0.7 a 0.76,0.76 0 0 0 -0.55,-0.84 c -0.75,-0.15 -1.63,0.39 -2.5,1.52 a 7.9,7.9 0 0 0 -1.34,0.76 l 0.67,-2 h -0.15 a 2.3,2.3 0 0 0 -1.31,0.91 l 0.12,-1.23 c 1,-1.51 1.42,-2.55 1.21,-3.09 A 0.54,0.54 0 0 0 403,94.04 v 0.07 -0.08 l -0.62,0.34 a 0.78,0.78 0 0 0 -0.9,-0.46 c -0.72,0.25 -1.22,1.16 -1.4,2.57 a 6.92,6.92 0 0 0 -0.78,1.32 l -0.4,-2 -0.11,0.11 a 2.37,2.37 0 0 0 -0.68,1.45 l -0.51,-1.13 c 0.12,-1.81 -0.05,-2.91 -0.5,-3.28 a 0.58,0.58 0 0 0 -0.55,-0.1 v 0.08 h -0.07 q -0.18,0.27 -0.36,0.6 a 0.79,0.79 0 0 0 -1,0.06 c -0.5,0.57 -0.47,1.61 0.08,2.92 a 8,8 0 0 0 0,1.54 l -1.35,-1.56 v 0.15 a 2.32,2.32 0 0 0 0.13,1.6 l -1,-0.72 c -0.8,-1.63 -1.5,-2.51 -2.07,-2.6 v 0 a 0.57,0.57 0 0 0 -0.51,0.19 l 0.05,0.06 h -0.09 c 0,0.21 0,0.44 0,0.69 a 0.78,0.78 0 0 0 -0.84,0.56 c -0.15,0.75 0.39,1.63 1.52,2.5 a 7.9,7.9 0 0 0 0.76,1.34 l -1.95,-0.67 v 0.15 a 2.35,2.35 0 0 0 0.91,1.31 l -1.23,-0.12 c -1.51,-1 -2.55,-1.42 -3.09,-1.21 a 0.54,0.54 0 0 0 -0.36,0.42 h 0.07 -0.07 a 6.34,6.34 0 0 0 0.33,0.62 0.8,0.8 0 0 0 -0.46,0.9 c 0.24,0.7 1.11,1.19 2.46,1.39 h 0.11 a 7.24,7.24 0 0 0 1.32,0.78 l -2,0.4 0.11,0.11 a 2.35,2.35 0 0 0 1.45,0.68 l -1.12,0.51 c -1.82,-0.12 -2.92,0 -3.29,0.5 a 0.56,0.56 0 0 0 -0.1,0.54 h 0.08 l -0.05,0.07 a 6.34,6.34 0 0 0 0.6,0.36 0.77,0.77 0 0 0 0.06,1 c 0.57,0.51 1.61,0.48 2.92,-0.07 a 8,8 0 0 0 1.54,0 l -1.56,1.35 h 0.16 a 2.3,2.3 0 0 0 1.59,-0.13 l -0.72,1 c -1.63,0.8 -2.51,1.5 -2.6,2.07 a 0.58,0.58 0 0 0 0.19,0.53 h 0.06 v 0.09 0 c 0.21,0 0.44,0 0.7,0 a 0.77,0.77 0 0 0 0.55,0.85 c 0.75,0.14 1.63,-0.39 2.5,-1.52 a 7.9,7.9 0 0 0 1.34,-0.76 l -0.67,2 h 0.15 a 2.35,2.35 0 0 0 1.31,-0.91 l -0.12,1.22 c -1,1.52 -1.42,2.56 -1.21,3.1 a 0.56,0.56 0 0 0 0.42,0.36 v -0.07 0.07 a 6.34,6.34 0 0 0 0.62,-0.33 0.8,0.8 0 0 0 0.9,0.46 c 0.72,-0.25 1.22,-1.16 1.4,-2.57 a 7,7 0 0 0 0.78,-1.33 l 0.4,2 0.11,-0.11 a 2.37,2.37 0 0 0 0.68,-1.45 l 0.51,1.12 c -0.12,1.82 0.05,2.92 0.5,3.29 a 0.49,0.49 0 0 0 0.27,0.12 0.76,0.76 0 0 0 0.28,0 v -0.08 h 0.07 q 0.18,-0.27 0.36,-0.6 a 0.8,0.8 0 0 0 1,-0.06 c 0.5,-0.57 0.47,-1.61 -0.08,-2.92 a 8,8 0 0 0 0,-1.54 l 1.35,1.56 v -0.16 a 2.3,2.3 0 0 0 -0.13,-1.59 l 1,0.72 c 0.85,1.61 1.55,2.48 2.12,2.58 z m -2.69,-7.1 a 2.26,2.26 0 0 0 -0.43,1.58 3.16,3.16 0 0 0 -1.92,0 2.23,2.23 0 0 0 -1.17,1.15 3.27,3.27 0 0 0 -1.6,-1 v 0 a 2.23,2.23 0 0 0 -1.59,0.42 3.14,3.14 0 0 0 -0.91,-1.7 2.21,2.21 0 0 0 -1.58,-0.43 3.16,3.16 0 0 0 0.05,-1.92 2.23,2.23 0 0 0 -1.15,-1.17 3.21,3.21 0 0 0 1,-1.64 2.23,2.23 0 0 0 -0.42,-1.59 3.21,3.21 0 0 0 1.7,-0.91 2.26,2.26 0 0 0 0.43,-1.58 3.16,3.16 0 0 0 1.92,0 2.23,2.23 0 0 0 1.17,-1.15 3.27,3.27 0 0 0 1.6,1 v 0 a 2.28,2.28 0 0 0 1.59,-0.42 3.14,3.14 0 0 0 0.91,1.69 2.22,2.22 0 0 0 1.58,0.44 3.16,3.16 0 0 0 0,1.92 2.26,2.26 0 0 0 1.15,1.17 3.21,3.21 0 0 0 -1,1.64 2.24,2.24 0 0 0 0.42,1.58 3.22,3.22 0 0 0 -1.75,0.92 z"
         style="fill:#ffffff"
         id="path340" />
      <path
         d="m 380.48,90.83 a 14.87,14.87 0 0 0 3.35,4.59 l 0.46,0.45 c 1.06,1.06 2.52,2.51 3.84,2.82 l 0.29,0.07 -0.21,-0.21 a 14.22,14.22 0 0 1 -2.65,-3.73 c -0.28,-0.54 -0.54,-1.1 -0.79,-1.64 a 26,26 0 0 0 -1.77,-3.46 3.22,3.22 0 0 0 -1,-1 1.26,1.26 0 0 0 -1.38,0 c -0.74,0.59 -0.29,1.77 -0.14,2.11 z"
         style="fill:#ffffff"
         id="path342" />
      <path
         d="m 373.26,87.31 0.44,0.35 a 22.7,22.7 0 0 0 3.22,2.27 l 0.24,0.13 -0.12,-0.25 a 27.66,27.66 0 0 0 -3,-4.35 c -0.52,-0.65 -1,-1.27 -1.46,-1.89 -0.46,-0.62 -0.88,-0.84 -1.27,-0.69 a 1,1 0 0 0 -0.51,1 c -0.03,1.41 1.2,2.48 2.46,3.43 z"
         style="fill:#ffffff"
         id="path344" />
      <path
         d="m 366.6,81.23 0.69,0.78 -0.18,-0.45 a 10.14,10.14 0 0 0 -1.52,-2.63 c -0.33,-0.41 -0.82,-0.7 -1.18,-0.42 a 0.54,0.54 0 0 0 -0.2,0.36 1.28,1.28 0 0 0 0.34,0.87 5.22,5.22 0 0 0 2.05,1.49 z"
         style="fill:#ffffff"
         id="path346" />
      <path
         d="m 368.47,83.55 a 0.76,0.76 0 0 0 0.33,0.15 0.73,0.73 0 0 0 0.33,0 0.72,0.72 0 0 0 0.14,-1.18 0.71,0.71 0 0 0 -0.67,-0.06 0.69,0.69 0 0 0 -0.42,0.52 0.65,0.65 0 0 0 0.29,0.57 z"
         style="fill:#ffffff"
         id="path348" />
      <path
         d="m 414.63,120.28 a 14.65,14.65 0 0 0 -3.35,-4.59 l -0.45,-0.45 c -1.07,-1.06 -2.53,-2.51 -3.85,-2.83 l -0.29,-0.07 0.21,0.22 a 14.22,14.22 0 0 1 2.65,3.73 c 0.28,0.54 0.54,1.1 0.79,1.64 a 25.37,25.37 0 0 0 1.83,3.45 3,3 0 0 0 1,1 1.68,1.68 0 0 0 0.52,0.18 1.11,1.11 0 0 0 0.86,-0.21 c 0.68,-0.55 0.23,-1.73 0.08,-2.07 z"
         style="fill:#ffffff"
         id="path350" />
      <path
         d="m 421.85,123.8 -0.44,-0.35 a 21.92,21.92 0 0 0 -3.22,-2.27 l -0.24,-0.13 0.12,0.25 a 28.13,28.13 0 0 0 3,4.35 c 0.52,0.65 1,1.27 1.46,1.89 a 1.52,1.52 0 0 0 0.94,0.72 0.62,0.62 0 0 0 0.33,0 1,1 0 0 0 0.51,-1 c 0.03,-1.44 -1.16,-2.51 -2.46,-3.46 z"
         style="fill:#ffffff"
         id="path352" />
      <path
         d="m 428.51,129.87 -0.69,-0.77 0.18,0.45 a 10.3,10.3 0 0 0 1.52,2.63 1.35,1.35 0 0 0 0.77,0.52 0.55,0.55 0 0 0 0.41,-0.1 0.54,0.54 0 0 0 0.2,-0.37 1.3,1.3 0 0 0 -0.34,-0.87 5.32,5.32 0 0 0 -2.05,-1.49 z"
         style="fill:#ffffff"
         id="path354" />
      <path
         d="m 426.65,127.56 a 0.67,0.67 0 0 0 -0.67,-0.11 0.72,0.72 0 0 0 -0.14,1.18 0.64,0.64 0 0 0 0.27,0.11 0.7,0.7 0 0 0 0.4,-0.06 0.67,0.67 0 0 0 0.42,-0.52 0.66,0.66 0 0 0 -0.28,-0.6 z"
         style="fill:#ffffff"
         id="path356" />
      <path
         d="m 374.46,99.47 c -0.33,0.86 0.64,1.65 1,1.87 a 14.77,14.77 0 0 0 5.19,2.3 l 0.62,0.16 a 24.08,24.08 0 0 0 2.55,0.57 5.31,5.31 0 0 0 2.19,0 l 0.29,-0.09 -0.29,-0.08 a 14.1,14.1 0 0 1 -4.16,-1.91 c -0.51,-0.33 -1,-0.68 -1.51,-1 a 25.48,25.48 0 0 0 -3.3,-2.08 3.06,3.06 0 0 0 -1.34,-0.4 1.28,1.28 0 0 0 -1.24,0.66 z"
         style="fill:#ffffff"
         id="path358" />
      <path
         d="m 363.46,99.06 a 1,1 0 0 0 0.05,1.1 c 0.62,1.07 1.88,1.46 3.24,1.66 l 0.64,0.08 0.56,0.08 a 22.07,22.07 0 0 0 3.92,0.36 h 0.27 l -0.22,-0.15 a 28.32,28.32 0 0 0 -4.81,-2.26 c -0.77,-0.3 -1.5,-0.59 -2.2,-0.91 -0.7,-0.32 -1.18,-0.29 -1.45,0.04 z"
         style="fill:#ffffff"
         id="path360" />
      <path
         d="m 356.56,98.48 c -0.49,-0.19 -1.06,-0.19 -1.23,0.22 a 0.51,0.51 0 0 0 0,0.42 1.34,1.34 0 0 0 0.72,0.59 6.09,6.09 0 0 0 1,0.26 5.31,5.31 0 0 0 1.49,0 l 1,0.33 -0.38,-0.3 a 10,10 0 0 0 -2.6,-1.52 z"
         style="fill:#ffffff"
         id="path362" />
      <path
         d="m 361.34,101 v 0 a 0.69,0.69 0 0 0 0.63,-0.24 0.67,0.67 0 0 0 0.05,-0.66 0.66,0.66 0 0 0 -0.5,-0.42 v 0 a 0.69,0.69 0 0 0 -0.6,0.29 0.65,0.65 0 0 0 -0.11,0.66 0.67,0.67 0 0 0 0.53,0.37 z"
         style="fill:#ffffff"
         id="path364" />
      <path
         d="m 420.65,111.64 c 0.33,-0.86 -0.64,-1.65 -0.95,-1.87 a 14.69,14.69 0 0 0 -5.19,-2.3 l -0.62,-0.16 c -1.45,-0.39 -3.44,-0.92 -4.74,-0.53 l -0.29,0.09 0.29,0.08 a 14.32,14.32 0 0 1 4.16,1.9 l 1.51,1 a 25.48,25.48 0 0 0 3.3,2.08 3.72,3.72 0 0 0 1.06,0.37 1.37,1.37 0 0 0 0.28,0 1.26,1.26 0 0 0 1.19,-0.66 z"
         style="fill:#ffffff"
         id="path366" />
      <path
         d="m 431.65,112.05 a 1,1 0 0 0 0,-1.1 c -0.71,-1.24 -2.29,-1.57 -3.88,-1.74 l -0.56,-0.09 a 23,23 0 0 0 -3.92,-0.35 H 423 l 0.23,0.15 a 27.86,27.86 0 0 0 4.8,2.26 c 0.77,0.3 1.5,0.59 2.2,0.9 a 2.16,2.16 0 0 0 0.65,0.2 0.8,0.8 0 0 0 0.77,-0.23 z"
         style="fill:#ffffff"
         id="path368" />
      <path
         d="m 439.77,112 a 1.26,1.26 0 0 0 -0.72,-0.59 5.31,5.31 0 0 0 -2.53,-0.26 l -1,-0.33 0.38,0.3 a 10,10 0 0 0 2.63,1.52 1.91,1.91 0 0 0 0.41,0.11 c 0.36,0.05 0.7,0 0.82,-0.34 a 0.49,0.49 0 0 0 0.01,-0.41 z"
         style="fill:#ffffff"
         id="path370" />
      <path
         d="m 433.77,110.07 v 0 a 0.63,0.63 0 0 0 -0.68,0.91 0.66,0.66 0 0 0 0.5,0.42 v 0 a 0.66,0.66 0 0 0 0.6,-0.28 0.65,0.65 0 0 0 0.11,-0.66 0.67,0.67 0 0 0 -0.53,-0.39 z"
         style="fill:#ffffff"
         id="path372" />
      <path
         d="m 376.54,110.29 a 3.06,3.06 0 0 0 -1.36,0.33 1.26,1.26 0 0 0 -0.67,1.21 c 0.13,0.82 1.15,1.06 1.62,1.13 h 0.14 a 14.9,14.9 0 0 0 5.65,-0.61 l 0.61,-0.17 c 1.45,-0.39 3.44,-0.93 4.37,-1.91 l 0.21,-0.22 -0.29,0.08 a 14.66,14.66 0 0 1 -4.56,0.42 c -0.61,0 -1.22,-0.08 -1.82,-0.13 a 26.67,26.67 0 0 0 -3.9,-0.13 z"
         style="fill:#ffffff"
         id="path374" />
      <path
         d="m 373.66,115.45 a 28.18,28.18 0 0 0 -5.28,0.45 c -0.83,0.12 -1.6,0.23 -2.37,0.31 -0.77,0.08 -1.16,0.35 -1.23,0.76 a 1,1 0 0 0 0.59,0.94 2.38,2.38 0 0 0 0.93,0.31 6.32,6.32 0 0 0 3.3,-0.75 l 0.53,-0.21 a 21.19,21.19 0 0 0 3.57,-1.65 l 0.24,-0.14 z"
         style="fill:#ffffff"
         id="path376" />
      <path
         d="m 358.51,119.93 c -0.51,0.08 -1,0.36 -0.95,0.8 a 0.5,0.5 0 0 0 0.22,0.36 0.92,0.92 0 0 0 0.41,0.15 1.74,1.74 0 0 0 0.51,0 5.3,5.3 0 0 0 2.32,-1 l 1,-0.21 -0.48,-0.07 a 10,10 0 0 0 -3.03,-0.03 z"
         style="fill:#ffffff"
         id="path378" />
      <path
         d="m 364.09,118.62 a 0.7,0.7 0 0 0 -0.66,-0.11 0.72,0.72 0 0 0 -0.14,1.18 0.54,0.54 0 0 0 0.27,0.11 0.79,0.79 0 0 0 0.4,0 0.69,0.69 0 0 0 0.42,-0.52 0.67,0.67 0 0 0 -0.29,-0.66 z"
         style="fill:#ffffff"
         id="path380" />
      <path
         d="m 418.84,98.13 a 14.61,14.61 0 0 0 -5.64,0.6 l -0.62,0.17 c -1.45,0.4 -3.44,0.94 -4.37,1.92 L 408,101 l 0.29,-0.08 a 14.36,14.36 0 0 1 4.56,-0.43 l 1.82,0.14 a 26.56,26.56 0 0 0 3.9,0.15 3.06,3.06 0 0 0 1.36,-0.33 1.26,1.26 0 0 0 0.67,-1.21 c -0.14,-0.87 -1.38,-1.07 -1.76,-1.11 z"
         style="fill:#ffffff"
         id="path382" />
      <path
         d="m 421.45,95.66 a 28.11,28.11 0 0 0 5.28,-0.45 c 0.82,-0.12 1.6,-0.23 2.37,-0.32 0.77,-0.09 1.16,-0.34 1.23,-0.76 a 1,1 0 0 0 -0.59,-0.93 c -1.24,-0.71 -2.77,-0.21 -4.23,0.43 l -0.53,0.21 a 22,22 0 0 0 -3.57,1.66 l -0.24,0.14 z"
         style="fill:#ffffff"
         id="path384" />
      <path
         d="m 437.33,90 a 1.25,1.25 0 0 0 -0.92,-0.15 5.3,5.3 0 0 0 -2.32,1 l -1,0.2 0.48,0.08 h 0.05 a 10,10 0 0 0 3,0 c 0.51,-0.08 1,-0.36 0.95,-0.81 A 0.5,0.5 0 0 0 437.33,90 Z"
         style="fill:#ffffff"
         id="path386" />
      <path
         d="m 431,92.49 a 0.64,0.64 0 0 0 0.34,0.14 0.58,0.58 0 0 0 0.32,0 0.69,0.69 0 0 0 0.38,-0.55 0.63,0.63 0 0 0 -0.9,-0.69 0.63,0.63 0 0 0 -0.14,1.13 z"
         style="fill:#ffffff"
         id="path388" />
      <path
         d="m 408.29,93.56 v 0 c 0.54,-0.28 1.1,-0.54 1.64,-0.79 a 24.8,24.8 0 0 0 3.45,-1.83 3,3 0 0 0 1,-1 1.26,1.26 0 0 0 0,-1.38 c -0.57,-0.72 -1.75,-0.28 -2.09,-0.12 a 14.76,14.76 0 0 0 -4.59,3.35 l -0.45,0.45 c -1.06,1.07 -2.51,2.53 -2.82,3.85 l -0.07,0.29 0.21,-0.21 a 14.22,14.22 0 0 1 3.72,-2.61 z"
         style="fill:#ffffff"
         id="path390" />
      <path
         d="m 417.65,82 c 0.65,-0.52 1.27,-1 1.89,-1.46 0.62,-0.46 0.84,-0.88 0.69,-1.27 a 1,1 0 0 0 -1,-0.52 c -1.43,0 -2.5,1.2 -3.45,2.49 l -0.35,0.45 a 22.7,22.7 0 0 0 -2.27,3.22 l -0.13,0.24 0.25,-0.12 A 28.13,28.13 0 0 0 417.65,82 Z"
         style="fill:#ffffff"
         id="path392" />
      <path
         d="m 424.18,73.59 c 0.41,-0.33 0.7,-0.82 0.42,-1.18 a 0.51,0.51 0 0 0 -0.36,-0.2 1.32,1.32 0 0 0 -0.88,0.34 5.32,5.32 0 0 0 -1.49,2 l -0.77,0.69 0.45,-0.18 a 10.3,10.3 0 0 0 2.63,-1.47 z"
         style="fill:#ffffff"
         id="path394" />
      <path
         d="m 420,77.51 v 0 a 0.69,0.69 0 0 0 0.63,-0.24 0.71,0.71 0 0 0 0.06,-0.67 0.69,0.69 0 0 0 -0.51,-0.42 v 0 a 0.66,0.66 0 0 0 -0.6,0.28 0.63,0.63 0 0 0 0.42,1.05 z"
         style="fill:#ffffff"
         id="path396" />
      <path
         d="m 384,99.52 c 0,0 -13.59,-9.63 -15.18,-8.69 -1.59,0.94 7.3,5.17 15.18,8.69 z"
         style="fill:#ffffff"
         id="path398" />
      <path
         d="m 411,111.83 c 0,0 13.6,9.63 15.19,8.69 1.59,-0.94 -7.28,-5.16 -15.19,-8.69 z"
         style="fill:#ffffff"
         id="path400" />
      <path
         d="m 382.77,107.08 c 0,0 -16.59,-1.54 -17.5,0.07 -0.91,1.61 8.87,0.85 17.5,-0.07 z"
         style="fill:#ffffff"
         id="path402" />
      <path
         d="m 412.26,104.27 c 0,0 16.59,1.54 17.5,-0.07 0.91,-1.61 -8.87,-0.83 -17.5,0.07 z"
         style="fill:#ffffff"
         id="path404" />
      <path
         d="m 409.59,97.09 c 0,0 15.13,-7 15.12,-8.81 -0.01,-1.81 -8.11,3.72 -15.12,8.81 z"
         style="fill:#ffffff"
         id="path406" />
      <path
         d="m 391.36,119.15 c 0,0 -9.63,13.59 -8.69,15.19 0.94,1.6 5.16,-7.27 8.69,-15.19 z"
         style="fill:#ffffff"
         id="path408" />
      <path
         d="m 403.67,92.2 c 0,0 9.63,-13.59 8.69,-15.2 -0.94,-1.61 -5.16,7.28 -8.69,15.2 z"
         style="fill:#ffffff"
         id="path410" />
      <path
         d="m 398.92,120.42 c 0,0 -1.54,16.59 0.07,17.5 1.61,0.91 0.84,-8.87 -0.07,-17.5 z"
         style="fill:#ffffff"
         id="path412" />
      <path
         d="m 396.11,90.93 c 0,0 1.54,-16.59 -0.07,-17.5 -1.61,-0.91 -0.83,8.87 0.07,17.5 z"
         style="fill:#ffffff"
         id="path414" />
      <path
         d="m 406.11,117.74 c 0,0 7,15.14 8.8,15.12 1.8,-0.02 -3.71,-8.1 -8.8,-15.12 z"
         style="fill:#ffffff"
         id="path416" />
      <path
         d="m 388.93,93.61 c 0,0 -7,-15.14 -8.81,-15.12 -1.81,0.02 3.71,8.1 8.81,15.12 z"
         style="fill:#ffffff"
         id="path418" />
      <g
         style="opacity:0.2"
         id="g534">
        <path
           d="M 398.87,94.25 399,94 a 14.32,14.32 0 0 1 1.9,-4.16 v 0 c 0.34,-0.51 0.69,-1 1,-1.51 A 26.18,26.18 0 0 0 404,85 a 2.92,2.92 0 0 0 0.39,-1.34 1.26,1.26 0 0 0 -0.71,-1.19 c -0.85,-0.33 -1.65,0.64 -1.87,1 a 14.69,14.69 0 0 0 -2.3,5.19 c -0.05,0.19 -0.1,0.4 -0.16,0.62 -0.39,1.45 -0.91,3.44 -0.53,4.74 z"
           style="fill:#ffffff"
           id="path420" />
        <path
           d="m 401.21,75.39 c 0,0.18 -0.06,0.37 -0.08,0.56 a 22.07,22.07 0 0 0 -0.36,3.92 v 0.27 l 0.15,-0.23 a 27.86,27.86 0 0 0 2.26,-4.8 c 0.3,-0.77 0.59,-1.5 0.91,-2.21 0.32,-0.71 0.28,-1.17 -0.05,-1.44 a 1,1 0 0 0 -1.1,0.05 c -1.23,0.71 -1.56,2.28 -1.73,3.88 z"
           style="fill:#ffffff"
           id="path422" />
        <path
           d="m 402.81,67.57 0.3,-0.38 a 10,10 0 0 0 1.52,-2.63 c 0.19,-0.49 0.19,-1.06 -0.22,-1.23 a 0.51,0.51 0 0 0 -0.42,0 1.26,1.26 0 0 0 -0.59,0.72 5.31,5.31 0 0 0 -0.26,2.53 z"
           style="fill:#ffffff"
           id="path424" />
        <path
           d="m 402.3,70 a 0.86,0.86 0 0 0 0.28,0.11 0.67,0.67 0 0 0 0.42,-0.11 0.65,0.65 0 0 0 0.42,-0.52 0.66,0.66 0 0 0 -0.28,-0.6 0.65,0.65 0 0 0 -0.66,-0.11 0.7,0.7 0 0 0 -0.39,0.55 0.71,0.71 0 0 0 0.21,0.68 z"
           style="fill:#ffffff"
           id="path426" />
        <path
           d="m 396.24,116.86 -0.08,0.29 a 14.32,14.32 0 0 1 -1.9,4.16 v 0 c -0.34,0.51 -0.69,1 -1,1.51 a 25.48,25.48 0 0 0 -2.08,3.3 2.92,2.92 0 0 0 -0.39,1.34 1.27,1.27 0 0 0 0.71,1.19 1,1 0 0 0 0.23,0.06 c 0.74,0.11 1.38,-0.65 1.64,-1 a 14.85,14.85 0 0 0 2.3,-5.19 c 0.05,-0.19 0.1,-0.4 0.16,-0.62 0.39,-1.45 0.91,-3.44 0.53,-4.74 z"
           style="fill:#ffffff"
           id="path428" />
        <path
           d="m 393.9,135.72 c 0,-0.18 0.06,-0.37 0.08,-0.56 a 22.07,22.07 0 0 0 0.36,-3.92 V 131 l -0.15,0.23 a 28.58,28.58 0 0 0 -2.26,4.8 c -0.3,0.78 -0.59,1.51 -0.9,2.21 -0.31,0.7 -0.29,1.18 0,1.45 a 0.69,0.69 0 0 0 0.33,0.14 1.3,1.3 0 0 0 0.77,-0.19 c 1.27,-0.75 1.6,-2.33 1.77,-3.92 z"
           style="fill:#ffffff"
           id="path430" />
        <path
           d="m 392.3,143.54 -0.3,0.38 a 9.86,9.86 0 0 0 -1.52,2.63 c -0.19,0.49 -0.19,1.06 0.22,1.23 h 0.13 a 0.49,0.49 0 0 0 0.29,0 1.29,1.29 0 0 0 0.59,-0.72 5.31,5.31 0 0 0 0.26,-2.53 z"
           style="fill:#ffffff"
           id="path432" />
        <path
           d="m 392.81,141.12 a 0.72,0.72 0 0 0 -0.67,-0.06 0.65,0.65 0 0 0 -0.42,0.53 0.66,0.66 0 0 0 0.28,0.6 0.74,0.74 0 0 0 0.34,0.15 0.63,0.63 0 0 0 0.71,-0.59 0.71,0.71 0 0 0 -0.24,-0.63 z"
           style="fill:#ffffff"
           id="path434" />
        <path
           d="m 390.74,89.91 0.17,0.62 c 0.39,1.45 0.93,3.44 1.91,4.37 l 0.22,0.21 -0.08,-0.3 a 14.59,14.59 0 0 1 -0.43,-4.55 c 0,-0.61 0.09,-1.22 0.14,-1.82 a 26.62,26.62 0 0 0 0.15,-3.9 3.06,3.06 0 0 0 -0.33,-1.36 1.26,1.26 0 0 0 -1.21,-0.67 c -0.91,0.14 -1.11,1.38 -1.15,1.76 a 14.65,14.65 0 0 0 0.61,5.64 z"
           style="fill:#ffffff"
           id="path436" />
        <path
           d="m 385.84,78.13 a 22.44,22.44 0 0 0 1.66,3.57 l 0.14,0.24 v -0.28 a 28.11,28.11 0 0 0 -0.45,-5.28 c -0.12,-0.83 -0.23,-1.6 -0.32,-2.37 -0.09,-0.77 -0.34,-1.16 -0.75,-1.23 v 0 a 1,1 0 0 0 -0.93,0.59 c -0.71,1.24 -0.21,2.77 0.44,4.23 0.07,0.17 0.14,0.4 0.21,0.53 z"
           style="fill:#ffffff"
           id="path438" />
        <path
           d="m 382.91,69 0.2,1 0.08,-0.48 a 10,10 0 0 0 0,-3 c -0.08,-0.52 -0.36,-1 -0.8,-1 a 0.5,0.5 0 0 0 -0.36,0.22 1.36,1.36 0 0 0 -0.15,0.92 5.3,5.3 0 0 0 1.03,2.34 z"
           style="fill:#ffffff"
           id="path440" />
        <path
           d="m 383.87,72.37 v 0 a 0.73,0.73 0 0 0 0.72,-0.95 0.72,0.72 0 0 0 -1.18,-0.14 0.71,0.71 0 0 0 0.45,1.08 z"
           style="fill:#ffffff"
           id="path442" />
        <path
           d="m 404.38,121.19 c -0.06,-0.19 -0.12,-0.39 -0.18,-0.61 -0.39,-1.45 -0.93,-3.44 -1.91,-4.37 l -0.22,-0.21 0.08,0.29 a 14.66,14.66 0 0 1 0.43,4.56 c 0,0.6 -0.09,1.22 -0.14,1.81 a 26.75,26.75 0 0 0 -0.15,3.91 3.06,3.06 0 0 0 0.33,1.36 1.36,1.36 0 0 0 0.93,0.67 1.31,1.31 0 0 0 0.28,0 c 0.91,-0.14 1.11,-1.38 1.15,-1.76 a 14.88,14.88 0 0 0 -0.6,-5.65 z"
           style="fill:#ffffff"
           id="path444" />
        <path
           d="m 409.27,133 a 22.55,22.55 0 0 0 -1.66,-3.58 l -0.14,-0.23 v 0.28 a 28.18,28.18 0 0 0 0.45,5.28 c 0.12,0.82 0.23,1.6 0.32,2.37 0.09,0.77 0.34,1.16 0.75,1.23 v 0 a 1,1 0 0 0 0.93,-0.59 c 0.71,-1.24 0.21,-2.77 -0.44,-4.23 -0.07,-0.2 -0.14,-0.37 -0.21,-0.53 z"
           style="fill:#ffffff"
           id="path446" />
        <path
           d="m 412.2,142.09 -0.2,-1 -0.08,0.48 a 10,10 0 0 0 0,3 c 0.07,0.45 0.3,0.89 0.66,1 h 0.15 a 0.5,0.5 0 0 0 0.35,-0.22 1.3,1.3 0 0 0 0.15,-0.92 5.3,5.3 0 0 0 -1.03,-2.34 z"
           style="fill:#ffffff"
           id="path448" />
        <path
           d="m 411.24,138.73 v 0 a 0.65,0.65 0 0 0 -0.61,0.29 0.62,0.62 0 0 0 0.43,1 v 0 a 0.68,0.68 0 0 0 0.63,-0.24 0.69,0.69 0 0 0 0.06,-0.67 0.69,0.69 0 0 0 -0.51,-0.38 z"
           style="fill:#ffffff"
           id="path450" />
        <path
           d="m 404.27,116.29 v 0 a 0.6,0.6 0 0 0 0.51,-0.19 l -0.05,-0.07 h 0.09 c 0,-0.21 0,-0.44 0,-0.7 a 0.77,0.77 0 0 0 0.84,-0.55 c 0.15,-0.75 -0.39,-1.64 -1.52,-2.5 a 7.53,7.53 0 0 0 -0.76,-1.34 l 1.95,0.67 v -0.15 a 2.35,2.35 0 0 0 -0.91,-1.31 l 1.23,0.12 c 1.51,1 2.55,1.41 3.09,1.21 a 0.55,0.55 0 0 0 0.36,-0.43 h -0.07 0.07 a 6.34,6.34 0 0 0 -0.33,-0.62 0.8,0.8 0 0 0 0.46,-0.91 c -0.24,-0.69 -1.11,-1.18 -2.46,-1.38 h -0.11 a 8.61,8.61 0 0 0 -1.32,-0.78 l 2,-0.39 -0.11,-0.11 a 2.37,2.37 0 0 0 -1.45,-0.68 l 1.13,-0.51 c 1.81,0.12 2.91,0 3.28,-0.5 a 0.58,0.58 0 0 0 0.1,-0.55 h -0.08 v -0.07 a 6.34,6.34 0 0 0 -0.6,-0.36 0.79,0.79 0 0 0 -0.06,-1 c -0.57,-0.5 -1.61,-0.47 -2.92,0.08 a 7.24,7.24 0 0 0 -1.54,0 l 1.56,-1.35 h -0.15 a 2.39,2.39 0 0 0 -1.6,0.14 l 0.72,-1 c 1.63,-0.81 2.51,-1.5 2.6,-2.07 a 0.56,0.56 0 0 0 -0.19,-0.53 h -0.06 v -0.09 0 h -0.7 a 0.76,0.76 0 0 0 -0.55,-0.84 c -0.75,-0.15 -1.63,0.39 -2.5,1.52 a 7.9,7.9 0 0 0 -1.34,0.76 l 0.67,-2 h -0.15 a 2.3,2.3 0 0 0 -1.31,0.91 l 0.12,-1.23 c 1,-1.51 1.42,-2.55 1.21,-3.09 A 0.54,0.54 0 0 0 403,94.04 v 0.07 -0.08 l -0.62,0.34 a 0.78,0.78 0 0 0 -0.9,-0.46 c -0.72,0.25 -1.22,1.16 -1.4,2.57 a 6.92,6.92 0 0 0 -0.78,1.32 l -0.4,-2 -0.11,0.11 a 2.37,2.37 0 0 0 -0.68,1.45 l -0.51,-1.13 c 0.12,-1.81 -0.05,-2.91 -0.5,-3.28 a 0.58,0.58 0 0 0 -0.55,-0.1 v 0.08 h -0.07 q -0.18,0.27 -0.36,0.6 a 0.79,0.79 0 0 0 -1,0.06 c -0.5,0.57 -0.47,1.61 0.08,2.92 a 8,8 0 0 0 0,1.54 l -1.35,-1.56 v 0.15 a 2.32,2.32 0 0 0 0.13,1.6 l -1,-0.72 c -0.8,-1.63 -1.5,-2.51 -2.07,-2.6 v 0 a 0.57,0.57 0 0 0 -0.51,0.19 l 0.05,0.06 h -0.09 c 0,0.21 0,0.44 0,0.69 a 0.78,0.78 0 0 0 -0.84,0.56 c -0.15,0.75 0.39,1.63 1.52,2.5 a 7.9,7.9 0 0 0 0.76,1.34 l -1.95,-0.67 v 0.15 a 2.35,2.35 0 0 0 0.91,1.31 l -1.23,-0.12 c -1.51,-1 -2.55,-1.42 -3.09,-1.21 a 0.54,0.54 0 0 0 -0.36,0.42 h 0.07 -0.07 a 6.34,6.34 0 0 0 0.33,0.62 0.8,0.8 0 0 0 -0.46,0.9 c 0.24,0.7 1.11,1.19 2.46,1.39 h 0.11 a 7.24,7.24 0 0 0 1.32,0.78 l -2,0.4 0.11,0.11 a 2.35,2.35 0 0 0 1.45,0.68 l -1.12,0.51 c -1.82,-0.12 -2.92,0 -3.29,0.5 a 0.56,0.56 0 0 0 -0.1,0.54 h 0.08 l -0.05,0.07 a 6.34,6.34 0 0 0 0.6,0.36 0.77,0.77 0 0 0 0.06,1 c 0.57,0.51 1.61,0.48 2.92,-0.07 a 8,8 0 0 0 1.54,0 l -1.56,1.35 h 0.16 a 2.3,2.3 0 0 0 1.59,-0.13 l -0.72,1 c -1.63,0.8 -2.51,1.5 -2.6,2.07 a 0.58,0.58 0 0 0 0.19,0.53 h 0.06 v 0.09 0 c 0.21,0 0.44,0 0.7,0 a 0.77,0.77 0 0 0 0.55,0.85 c 0.75,0.14 1.63,-0.39 2.5,-1.52 a 7.9,7.9 0 0 0 1.34,-0.76 l -0.67,2 h 0.15 a 2.35,2.35 0 0 0 1.31,-0.91 l -0.12,1.22 c -1,1.52 -1.42,2.56 -1.21,3.1 a 0.56,0.56 0 0 0 0.42,0.36 v -0.07 0.07 a 6.34,6.34 0 0 0 0.62,-0.33 0.8,0.8 0 0 0 0.9,0.46 c 0.72,-0.25 1.22,-1.16 1.4,-2.57 a 7,7 0 0 0 0.78,-1.33 l 0.4,2 0.11,-0.11 a 2.37,2.37 0 0 0 0.68,-1.45 l 0.51,1.12 c -0.12,1.82 0.05,2.92 0.5,3.29 a 0.49,0.49 0 0 0 0.27,0.12 0.76,0.76 0 0 0 0.28,0 v -0.08 h 0.07 q 0.18,-0.27 0.36,-0.6 a 0.8,0.8 0 0 0 1,-0.06 c 0.5,-0.57 0.47,-1.61 -0.08,-2.92 a 8,8 0 0 0 0,-1.54 l 1.35,1.56 v -0.16 a 2.3,2.3 0 0 0 -0.13,-1.59 l 1,0.72 c 0.85,1.61 1.55,2.48 2.12,2.58 z m -2.69,-7.1 a 2.26,2.26 0 0 0 -0.43,1.58 3.16,3.16 0 0 0 -1.92,0 2.23,2.23 0 0 0 -1.17,1.15 3.27,3.27 0 0 0 -1.6,-1 v 0 a 2.23,2.23 0 0 0 -1.59,0.42 3.14,3.14 0 0 0 -0.91,-1.7 2.21,2.21 0 0 0 -1.58,-0.43 3.16,3.16 0 0 0 0.05,-1.92 2.23,2.23 0 0 0 -1.15,-1.17 3.21,3.21 0 0 0 1,-1.64 2.23,2.23 0 0 0 -0.42,-1.59 3.21,3.21 0 0 0 1.7,-0.91 2.26,2.26 0 0 0 0.43,-1.58 3.16,3.16 0 0 0 1.92,0 2.23,2.23 0 0 0 1.17,-1.15 3.27,3.27 0 0 0 1.6,1 v 0 a 2.28,2.28 0 0 0 1.59,-0.42 3.14,3.14 0 0 0 0.91,1.69 2.22,2.22 0 0 0 1.58,0.44 3.16,3.16 0 0 0 0,1.92 2.26,2.26 0 0 0 1.15,1.17 3.21,3.21 0 0 0 -1,1.64 2.24,2.24 0 0 0 0.42,1.58 3.22,3.22 0 0 0 -1.75,0.92 z"
           style="fill:#ffffff"
           id="path452" />
        <path
           d="m 380.48,90.83 a 14.87,14.87 0 0 0 3.35,4.59 l 0.46,0.45 c 1.06,1.06 2.52,2.51 3.84,2.82 l 0.29,0.07 -0.21,-0.21 a 14.22,14.22 0 0 1 -2.65,-3.73 c -0.28,-0.54 -0.54,-1.1 -0.79,-1.64 a 26,26 0 0 0 -1.77,-3.46 3.22,3.22 0 0 0 -1,-1 1.26,1.26 0 0 0 -1.38,0 c -0.74,0.59 -0.29,1.77 -0.14,2.11 z"
           style="fill:#ffffff"
           id="path454" />
        <path
           d="m 373.26,87.31 0.44,0.35 a 22.7,22.7 0 0 0 3.22,2.27 l 0.24,0.13 -0.12,-0.25 a 27.66,27.66 0 0 0 -3,-4.35 c -0.52,-0.65 -1,-1.27 -1.46,-1.89 -0.46,-0.62 -0.88,-0.84 -1.27,-0.69 a 1,1 0 0 0 -0.51,1 c -0.03,1.41 1.2,2.48 2.46,3.43 z"
           style="fill:#ffffff"
           id="path456" />
        <path
           d="m 366.6,81.23 0.69,0.78 -0.18,-0.45 a 10.14,10.14 0 0 0 -1.52,-2.63 c -0.33,-0.41 -0.82,-0.7 -1.18,-0.42 a 0.54,0.54 0 0 0 -0.2,0.36 1.28,1.28 0 0 0 0.34,0.87 5.22,5.22 0 0 0 2.05,1.49 z"
           style="fill:#ffffff"
           id="path458" />
        <path
           d="m 368.47,83.55 a 0.76,0.76 0 0 0 0.33,0.15 0.73,0.73 0 0 0 0.33,0 0.72,0.72 0 0 0 0.14,-1.18 0.71,0.71 0 0 0 -0.67,-0.06 0.69,0.69 0 0 0 -0.42,0.52 0.65,0.65 0 0 0 0.29,0.57 z"
           style="fill:#ffffff"
           id="path460" />
        <path
           d="m 414.63,120.28 a 14.65,14.65 0 0 0 -3.35,-4.59 l -0.45,-0.45 c -1.07,-1.06 -2.53,-2.51 -3.85,-2.83 l -0.29,-0.07 0.21,0.22 a 14.22,14.22 0 0 1 2.65,3.73 c 0.28,0.54 0.54,1.1 0.79,1.64 a 25.37,25.37 0 0 0 1.83,3.45 3,3 0 0 0 1,1 1.68,1.68 0 0 0 0.52,0.18 1.11,1.11 0 0 0 0.86,-0.21 c 0.68,-0.55 0.23,-1.73 0.08,-2.07 z"
           style="fill:#ffffff"
           id="path462" />
        <path
           d="m 421.85,123.8 -0.44,-0.35 a 21.92,21.92 0 0 0 -3.22,-2.27 l -0.24,-0.13 0.12,0.25 a 28.13,28.13 0 0 0 3,4.35 c 0.52,0.65 1,1.27 1.46,1.89 a 1.52,1.52 0 0 0 0.94,0.72 0.62,0.62 0 0 0 0.33,0 1,1 0 0 0 0.51,-1 c 0.03,-1.44 -1.16,-2.51 -2.46,-3.46 z"
           style="fill:#ffffff"
           id="path464" />
        <path
           d="m 428.51,129.87 -0.69,-0.77 0.18,0.45 a 10.3,10.3 0 0 0 1.52,2.63 1.35,1.35 0 0 0 0.77,0.52 0.55,0.55 0 0 0 0.41,-0.1 0.54,0.54 0 0 0 0.2,-0.37 1.3,1.3 0 0 0 -0.34,-0.87 5.32,5.32 0 0 0 -2.05,-1.49 z"
           style="fill:#ffffff"
           id="path466" />
        <path
           d="m 426.65,127.56 a 0.67,0.67 0 0 0 -0.67,-0.11 0.72,0.72 0 0 0 -0.14,1.18 0.64,0.64 0 0 0 0.27,0.11 0.7,0.7 0 0 0 0.4,-0.06 0.67,0.67 0 0 0 0.42,-0.52 0.66,0.66 0 0 0 -0.28,-0.6 z"
           style="fill:#ffffff"
           id="path468" />
        <path
           d="m 374.46,99.47 c -0.33,0.86 0.64,1.65 1,1.87 a 14.77,14.77 0 0 0 5.19,2.3 l 0.62,0.16 a 24.08,24.08 0 0 0 2.55,0.57 5.31,5.31 0 0 0 2.19,0 l 0.29,-0.09 -0.29,-0.08 a 14.1,14.1 0 0 1 -4.16,-1.91 c -0.51,-0.33 -1,-0.68 -1.51,-1 a 25.48,25.48 0 0 0 -3.3,-2.08 3.06,3.06 0 0 0 -1.34,-0.4 1.28,1.28 0 0 0 -1.24,0.66 z"
           style="fill:#ffffff"
           id="path470" />
        <path
           d="m 363.46,99.06 a 1,1 0 0 0 0.05,1.1 c 0.62,1.07 1.88,1.46 3.24,1.66 l 0.64,0.08 0.56,0.08 a 22.07,22.07 0 0 0 3.92,0.36 h 0.27 l -0.22,-0.15 a 28.32,28.32 0 0 0 -4.81,-2.26 c -0.77,-0.3 -1.5,-0.59 -2.2,-0.91 -0.7,-0.32 -1.18,-0.29 -1.45,0.04 z"
           style="fill:#ffffff"
           id="path472" />
        <path
           d="m 356.56,98.48 c -0.49,-0.19 -1.06,-0.19 -1.23,0.22 a 0.51,0.51 0 0 0 0,0.42 1.34,1.34 0 0 0 0.72,0.59 6.09,6.09 0 0 0 1,0.26 5.31,5.31 0 0 0 1.49,0 l 1,0.33 -0.38,-0.3 a 10,10 0 0 0 -2.6,-1.52 z"
           style="fill:#ffffff"
           id="path474" />
        <path
           d="m 361.34,101 v 0 a 0.69,0.69 0 0 0 0.63,-0.24 0.67,0.67 0 0 0 0.05,-0.66 0.66,0.66 0 0 0 -0.5,-0.42 v 0 a 0.69,0.69 0 0 0 -0.6,0.29 0.65,0.65 0 0 0 -0.11,0.66 0.67,0.67 0 0 0 0.53,0.37 z"
           style="fill:#ffffff"
           id="path476" />
        <path
           d="m 420.65,111.64 c 0.33,-0.86 -0.64,-1.65 -0.95,-1.87 a 14.69,14.69 0 0 0 -5.19,-2.3 l -0.62,-0.16 c -1.45,-0.39 -3.44,-0.92 -4.74,-0.53 l -0.29,0.09 0.29,0.08 a 14.32,14.32 0 0 1 4.16,1.9 l 1.51,1 a 25.48,25.48 0 0 0 3.3,2.08 3.72,3.72 0 0 0 1.06,0.37 1.37,1.37 0 0 0 0.28,0 1.26,1.26 0 0 0 1.19,-0.66 z"
           style="fill:#ffffff"
           id="path478" />
        <path
           d="m 431.65,112.05 a 1,1 0 0 0 0,-1.1 c -0.71,-1.24 -2.29,-1.57 -3.88,-1.74 l -0.56,-0.09 a 23,23 0 0 0 -3.92,-0.35 H 423 l 0.23,0.15 a 27.86,27.86 0 0 0 4.8,2.26 c 0.77,0.3 1.5,0.59 2.2,0.9 a 2.16,2.16 0 0 0 0.65,0.2 0.8,0.8 0 0 0 0.77,-0.23 z"
           style="fill:#ffffff"
           id="path480" />
        <path
           d="m 439.77,112 a 1.26,1.26 0 0 0 -0.72,-0.59 5.31,5.31 0 0 0 -2.53,-0.26 l -1,-0.33 0.38,0.3 a 10,10 0 0 0 2.63,1.52 1.91,1.91 0 0 0 0.41,0.11 c 0.36,0.05 0.7,0 0.82,-0.34 a 0.49,0.49 0 0 0 0.01,-0.41 z"
           style="fill:#ffffff"
           id="path482" />
        <path
           d="m 433.77,110.07 v 0 a 0.63,0.63 0 0 0 -0.68,0.91 0.66,0.66 0 0 0 0.5,0.42 v 0 a 0.66,0.66 0 0 0 0.6,-0.28 0.65,0.65 0 0 0 0.11,-0.66 0.67,0.67 0 0 0 -0.53,-0.39 z"
           style="fill:#ffffff"
           id="path484" />
        <path
           d="m 376.54,110.29 a 3.06,3.06 0 0 0 -1.36,0.33 1.26,1.26 0 0 0 -0.67,1.21 c 0.13,0.82 1.15,1.06 1.62,1.13 h 0.14 a 14.9,14.9 0 0 0 5.65,-0.61 l 0.61,-0.17 c 1.45,-0.39 3.44,-0.93 4.37,-1.91 l 0.21,-0.22 -0.29,0.08 a 14.66,14.66 0 0 1 -4.56,0.42 c -0.61,0 -1.22,-0.08 -1.82,-0.13 a 26.67,26.67 0 0 0 -3.9,-0.13 z"
           style="fill:#ffffff"
           id="path486" />
        <path
           d="m 373.66,115.45 a 28.18,28.18 0 0 0 -5.28,0.45 c -0.83,0.12 -1.6,0.23 -2.37,0.31 -0.77,0.08 -1.16,0.35 -1.23,0.76 a 1,1 0 0 0 0.59,0.94 2.38,2.38 0 0 0 0.93,0.31 6.32,6.32 0 0 0 3.3,-0.75 l 0.53,-0.21 a 21.19,21.19 0 0 0 3.57,-1.65 l 0.24,-0.14 z"
           style="fill:#ffffff"
           id="path488" />
        <path
           d="m 358.51,119.93 c -0.51,0.08 -1,0.36 -0.95,0.8 a 0.5,0.5 0 0 0 0.22,0.36 0.92,0.92 0 0 0 0.41,0.15 1.74,1.74 0 0 0 0.51,0 5.3,5.3 0 0 0 2.32,-1 l 1,-0.21 -0.48,-0.07 a 10,10 0 0 0 -3.03,-0.03 z"
           style="fill:#ffffff"
           id="path490" />
        <path
           d="m 364.09,118.62 a 0.7,0.7 0 0 0 -0.66,-0.11 0.72,0.72 0 0 0 -0.14,1.18 0.54,0.54 0 0 0 0.27,0.11 0.79,0.79 0 0 0 0.4,0 0.69,0.69 0 0 0 0.42,-0.52 0.67,0.67 0 0 0 -0.29,-0.66 z"
           style="fill:#ffffff"
           id="path492" />
        <path
           d="m 418.84,98.13 a 14.61,14.61 0 0 0 -5.64,0.6 l -0.62,0.17 c -1.45,0.4 -3.44,0.94 -4.37,1.92 L 408,101 l 0.29,-0.08 a 14.36,14.36 0 0 1 4.56,-0.43 l 1.82,0.14 a 26.56,26.56 0 0 0 3.9,0.15 3.06,3.06 0 0 0 1.36,-0.33 1.26,1.26 0 0 0 0.67,-1.21 c -0.14,-0.87 -1.38,-1.07 -1.76,-1.11 z"
           style="fill:#ffffff"
           id="path494" />
        <path
           d="m 421.45,95.66 a 28.11,28.11 0 0 0 5.28,-0.45 c 0.82,-0.12 1.6,-0.23 2.37,-0.32 0.77,-0.09 1.16,-0.34 1.23,-0.76 a 1,1 0 0 0 -0.59,-0.93 c -1.24,-0.71 -2.77,-0.21 -4.23,0.43 l -0.53,0.21 a 22,22 0 0 0 -3.57,1.66 l -0.24,0.14 z"
           style="fill:#ffffff"
           id="path496" />
        <path
           d="m 437.33,90 a 1.25,1.25 0 0 0 -0.92,-0.15 5.3,5.3 0 0 0 -2.32,1 l -1,0.2 0.48,0.08 h 0.05 a 10,10 0 0 0 3,0 c 0.51,-0.08 1,-0.36 0.95,-0.81 A 0.5,0.5 0 0 0 437.33,90 Z"
           style="fill:#ffffff"
           id="path498" />
        <path
           d="m 431,92.49 a 0.64,0.64 0 0 0 0.34,0.14 0.58,0.58 0 0 0 0.32,0 0.69,0.69 0 0 0 0.38,-0.55 0.63,0.63 0 0 0 -0.9,-0.69 0.63,0.63 0 0 0 -0.14,1.13 z"
           style="fill:#ffffff"
           id="path500" />
        <path
           d="m 408.29,93.56 v 0 c 0.54,-0.28 1.1,-0.54 1.64,-0.79 a 24.8,24.8 0 0 0 3.45,-1.83 3,3 0 0 0 1,-1 1.26,1.26 0 0 0 0,-1.38 c -0.57,-0.72 -1.75,-0.28 -2.09,-0.12 a 14.76,14.76 0 0 0 -4.59,3.35 l -0.45,0.45 c -1.06,1.07 -2.51,2.53 -2.82,3.85 l -0.07,0.29 0.21,-0.21 a 14.22,14.22 0 0 1 3.72,-2.61 z"
           style="fill:#ffffff"
           id="path502" />
        <path
           d="m 417.65,82 c 0.65,-0.52 1.27,-1 1.89,-1.46 0.62,-0.46 0.84,-0.88 0.69,-1.27 a 1,1 0 0 0 -1,-0.52 c -1.43,0 -2.5,1.2 -3.45,2.49 l -0.35,0.45 a 22.7,22.7 0 0 0 -2.27,3.22 l -0.13,0.24 0.25,-0.12 A 28.13,28.13 0 0 0 417.65,82 Z"
           style="fill:#ffffff"
           id="path504" />
        <path
           d="m 424.18,73.59 c 0.41,-0.33 0.7,-0.82 0.42,-1.18 a 0.51,0.51 0 0 0 -0.36,-0.2 1.32,1.32 0 0 0 -0.88,0.34 5.32,5.32 0 0 0 -1.49,2 l -0.77,0.69 0.45,-0.18 a 10.3,10.3 0 0 0 2.63,-1.47 z"
           style="fill:#ffffff"
           id="path506" />
        <path
           d="m 420,77.51 v 0 a 0.69,0.69 0 0 0 0.63,-0.24 0.71,0.71 0 0 0 0.06,-0.67 0.69,0.69 0 0 0 -0.51,-0.42 v 0 a 0.66,0.66 0 0 0 -0.6,0.28 0.63,0.63 0 0 0 0.42,1.05 z"
           style="fill:#ffffff"
           id="path508" />
        <path
           d="m 384,99.52 c 0,0 -13.59,-9.63 -15.18,-8.69 -1.59,0.94 7.3,5.17 15.18,8.69 z"
           style="fill:#ffffff"
           id="path510" />
        <path
           d="m 411,111.83 c 0,0 13.6,9.63 15.19,8.69 1.59,-0.94 -7.28,-5.16 -15.19,-8.69 z"
           style="fill:#ffffff"
           id="path512" />
        <path
           d="m 382.77,107.08 c 0,0 -16.59,-1.54 -17.5,0.07 -0.91,1.61 8.87,0.85 17.5,-0.07 z"
           style="fill:#ffffff"
           id="path514" />
        <path
           d="m 412.26,104.27 c 0,0 16.59,1.54 17.5,-0.07 0.91,-1.61 -8.87,-0.83 -17.5,0.07 z"
           style="fill:#ffffff"
           id="path516" />
        <path
           d="m 409.59,97.09 c 0,0 15.13,-7 15.12,-8.81 -0.01,-1.81 -8.11,3.72 -15.12,8.81 z"
           style="fill:#ffffff"
           id="path518" />
        <path
           d="m 391.36,119.15 c 0,0 -9.63,13.59 -8.69,15.19 0.94,1.6 5.16,-7.27 8.69,-15.19 z"
           style="fill:#ffffff"
           id="path520" />
        <path
           d="m 403.67,92.2 c 0,0 9.63,-13.59 8.69,-15.2 -0.94,-1.61 -5.16,7.28 -8.69,15.2 z"
           style="fill:#ffffff"
           id="path522" />
        <path
           d="m 398.92,120.42 c 0,0 -1.54,16.59 0.07,17.5 1.61,0.91 0.84,-8.87 -0.07,-17.5 z"
           style="fill:#ffffff"
           id="path524" />
        <path
           d="m 396.11,90.93 c 0,0 1.54,-16.59 -0.07,-17.5 -1.61,-0.91 -0.83,8.87 0.07,17.5 z"
           style="fill:#ffffff"
           id="path526" />
        <path
           d="m 406.11,117.74 c 0,0 7,15.14 8.8,15.12 1.8,-0.02 -3.71,-8.1 -8.8,-15.12 z"
           style="fill:#ffffff"
           id="path528" />
        <path
           d="m 388.93,93.61 c 0,0 -7,-15.14 -8.81,-15.12 -1.81,0.02 3.71,8.1 8.81,15.12 z"
           style="fill:#ffffff"
           id="path530" />
        <path
           d="m 386,115.57 c 0,0 -15.5,6.09 -15.59,7.94 -0.09,1.85 8.25,-3.25 15.59,-7.94 z"
           style="fill:#ffffff"
           id="path532" />
      </g>
      <path
         d="m 386,115.57 c 0,0 -15.5,6.09 -15.59,7.94 -0.09,1.85 8.25,-3.25 15.59,-7.94 z"
         style="fill:#ffffff"
         id="path536" />
      <g
         style="opacity:0.2"
         id="g540">
        <path
           d="m 386,115.57 c 0,0 -15.5,6.09 -15.59,7.94 -0.09,1.85 8.25,-3.25 15.59,-7.94 z"
           style="fill:#ffffff"
           id="path538" />
      </g>
      <path
         d="m 359.93,158 0.53,-1.27 0.62,-1.47 0.87,-1.89 a 88,88 0 0 1 5.57,-10.07 92.17,92.17 0 0 1 7.5,-10.09 c 2.47,-2.87 4.63,-5.06 5.69,-6.13 2.07,-2.19 4,-4.12 5.31,-5.64 1.31,-1.52 2.08,-2.54 1.83,-2.86 -0.25,-0.32 -1.44,0.2 -3.17,1.31 a 37.62,37.62 0 0 0 -6.06,5.18 66.94,66.94 0 0 0 -5.51,6.62 85.89,85.89 0 0 0 -6.85,10.88 87.06,87.06 0 0 0 -4.73,10.63 c -0.26,0.72 -0.49,1.38 -0.7,2 -0.21,0.62 -0.35,1.1 -0.48,1.52 z"
         style="fill:#ffffff"
         id="path542" />
      <g
         style="opacity:0.2"
         id="g546">
        <path
           d="m 359.93,158 0.53,-1.27 0.62,-1.47 0.87,-1.89 a 88,88 0 0 1 5.57,-10.07 92.17,92.17 0 0 1 7.5,-10.09 c 2.47,-2.87 4.63,-5.06 5.69,-6.13 2.07,-2.19 4,-4.12 5.31,-5.64 1.31,-1.52 2.08,-2.54 1.83,-2.86 -0.25,-0.32 -1.44,0.2 -3.17,1.31 a 37.62,37.62 0 0 0 -6.06,5.18 66.94,66.94 0 0 0 -5.51,6.62 85.89,85.89 0 0 0 -6.85,10.88 87.06,87.06 0 0 0 -4.73,10.63 c -0.26,0.72 -0.49,1.38 -0.7,2 -0.21,0.62 -0.35,1.1 -0.48,1.52 z"
           style="fill:#ffffff"
           id="path544" />
      </g>
    </g>
  </g>
</svg>
